<?xml version="1.0" encoding="utf-8"?>
<!-- Generator: Adobe Illustrator 16.0.0, SVG Export Plug-In . SVG Version: 6.00 Build 0)  -->
<!DOCTYPE svg PUBLIC "-//W3C//DTD SVG 1.1//EN" "http://www.w3.org/Graphics/SVG/1.1/DTD/svg11.dtd">
<svg version="1.1" id="레이어_1" xmlns="http://www.w3.org/2000/svg" xmlns:xlink="http://www.w3.org/1999/xlink" x="0px"
	 y="0px" width="215px" height="190px" viewBox="0 0 215 190" enable-background="new 0 0 215 190" xml:space="preserve">
<g>
	<g>
		<g>
			<path fill="#3E454B" d="M-0.001,171.851h3.858c8.888,0,11.397-2.894,11.397-14.868c0-11.775-0.771-22.398-0.771-35.335
				c0-17.185,5.405-23.554,16.797-26.065v-0.966c-11.392-2.705-16.797-9.075-16.797-26.065c0-13.326,0.771-23.944,0.771-35.531
				c0-11.975-2.51-14.868-11.397-14.868h-3.858V0.002h14.484c19.695,0,28.575,7.719,28.575,31.856
				c0,15.448-2.128,22.979-2.128,36.88c0,7.727,4.64,15.835,18.734,16.225v20.078c-14.095,0.389-18.734,8.498-18.734,16.223
				c0,13.902,2.128,21.434,2.128,37.074c0,23.943-8.88,31.664-28.575,31.664H-0.001V171.851z"/>
		</g>
	</g>
	<rect x="57.68" y="84.963" fill="#3E454B" width="157.319" height="20.078"/>
</g>
</svg>
