<?xml version="1.0" encoding="utf-8"?>
<!-- Generator: Adobe Illustrator 16.0.0, SVG Export Plug-In . SVG Version: 6.00 Build 0)  -->
<!DOCTYPE svg PUBLIC "-//W3C//DTD SVG 1.1//EN" "http://www.w3.org/Graphics/SVG/1.1/DTD/svg11.dtd">
<svg version="1.1" id="레이어_1" xmlns="http://www.w3.org/2000/svg" xmlns:xlink="http://www.w3.org/1999/xlink" x="0px"
	 y="0px" width="432px" height="112px" viewBox="0 0 432 112" enable-background="new 0 0 432 112" xml:space="preserve">
<g>
	<g>
		<polygon fill="#FFFFFF" points="37.397,34.161 38.523,34.161 38.523,7.987 37.397,7.695 		"/>
		<path fill="#FFFFFF" d="M30.232,8.163V7.071H16.346v19.311h2.286c5.63,0,9.655-0.271,14.808-1.16l-0.205-1.057
			c-4.947,0.922-9.041,1.16-14.603,1.16h-1.16V8.163H30.232z"/>
		<path fill="#FFFFFF" d="M54.391,14.305c0,5.287-4.88,11.053-8.496,12.965l0.717,0.92c3.173-1.809,7.028-6.141,8.325-10.814
			c1.296,4.572,5.22,8.426,8.495,10.098l0.716-0.92c-3.786-1.74-8.665-6.926-8.665-12.248v-1.921l-1.092-0.283V14.305z"/>
		<polygon fill="#FFFFFF" points="68.788,34.127 69.914,34.127 69.914,16.126 68.788,15.834 		"/>
		<polygon fill="#FFFFFF" points="100.247,27.27 82.607,27.27 82.607,33.649 102.737,33.649 102.737,32.625 83.699,32.625 
			83.699,28.258 101.339,28.258 101.339,24.273 100.247,23.99 		"/>
		<polygon fill="#FFFFFF" points="82.505,22.219 82.505,23.245 97.373,23.245 93.418,22.219 		"/>
		<rect x="39.88" y="54.317" fill="#FFFFFF" width="9.545" height="39.591"/>
		<polygon fill="#FFFFFF" points="21.381,90.49 11.837,90.49 11.837,108.754 50.721,108.754 50.721,101.271 21.381,101.271 		"/>
		<path fill="#FFFFFF" d="M20.792,77.883c2.475,4.479,6.422,8.072,12.372,9.898l4.831-7.365
			c-9.073-2.828-12.195-9.191-12.431-15.082H35.58V57.91H5.593v7.424h10.251C15.607,71.639,12.427,78.412,3,81.301l4.89,7.363
			C14.253,86.721,18.377,82.773,20.792,77.883z"/>
		<path fill="#FFFFFF" d="M87.126,86.602h15.141V57.557h-9.426v7.777H71.749v-7.777h-9.426v29.045h15.258v9.25H57.374v7.6h50.018
			v-7.6H87.126V86.602z M71.749,79.121v-6.422h21.092v6.422H71.749z"/>
		<path fill="#FFFFFF" d="M122.706,88.723V59.207h-9.367v37.588h4.064c7.188,0,13.078-0.236,19.383-1.531l-1.18-7.895
			C131.247,88.252,127.183,88.605,122.706,88.723z"/>
		<polygon fill="#FFFFFF" points="138.729,71.107 128.714,71.107 128.714,78.707 138.729,78.707 138.729,107.281 147.567,107.281 
			147.567,55.083 138.729,55.083 		"/>
		<rect x="150.454" y="54.258" fill="#FFFFFF" width="9.014" height="55.261"/>
		<rect x="165.769" y="96.029" fill="#FFFFFF" width="50.076" height="7.6"/>
		<polygon fill="#FFFFFF" points="210.366,65.451 210.366,57.969 171.306,57.969 171.306,89.43 210.72,89.43 210.72,82.008 
			181.026,82.008 181.026,77.234 209.011,77.234 209.011,69.988 181.026,69.988 181.026,65.451 		"/>
		<path fill="#FFFFFF" d="M254.901,80.182c-11.605,1.531-24.98,1.59-35.172,1.59l1.119,7.6c3.594,0,7.424,0,11.547-0.176v18.793
			h9.545V88.723c4.418-0.412,9.014-0.883,13.49-1.707L254.901,80.182z"/>
		<path fill="#FFFFFF" d="M223.382,67.867c0,6.775,6.01,11.607,14.139,11.607c8.189,0,14.199-4.832,14.199-11.607
			c0-1.798-0.442-3.455-1.23-4.926l-20.052-5.199C226.14,59.648,223.382,63.322,223.382,67.867z M237.521,63.449
			c3.182,0,5.303,1.473,5.303,4.418c0,3.004-2.121,4.418-5.303,4.418c-3.121,0-5.242-1.414-5.242-4.418
			C232.278,64.922,234.399,63.449,237.521,63.449z"/>
		<polygon fill="#FFFFFF" points="258.024,91.139 247.772,91.139 247.772,98.268 258.024,98.268 258.024,109.52 267.567,109.52 
			267.567,67.369 258.024,64.895 		"/>
		<path fill="#FFFFFF" d="M277.933,74.701l1.119,7.6l30.578-1.473c-0.414,3.477-1.002,7.188-2.004,11.313l9.367,0.883
			c1.019-4.693,1.654-8.704,2.052-12.309l-24.902-6.457L277.933,74.701z"/>
		<rect x="274.163" y="95.971" fill="#FFFFFF" width="50.018" height="7.658"/>
		<polygon fill="#FFFFFF" points="355.579,93.908 364.415,93.908 364.415,92.477 355.579,90.187 		"/>
		<path fill="#FFFFFF" d="M332.308,88.959c1.974-0.897,3.653-2.088,5.095-3.485l-9.318-2.415L332.308,88.959z"/>
		<polygon fill="#FFFFFF" points="366.714,95.617 375.728,95.617 375.728,95.41 366.714,93.073 		"/>
		<polygon fill="#FFFFFF" points="347.39,90.902 337.845,90.902 337.845,108.754 376.964,108.754 376.964,101.271 347.39,101.271 		
			"/>
		<polygon fill="#FFFFFF" points="419.909,106.864 419.909,109.697 429.454,109.697 429.454,109.339 		"/>
	</g>
</g>
</svg>
