<?xml version="1.0" encoding="utf-8"?>
<!-- Generator: Adobe Illustrator 16.0.0, SVG Export Plug-In . SVG Version: 6.00 Build 0)  -->
<!DOCTYPE svg PUBLIC "-//W3C//DTD SVG 1.1//EN" "http://www.w3.org/Graphics/SVG/1.1/DTD/svg11.dtd">
<svg version="1.1" id="레이어_1" xmlns="http://www.w3.org/2000/svg" xmlns:xlink="http://www.w3.org/1999/xlink" x="0px"
	 y="0px" width="432px" height="112px" viewBox="0 0 432 112" enable-background="new 0 0 432 112" xml:space="preserve">
<g>
	<g>
		<polygon fill="#FFFFFF" points="37.397,4.036 37.397,11.695 38.523,11.987 38.523,4.036 		"/>
		<polygon fill="#FFFFFF" points="30.232,7.071 19.559,7.071 23.771,8.163 30.232,8.163 		"/>
		<path fill="#FFFFFF" d="M55.482,8.299h7.915V7.276H46.646v1.023h7.745v6.006c0,0.58-0.067,1.165-0.177,1.75l1.529,0.396
			c-0.165-0.708-0.261-1.425-0.261-2.146V8.299z"/>
		<polygon fill="#FFFFFF" points="68.788,4 68.788,19.834 69.914,20.126 69.914,4 		"/>
		<polygon fill="#FFFFFF" points="100.212,20.583 101.339,20.583 101.339,4 100.212,4 100.212,11.473 93.661,11.473 93.661,12.497 
			100.212,12.497 		"/>
		<path fill="#FFFFFF" d="M94.241,17.92l-0.17-1.023c-3.992,0.752-7.199,0.889-13.307,0.889H79.81v-5.051h11.43v-1.023H79.81V7.106
			h12.146V6.083H78.685v12.727h2.08C86.906,18.809,90.114,18.672,94.241,17.92z"/>
		<polygon fill="#FFFFFF" points="101.339,22.219 82.505,22.219 82.505,23.245 100.247,23.245 100.247,27.27 97.471,27.27 
			101.283,28.258 101.339,28.258 		"/>
		<path fill="#FFFFFF" d="M127.065,16.59c1.365,4.674,5.221,8.734,8.395,10.475l0.715-0.887c-3.684-1.842-8.563-7.404-8.563-12.828
			V6.901h-1.059v6.449c0,5.561-4.811,11.291-8.494,13.236l0.75,0.922C122.017,25.667,125.804,21.401,127.065,16.59z"/>
		<rect x="141.122" y="4" fill="#FFFFFF" width="1.127" height="30.127"/>
		<polygon fill="#FFFFFF" points="167.704,17.614 173.503,17.614 173.503,34.127 174.63,34.127 174.63,4.036 173.503,4.036 
			173.503,16.59 167.704,16.59 167.704,4.854 166.577,4.854 166.577,32.456 167.704,32.456 		"/>
		<path fill="#FFFFFF" d="M164.155,25.051l-0.205-1.023c-3.377,0.818-6.244,0.99-11.465,0.99h-0.646V8.879h10.166V7.856h-11.293
			v18.186h1.809C157.774,26.042,160.606,25.87,164.155,25.051z"/>
		<path fill="#FFFFFF" d="M180.567,36.584l0.443,0.92c2.014-1.193,3.514-3.275,3.514-5.834c0-1.467-0.682-2.389-1.672-2.389
			c-0.715,0-1.398,0.479-1.398,1.398c0,0.889,0.615,1.4,1.398,1.4c0.137,0,0.309,0,0.443-0.035
			C183.263,34.161,182.138,35.696,180.567,36.584z"/>
		<path fill="#FFFFFF" d="M200.835,33.616h18.355V23.004h-18.355V33.616z M201.96,24.028h16.104v8.564H201.96V24.028z"/>
		<path fill="#FFFFFF" d="M196.468,20.309l0.443,0.99c8.734-2.49,14.328-7.949,14.328-15.115h-13.578v1.023h12.352
			C209.603,13.418,204.382,18.057,196.468,20.309z"/>
		<polygon fill="#FFFFFF" points="219.19,13.145 224.103,13.145 224.103,12.122 219.19,12.122 219.19,4.036 218.063,4.036 
			218.063,21.368 219.19,21.368 		"/>
		<path fill="#FFFFFF" d="M236.626,16.59c1.365,4.674,5.221,8.734,8.395,10.475l0.715-0.887c-3.684-1.842-8.563-7.404-8.563-12.828
			V6.901h-1.059v6.449c0,5.561-4.811,11.291-8.496,13.236l0.752,0.922C231.577,25.667,235.364,21.401,236.626,16.59z"/>
		<rect x="250.683" y="4" fill="#FFFFFF" width="1.127" height="30.127"/>
		<rect x="258.874" y="18.5" fill="#FFFFFF" width="27.363" height="1.023"/>
		<polygon fill="#FFFFFF" points="262.456,27.542 262.456,33.581 283.745,33.581 283.745,32.557 263.548,32.557 263.548,28.565 
			282.653,28.565 282.653,22.903 262.353,22.903 262.353,23.891 281.562,23.891 281.562,27.542 		"/>
		<polygon fill="#FFFFFF" points="281.425,9.665 262.593,9.665 262.593,15.362 283.063,15.362 283.063,14.338 263.685,14.338 
			263.685,10.655 282.517,10.655 282.517,5.262 262.489,5.262 262.489,6.252 281.425,6.252 		"/>
		<polygon fill="#FFFFFF" points="327.079,17.989 314.079,17.989 314.079,14.168 323.804,14.168 323.804,13.145 304.901,13.145 
			304.901,6.354 323.429,6.354 323.429,5.331 303.776,5.331 303.776,14.168 312.954,14.168 312.954,17.989 299.921,17.989 
			299.921,19.012 327.079,19.012 		"/>
		<polygon fill="#FFFFFF" points="303.47,27.303 303.47,33.616 324.417,33.616 324.417,32.592 304.562,32.592 304.562,28.293 
			323.394,28.293 323.394,22.528 303.366,22.528 303.366,23.516 322.302,23.516 322.302,27.303 		"/>
		<polygon fill="#FFFFFF" points="353.966,17.717 359.493,17.717 359.493,16.694 353.966,16.694 353.966,4 352.841,4 
			352.841,34.127 353.966,34.127 		"/>
		<path fill="#FFFFFF" d="M330.937,24.983l0.17,1.092c5.494,0,12.965-0.068,19.482-1.023l-0.104-0.92
			c-1.875,0.238-3.855,0.408-5.834,0.51V8.743h3.924V7.719h-16.922v1.023h3.924V24.95C333.938,24.983,332.37,24.983,330.937,24.983z
			 M336.702,8.743h6.824v15.967c-2.287,0.137-4.641,0.205-6.824,0.24V8.743z"/>
		<polygon fill="#FFFFFF" points="385.356,18.057 390.884,18.057 390.884,17.034 385.356,17.034 385.356,4 384.231,4 
			384.231,34.127 385.356,34.127 		"/>
		<polygon fill="#FFFFFF" points="380.478,9.186 372.187,9.186 372.187,4.239 371.062,4.239 371.062,9.186 362.497,9.186 
			362.497,10.209 380.478,10.209 		"/>
		<path fill="#FFFFFF" d="M378.704,20.172c0-3.924-2.934-6.652-7.029-6.652c-4.059,0-6.994,2.729-6.994,6.652
			c0,3.959,2.936,6.652,6.994,6.652C375.771,26.825,378.704,24.131,378.704,20.172z M371.675,25.801
			c-3.412,0-5.936-2.49-5.936-5.629s2.523-5.629,5.936-5.629c3.447,0,5.971,2.49,5.971,5.629S375.122,25.801,371.675,25.801z"/>
		<rect x="394.024" y="20.002" fill="#FFFFFF" width="27.33" height="1.023"/>
		<polygon fill="#FFFFFF" points="397.948,24.676 397.948,33.309 418.284,33.309 418.284,32.284 399.075,32.284 399.075,24.676 		
			"/>
		<polygon fill="#FFFFFF" points="418.079,13.997 399.177,13.997 399.177,5.127 398.052,5.127 398.052,15.022 418.079,15.022 		"/>
		<path fill="#FFFFFF" d="M237.521,56.321c-4.732,0-8.735,1.644-11.264,4.337l10.861,2.816c0.136-0.006,0.262-0.025,0.402-0.025
			c1.609,0,2.943,0.381,3.873,1.134l10.291,2.668C251.326,60.86,245.455,56.321,237.521,56.321z"/>
		<polygon fill="#FFFFFF" points="258.024,54.258 258.024,68.895 267.567,71.369 267.567,54.258 		"/>
		<path fill="#FFFFFF" d="M319.704,58.676h-40.121v7.482h30.754c0,2.416,0,5.008-0.119,7.66l-30.032,0.822l24.743,6.414l4.701-0.227
			c-0.055,0.458-0.121,0.932-0.183,1.398l9.097,2.358c1.159-7.849,1.16-13.687,1.16-19.722V58.676z"/>
		<path fill="#FFFFFF" d="M341.792,79.061c1.709,3.713,4.359,6.658,8.248,8.543l5.125-7.188c-6.893-3.535-8.777-9.662-8.777-15.965
			V57.91h-9.25v6.541c0,6.539-2.18,13.49-10.016,17.262l4.477,6.256l1.75,0.454C337.309,86.313,340.058,83.02,341.792,79.061z"/>
		<rect x="366.714" y="54.317" fill="#FFFFFF" width="9.014" height="41.3"/>
		<polygon fill="#FFFFFF" points="364.415,93.908 364.415,55.143 355.579,55.143 355.579,66.158 350.099,66.158 350.099,73.758 
			355.579,73.758 355.579,93.908 		"/>
		<polygon fill="#FFFFFF" points="429.454,109.697 429.454,54.2 419.909,54.2 419.909,72.934 411.483,72.934 411.483,80.535 
			419.909,80.535 419.909,109.697 		"/>
		<path fill="#FFFFFF" d="M384.974,97.561h4.652c8.662,0,15.967-0.117,23.979-1.297l-0.766-7.541
			c-6.303,0.943-12.018,1.238-18.381,1.297v-8.719h14.553v-7.365h-14.553v-7.719h16.143v-7.6h-25.627V97.561z"/>
	</g>
</g>
</svg>
