<?xml version="1.0" encoding="utf-8"?>
<!-- Generator: Adobe Illustrator 16.0.0, SVG Export Plug-In . SVG Version: 6.00 Build 0)  -->
<!DOCTYPE svg PUBLIC "-//W3C//DTD SVG 1.1//EN" "http://www.w3.org/Graphics/SVG/1.1/DTD/svg11.dtd">
<svg version="1.1" id="레이어_1" xmlns="http://www.w3.org/2000/svg" xmlns:xlink="http://www.w3.org/1999/xlink" x="0px"
	 y="0px" width="292px" height="207px" viewBox="0 0 292 207" enable-background="new 0 0 292 207" xml:space="preserve">
<g transform="translate(192 96)">
	<path fill="#FFFFFF" d="M93.249-29.131c-7.6-20.036-20.989-36.914-38.69-48.879c-8.512-5.761-17.808-10.208-27.642-13.252
		c-9.936-3.057-20.212-4.623-30.553-4.623c-12.562,0-24.927,2.26-36.786,6.782c-1.711,0.646-3.512,1.378-5.404,2.262
		c-6.404-2.892-13.118-5.129-19.945-6.657C-73.186-95.178-80.758-96-88.326-96c-8.859,0-17.706,1.137-26.318,3.411
		c-13.511,3.538-25.958,9.615-36.951,18.066c-10.593,8.175-19.427,18.167-26.211,29.764c-6.796,11.598-11.194,24.192-13.131,37.42
		c-1.987,13.683-1.177,27.502,2.354,40.983c2.986,11.37,7.771,22.021,14.32,31.635c6.313,9.348,14.073,17.535,23.072,24.395
		c8.93,6.772,18.827,12.014,29.404,15.653c10.754,3.663,21.975,5.521,33.327,5.521c8.821,0,17.688-1.137,26.335-3.398
		c5.426-1.428,10.8-3.309,16.021-5.597c6.6,2.969,13.517,5.256,20.611,6.797c7.188,1.566,14.56,2.351,21.907,2.351l0,0
		c12.58,0,24.92-2.262,36.768-6.771c13.086-4.966,24.769-12.318,34.805-21.894c9.682-9.236,17.384-20.151,22.896-32.405
		c5.505-12.217,8.568-25.217,9.043-38.584c0.525-13.82-1.74-27.438-6.682-40.477H93.249z M2.832,56.41
		c4.475-8.301,7.777-17.119,9.851-26.264l15.272,3.776L10.033-28.334l-45.062,46.643l15.333,3.815
		c-5.52,25.721-25.257,46.428-50.881,53.109c-5.878,1.567-11.871,2.339-17.852,2.339c-31.906,0-59.807-21.528-67.926-52.367
		c-4.74-18.128-2.162-37.003,7.328-53.147c9.453-16.184,24.66-27.707,42.822-32.481c5.835-1.517,11.815-2.3,17.775-2.3
		c2.766,0,5.582,0.177,8.372,0.531c-5.847,6.367-10.877,13.454-14.994,21.161c-4.363,8.187-7.609,16.891-9.641,25.911l-13.669-6.33
		l5.733,64.506l53.094-37.206l-13.859-6.443c3.076-26.151,20.093-48.007,44.849-57.406c7.999-3.045,16.408-4.586,24.914-4.586
		c28.977,0,55.358,18.191,65.667,45.266c6.671,17.497,6.12,36.547-1.595,53.641C52.78,53.392,38.861,66.479,21.329,73.125
		c-7.998,3.019-16.353,4.547-24.819,4.547c-2.828,0-5.645-0.176-8.435-0.505C-6.192,70.9-1.243,63.928,2.819,56.41H2.832z"/>
</g>
</svg>
