<?xml version="1.0" encoding="utf-8"?>
<!-- Generator: Adobe Illustrator 16.0.0, SVG Export Plug-In . SVG Version: 6.00 Build 0)  -->
<!DOCTYPE svg PUBLIC "-//W3C//DTD SVG 1.1//EN" "http://www.w3.org/Graphics/SVG/1.1/DTD/svg11.dtd">
<svg version="1.1" id="레이어_1" xmlns="http://www.w3.org/2000/svg" xmlns:xlink="http://www.w3.org/1999/xlink" x="0px"
	 y="0px" width="628px" height="576px" viewBox="0 0 628 576" enable-background="new 0 0 628 576" xml:space="preserve">
<polygon fill="#3E454B" points="333.939,362.13 336.343,373.234 388.504,340.596 381.656,332.271 "/>
<polygon fill="#3E454B" points="298.861,322.521 301.265,333.625 357.482,298.449 350.635,290.125 "/>
<g>
	
		<rect x="-19.044" y="283.285" transform="matrix(0.6303 0.7763 -0.7763 0.6303 352.067 -162.0939)" fill="#3E454B" width="730.558" height="10.691"/>
</g>
<g>
	
		<rect x="527.948" y="281.496" transform="matrix(0.8045 0.5939 -0.5939 0.8045 361.8266 -231.9534)" fill="#3E454B" width="10.688" height="304.412"/>
</g>
<g>
	<g>
		<path fill="#3E454B" d="M196.222,397.238v-6.217c-0.104,0.028-0.902,0.233-0.902,0.233l-1.697-3.426l0.916-0.219
			c2.081-0.496,3.536-1.346,4.216-2.436h-4.039v-3.535h8.701v0.75c0,3.242-1.384,5.725-4.042,7.315h4.178v-8.869h4.099v3.063h1.876
			v3.603h-1.876v9.733L196.222,397.238L196.222,397.238z M203.6,393.734v-0.521h-3.327v0.521H203.6z"/>
		<path fill="#FFFFFF" d="M206.9,381.589v3.063h1.876v2.102H206.9v3.177h-2.6v-8.341L206.9,381.589 M202.666,382.391
			c0,4.138-2.438,6.832-6.943,7.986l-1.011-2.037c3.159-0.754,4.779-2.213,5.146-3.914h-4.396v-2.035H202.666 M206.9,390.458v6.028
			h-9.929v-6.028H206.9 M199.522,394.484h4.827v-2.021h-4.827V394.484 M208.4,380.089h-1.5h-2.6h-1.5v0.803h-0.136h-7.201h-1.5v1.5
			v2.035v1.5h1.5h1.41c-0.651,0.391-1.496,0.713-2.512,0.955l-1.833,0.438l0.838,1.688l1.01,2.037l0.539,1.09l0.556-0.143v4.496v1.5
			h1.5h9.929h1.5v-1.5v-6.029v-1.5v-0.705h0.376h1.5v-1.5v-2.102v-1.5h-1.5H208.4v-1.563V380.089L208.4,380.089z M201.555,388.958
			c0.479-0.472,0.896-0.984,1.246-1.539v1.539H201.555L201.555,388.958z"/>
	</g>
	<g>
		<path fill="#3E454B" d="M218.99,397.449v-3.904c-2.218,0.377-4.387,0.455-7.123,0.455h-2.13v-7.916h4.521v-0.504h-4.538v-3.537
			h8.688v7.563h-4.523v0.776c1.95-0.052,3.408-0.188,4.894-0.453l0.215-0.038v-9.067h4.1v16.627h-4.101L218.99,397.449
			L218.99,397.449z"/>
		<path fill="#FFFFFF" d="M222.34,381.572v15.127h-2.601v-15.127H222.34 M217.657,382.792v6.063h-4.523v2.293
			c2.15-0.031,3.896-0.146,5.774-0.48l0.256,2.084c-2.276,0.416-4.477,0.498-7.297,0.498h-1.38v-6.416h4.521v-2.004h-4.538v-2.037
			L217.657,382.792 M223.84,380.072h-1.5h-2.601h-1.5v1.221h-0.582h-7.188h-1.5v1.5v2.037v1.5h0.018v0.504v6.416v1.5h1.5h1.38
			c2.418,0,4.401-0.061,6.373-0.332v2.281v1.5h1.5h2.6h1.5v-1.5v-15.127V380.072L223.84,380.072z"/>
	</g>
	<g>
		<path fill="#3E454B" d="M223.703,395.73v-3.568h2.614v-4.617h7.293c0.053-0.724,0.076-1.392,0.09-2.014h-8.715v-3.537h12.823
			v2.113c0,1.776,0,3.989-0.523,7.227l-0.113,0.695l-3.101-0.31v0.441h4.779v3.567L223.703,395.73L223.703,395.73z"/>
		<path fill="#FFFFFF" d="M237.06,382.744v1.363c0,1.78,0,3.93-0.516,7.104l-2.599-0.258c0.45-2.582,0.498-4.57,0.515-6.174h-8.726
			v-2.037L237.06,382.744 M233.322,388.294v4.617h4.779v2.066h-13.647v-2.066h2.614v-4.617h2.55v4.617h1.154v-4.617H233.322
			 M238.56,381.244h-1.5h-11.323h-1.5v1.5v2.037v1.5h1.5h7.192c-0.007,0.168-0.015,0.34-0.023,0.514h-1.788h-1.5h-2.55h-1.5v1.5
			v3.117h-1.114h-1.5v1.5v2.068v1.5h1.5h13.647h1.5v-1.5v-2.068v-1.5h-1.5h-0.068c0.526-3.271,0.526-5.508,0.526-7.305v-1.363
			L238.56,381.244L238.56,381.244z"/>
	</g>
	<g>
		<path fill="#3E454B" d="M240.827,397.173v-5.93c-0.086,0.031-0.174,0.062-0.262,0.088l-0.549,0.172l-2.148-3.377l0.935-0.293
			c2.585-0.81,2.971-2.844,2.971-3.984v-2.176h4.146v2.176c0,1.825,0.854,3.06,2.54,3.666v-6.659h4.1v12.438h-4.1v-3.476
			l-0.915,1.435l-0.548-0.172c-1.292-0.406-2.336-1.102-3.117-2.07c-0.522,0.707-1.177,1.287-1.941,1.729h2.986v2.899h7.987v3.536
			L240.827,397.173L240.827,397.173z"/>
		<path fill="#FFFFFF" d="M251.809,381.605v10.938h-2.6v-10.938H251.809 M245.17,382.423v1.426c0,1.814,0.77,3.689,3.353,4.478
			l-1.3,2.037c-1.637-0.515-2.71-1.508-3.367-2.761c-0.658,1.363-1.78,2.472-3.514,3.015l-1.314-2.066
			c2.663-0.834,3.497-2.87,3.497-4.7v-1.427L245.17,382.423 M244.175,391.486v2.899h7.987v2.037h-10.585v-4.938L244.175,391.486
			 M253.309,380.105h-1.5h-2.6h-1.5v1.5v4.672c-0.705-0.547-1.04-1.343-1.04-2.429v-1.426v-1.5h-1.5h-2.646h-1.5v1.5v1.426
			c0,1.661-0.822,2.763-2.444,3.271l-1.869,0.586l1.053,1.651l1.314,2.064l0.616,0.971l0.384-0.119v4.15v1.5h1.5h10.585h1.5v-1.5
			v-2.037v-1.5h-0.354v-0.344v-10.938V380.105L253.309,380.105z M245.675,392.885v-1.399v-0.125
			c0.347,0.168,0.713,0.313,1.099,0.434l0.938,0.295v0.453v0.345L245.675,392.885L245.675,392.885z"/>
	</g>
	<g>
		<path fill="#3E454B" d="M262.555,397.398v-3.048h-7.588v-3.536h0.729c-1.134-0.626-1.833-1.671-1.833-2.923
			c0-0.938,0.394-1.762,1.068-2.377h-1.741v-3.506h3.126v-1.25h4.1v1.25h2.142v-1.17h4.098v3.736h1.877v3.602h-1.877v9.222H262.555
			L262.555,397.398z M262.555,390.814v-1.546c-0.311,0.638-0.835,1.168-1.521,1.546H262.555z M258.365,387.777
			c-0.41,0-0.524,0.096-0.525,0.096c0.001,0.041,0.116,0.136,0.525,0.136c0.41,0,0.524-0.095,0.525-0.097
			C258.89,387.873,258.775,387.777,258.365,387.777z M261.799,385.514c0.318,0.291,0.574,0.627,0.756,1v-1H261.799z"/>
		<path fill="#FFFFFF" d="M259.664,381.509v1.25h3.127v2.006h-8.853v-2.006h3.126v-1.25H259.664 M265.902,381.589v3.736h1.877v2.102
			h-1.877v3.625h-2.598v-9.463H265.902 M258.365,385.085c2.182,0,3.753,1.154,3.753,2.807c0,1.653-1.571,2.808-3.753,2.808
			s-3.753-1.154-3.753-2.808C254.612,386.239,256.184,385.085,258.365,385.085 M258.365,388.757c0.755,0,1.267-0.256,1.267-0.865
			c0-0.608-0.512-0.864-1.267-0.864s-1.267,0.256-1.267,0.864C257.098,388.501,257.61,388.757,258.365,388.757 M265.902,391.564
			v5.084h-2.598V393.6h-7.588v-2.036H265.902 M261.164,380.009h-1.5h-2.6h-1.5v1.25h-1.626h-1.5v1.5v2.006v1.5h1.02
			c-0.226,0.495-0.347,1.042-0.347,1.627c0,1.066,0.404,2.011,1.104,2.738v0.935v2.036v1.5h1.5h6.088v1.548v1.5h1.5h2.598h1.5v-1.5
			v-5.084v-1.5v-1.138h0.377h1.5v-1.5v-2.102v-1.5h-1.5h-0.377v-2.236v-1.5h-1.5h-2.598h-1.5v1.17h-0.642L261.164,380.009
			L261.164,380.009z"/>
	</g>
	<g>
		<path fill="#3E454B" d="M278.508,397.367v-0.658h-3.353v-2.869c-1.688,0.266-3.228,0.32-4.992,0.32h-1.841v-11.621h6.833v-1.459
			h3.353v-0.24h3.953v16.527H278.508L278.508,397.367z M272.374,390.51c0.92-0.053,1.812-0.148,2.704-0.297l0.077-0.014v-4.093
			h-2.781V390.51z"/>
		<path fill="#FFFFFF" d="M281.711,381.589v15.027h-2.453v-7.298h-0.946v6.64h-2.403v-14.129h2.403v5.438h0.946v-5.678H281.711
			 M274.606,383.289v2.07h-2.981v5.934c1.139-0.03,2.31-0.129,3.576-0.338l0.19,2.086c-1.859,0.32-3.479,0.369-5.229,0.369h-1.091
			v-10.121H274.606 M283.211,380.089h-1.5h-2.453h-1.5v0.24h-1.853h-1.5v1.459h-5.333h-1.5v1.5v10.121v1.5h1.5h1.091
			c1.497,0,2.838-0.041,4.242-0.209v1.258v1.5h1.5h1.853v0.658h1.5h2.453h1.5v-1.5v-15.027V380.089L283.211,380.089z
			 M273.124,386.859h1.281v2.699c-0.425,0.061-0.851,0.108-1.281,0.146V386.859L273.124,386.859z"/>
	</g>
	<g>
		<path fill="#3E454B" d="M292.055,397.398v-3.048h-7.585v-3.536h0.725c-1.134-0.626-1.833-1.671-1.833-2.923
			c0-0.938,0.394-1.762,1.068-2.377h-1.741v-3.506h3.128v-1.25h4.099v1.25h2.142v-1.17h4.099v3.736h1.876v3.602h-1.876v9.222
			H292.055L292.055,397.398z M292.055,390.814v-1.543c-0.311,0.637-0.835,1.165-1.521,1.543H292.055z M287.865,387.777
			c-0.411,0-0.525,0.096-0.526,0.098c0.001,0.037,0.116,0.133,0.526,0.133c0.411,0,0.525-0.094,0.526-0.096
			C288.391,387.873,288.276,387.777,287.865,387.777z M291.3,385.514c0.318,0.29,0.573,0.626,0.755,0.998v-0.998H291.3z"/>
		<path fill="#FFFFFF" d="M289.164,381.509v1.25h3.127v2.006h-8.854v-2.006h3.128v-1.25H289.164 M295.403,381.589v3.736h1.876v2.102
			h-1.876v3.625h-2.599v-9.463H295.403 M287.865,385.085c2.183,0,3.754,1.154,3.754,2.807c0,1.653-1.571,2.808-3.754,2.808
			c-2.182,0-3.754-1.154-3.754-2.808C284.111,386.239,285.684,385.085,287.865,385.085 M287.865,388.757
			c0.756,0,1.268-0.256,1.268-0.865c0-0.608-0.512-0.864-1.268-0.864c-0.753,0-1.268,0.256-1.268,0.864
			C286.597,388.501,287.112,388.757,287.865,388.757 M295.403,391.564v5.084h-2.599V393.6h-7.585v-2.036H295.403 M290.664,380.009
			h-1.5h-2.599h-1.5v1.25h-1.628h-1.5v1.5v2.006v1.5h1.02c-0.226,0.495-0.347,1.042-0.347,1.627c0,1.068,0.405,2.015,1.108,2.742
			v0.931v2.036v1.5h1.5h6.085v1.548v1.5h1.5h2.599h1.5v-1.5v-5.084v-1.5v-1.138h0.376h1.5v-1.5v-2.102v-1.5h-1.5h-0.376v-2.236v-1.5
			h-1.5h-2.599h-1.5v1.17h-0.642L290.664,380.009L290.664,380.009z"/>
	</g>
	<g>
		<path fill="#3E454B" d="M297.456,395.73v-3.568h2.614v-4.617h7.293c0.052-0.724,0.076-1.392,0.088-2.014h-8.714v-3.537h12.822
			v2.113c0,1.776,0,3.989-0.523,7.227l-0.111,0.695l-3.102-0.31v0.441h4.779v3.567L297.456,395.73L297.456,395.73z"/>
		<path fill="#FFFFFF" d="M310.812,382.744v1.363c0,1.78,0,3.93-0.515,7.104l-2.598-0.258c0.449-2.582,0.497-4.57,0.514-6.174
			h-8.726v-2.037L310.812,382.744 M307.074,388.294v4.617h4.779v2.066h-13.648v-2.066h2.615v-4.617h2.549v4.617h1.155v-4.617
			H307.074 M312.312,381.244h-1.5H299.49h-1.499v1.5v2.037v1.5h1.499h7.192c-0.007,0.168-0.015,0.34-0.023,0.514h-1.789h-1.5h-2.549
			h-1.5v1.5v3.117h-1.115h-1.499v1.5v2.068v1.5h1.499h13.648h1.5v-1.5v-2.068v-1.5h-1.5h-0.069c0.526-3.271,0.526-5.508,0.526-7.305
			v-1.363L312.312,381.244L312.312,381.244z"/>
	</g>
</g>
<path fill="#3E454B" d="M332.43,389.102c0,3.443-2.793,6.236-6.236,6.236l0,0c-3.443,0-6.233-2.793-6.233-6.236l0,0
	c0-3.444,2.79-6.233,6.233-6.233l0,0C329.637,382.869,332.43,385.658,332.43,389.102L332.43,389.102z"/>
<g>
	<g>
		<path fill="#3E454B" d="M354.9,349.955c-3.764,0-6.011-1.33-6.011-3.559c0-1.115,0.557-2.004,1.581-2.617h-3.072v-3.537h1.604
			v-6.27h11.957v3.27h0.063v2.998h1.523v3.537h-3.205c1.025,0.613,1.585,1.504,1.585,2.617
			C360.928,348.625,358.675,349.955,354.9,349.955z M353.32,346.392c0.276,0.057,0.755,0.105,1.58,0.105
			c0.824,0,1.307-0.051,1.587-0.105c-0.279-0.057-0.761-0.109-1.587-0.109S353.596,346.336,353.32,346.392z"/>
		<path fill="#FFFFFF" d="M360.21,334.724v2.02h-7.875v1.252h7.938v2.021h-4.01v0.979h5.533v2.037h-13.648v-2.037h5.516v-0.979
			h-3.91v-5.291L360.21,334.724 M354.9,343.574c3.271,0,5.277,1.027,5.277,2.822c0,1.781-2.006,2.809-5.277,2.809
			c-3.256,0-5.261-1.025-5.261-2.809C349.64,344.603,351.645,343.574,354.9,343.574 M354.9,347.248c1.828,0,2.646-0.225,2.646-0.852
			c0-0.625-0.817-0.865-2.646-0.865s-2.629,0.24-2.629,0.865C352.271,347.025,353.072,347.248,354.9,347.248 M361.71,333.224h-1.5
			h-10.457h-1.5v1.5v4.77h-0.104h-1.5v1.5v2.037v1.5h1.5h0.508c-0.443,0.75-0.517,1.479-0.517,1.867
			c0,1.012,0.486,4.309,6.761,4.309c6.289,0,6.777-3.297,6.777-4.309c0-0.391-0.072-1.117-0.52-1.867h0.639h1.5v-1.5v-2.037v-1.5
			h-1.5h-0.023v-1.498v-1.5h-0.063v-1.771L361.71,333.224L361.71,333.224z"/>
	</g>
	<g>
		<path fill="#3E454B" d="M370.422,349.922c-3.743,0-5.979-1.395-5.979-3.73c0-1.514,0.997-2.646,2.735-3.244h-4.469v-8.523h8.75
			v0.963h0.793v-2.021h4.1v10.258h-1.285c0.876,0.629,1.349,1.5,1.349,2.57C376.414,348.529,374.175,349.922,370.422,349.922z
			 M370.422,345.929c-1.604,0-1.869,0.248-1.896,0.273c0.028,0.014,0.29,0.262,1.896,0.262c1.611,0,1.881-0.25,1.904-0.279l0,0
			C372.309,346.185,372.026,345.929,370.422,345.929z M371.46,342.511c0.273,0.021,0.538,0.051,0.793,0.088v-0.662h-0.793V342.511z
			 M367.426,339.441v-1.498h-0.664v1.498H367.426z"/>
		<path fill="#FFFFFF" d="M375.602,334.113v8.758h-2.6v-1.684h-2.293v1.01h-7.25v-7.023h7.25v0.963h2.293v-2.021h2.6
			 M366.011,340.191h2.164v-2.998h-2.164V340.191 M370.71,339.15h2.293v-0.98h-2.293V339.15 M370.422,343.224
			c3.224,0,5.242,1.09,5.242,2.967c0,1.893-2.021,2.98-5.242,2.98c-3.209,0-5.229-1.09-5.229-2.98
			C365.192,344.314,367.213,343.224,370.422,343.224 M370.422,347.215c1.796,0,2.646-0.285,2.646-1.023
			c0-0.723-0.851-1.012-2.646-1.012c-1.799,0-2.633,0.289-2.633,1.012C367.789,346.929,368.623,347.215,370.422,347.215
			 M377.102,332.613h-1.5h-2.6h-1.5v1.061h-0.793h-7.25h-1.5v1.5v7.023v1.5h1.5h1.162c-0.648,0.752-0.931,1.635-0.931,2.494
			c0,2.168,1.769,4.48,6.729,4.48c4.973,0,6.742-2.313,6.742-4.48c0-0.613-0.143-1.238-0.462-1.82h0.398v-1.5v-8.758v-1.5H377.102z"
			/>
	</g>
	<g>
		<path fill="#3E454B" d="M387.067,349.939v-5.484h-1.478c-0.842,1.438-2.188,2.26-3.765,2.277c-2.78,0-4.719-2.551-4.719-6.203
			s1.938-6.203,4.711-6.203c1.438,0,2.714,0.701,3.561,1.939h1.688v-2.955l4.099,0.025v16.604H387.067L387.067,349.939z
			 M381.819,338.185c-0.46,0-0.758,0.92-0.758,2.344c0,1.402,0.305,2.346,0.758,2.346c0.462,0,0.76-0.92,0.76-2.346
			C382.578,339.105,382.281,338.185,381.819,338.185z M387.067,340.886v-1.053h-0.556c0.013,0.215,0.02,0.439,0.02,0.68
			c0,0.131-0.002,0.254-0.005,0.373H387.067z"/>
		<path fill="#FFFFFF" d="M387.817,334.066l2.599,0.016v15.107h-2.599v-5.484h-2.678c-0.689,1.443-1.896,2.262-3.32,2.277
			c-2.277,0-3.961-2.084-3.961-5.453s1.684-5.453,3.961-5.453c1.314,0,2.438,0.689,3.145,1.939h2.854L387.817,334.066
			 M381.819,343.623c0.915,0,1.51-0.979,1.51-3.096s-0.595-3.094-1.51-3.094c-0.913,0-1.508,0.977-1.508,3.094
			S380.906,343.623,381.819,343.623 M385.717,341.636h2.102v-2.553h-2.146c0.08,0.436,0.11,0.932,0.11,1.43
			C385.781,340.912,385.766,341.267,385.717,341.636 M386.317,332.556v1.51v1.449h-0.56c-0.98-1.242-2.377-1.939-3.938-1.939
			c-3.216,0-5.461,2.859-5.461,6.953s2.245,6.953,5.461,6.953c1.721-0.02,3.2-0.836,4.186-2.277h0.313v3.984v1.5h1.5h2.599h1.5v-1.5
			v-15.107v-1.49l-1.489-0.01l-2.601-0.016L386.317,332.556L386.317,332.556z M381.82,340.929c-0.006-0.123-0.009-0.256-0.009-0.4
			c0-0.146,0.003-0.277,0.009-0.4c0.006,0.123,0.009,0.258,0.009,0.4C381.828,340.674,381.825,340.806,381.82,340.929
			L381.82,340.929z"/>
	</g>
	<g>
		<path fill="#3E454B" d="M399.168,349.939c-3.772,0-6.025-1.316-6.025-3.523c0-0.66,0.24-1.98,1.998-2.811h-3.507v-3.521h1.146
			l-1.027-2.338l1.055-0.084c0.575-0.045,1.064-0.113,1.48-0.199h-1.419v-3.521h12.679v3.521h-1.446
			c0.418,0.086,0.91,0.154,1.493,0.199l1.056,0.084l-1.031,2.338h1.148v3.521h-3.605c1.775,0.826,2.02,2.15,2.02,2.811
			C405.179,348.619,402.932,349.939,399.168,349.939z M397.796,346.41c0.296,0.039,0.73,0.07,1.372,0.07
			c0.638,0,1.067-0.031,1.36-0.07c-0.292-0.035-0.724-0.063-1.36-0.063C398.526,346.347,398.091,346.375,397.796,346.41z
			 M400.519,340.082c-0.555-0.307-0.983-0.65-1.319-1c-0.334,0.35-0.765,0.693-1.317,1H400.519z"/>
		<path fill="#FFFFFF" d="M404.798,334.691v2.02h-3.576c0.434,0.738,1.637,1.49,4.313,1.699l-0.884,2.004
			c-2.98-0.225-4.682-1.25-5.453-2.563c-0.77,1.313-2.469,2.34-5.452,2.563l-0.882-2.004c2.663-0.209,3.865-0.961,4.313-1.699
			h-3.561v-2.02H404.798 M406.017,340.832v2.021H400.5v0.85c2.471,0.256,3.93,1.203,3.93,2.711c0,1.766-2.006,2.773-5.262,2.773
			c-3.271,0-5.275-1.01-5.275-2.773c0-1.521,1.49-2.484,4.01-2.729v-0.83h-5.519v-2.021h13.634 M399.168,347.232
			c1.813,0,2.631-0.225,2.631-0.816c0-0.607-0.817-0.816-2.631-0.816c-1.828,0-2.646,0.209-2.646,0.816
			C396.521,347.008,397.34,347.232,399.168,347.232 M406.298,333.191h-1.5h-11.179h-1.5v1.5v2.02v0.254l-1.479,0.115l0.852,1.936
			l0.141,0.316h-0.747v1.5v2.021v1.5h1.5h0.675c-0.584,0.826-0.667,1.658-0.667,2.063c0,1.002,0.487,4.273,6.775,4.273
			c6.272,0,6.762-3.271,6.762-4.273c0-0.492-0.104-1.289-0.646-2.063h0.732h1.5v-1.5v-2.021v-1.5h-0.748l0.14-0.314l0.854-1.939
			l-1.466-0.113v-0.254v-2.02L406.298,333.191L406.298,333.191z"/>
	</g>
</g>
<g>
	<g>
		<path fill="#3E454B" d="M343.397,326.74c-3.688,0-5.979-1.443-5.979-3.767c0-1.373,0.803-2.438,2.22-3.081
			c-2.519-0.184-4.367-2.044-4.367-4.473c0-2.566,2.054-4.504,4.775-4.504c1.214,0,2.335,0.396,3.191,1.123h1.99v-1.861h4.098
			v10.257h-1.232c0.84,0.638,1.3,1.5,1.3,2.539C349.392,325.297,347.095,326.74,343.397,326.74z M343.397,322.682
			c-1.662,0-1.91,0.279-1.92,0.293c0.011,0.021,0.256,0.293,1.92,0.293c1.678,0,1.925-0.275,1.935-0.289
			C345.323,322.967,345.073,322.682,343.397,322.682z M343.397,319.209c0.656,0,1.27,0.045,1.831,0.133v-0.51h-2.049
			c-0.183,0.146-0.374,0.281-0.576,0.399C342.86,319.217,343.125,319.209,343.397,319.209z M340.046,314.6
			c-0.576,0-0.822,0.246-0.822,0.821c0,0.383,0.094,0.82,0.822,0.82s0.82-0.438,0.82-0.82
			C340.866,314.846,340.62,314.6,340.046,314.6z"/>
		<path fill="#FFFFFF" d="M348.575,310.93v8.756h-2.598v-1.604h-3.079c-0.721,0.674-1.715,1.076-2.854,1.076
			c-2.263,0-4.025-1.588-4.025-3.736c0-2.166,1.765-3.754,4.025-3.754c1.169,0,2.181,0.416,2.901,1.123h3.03v-1.86H348.575
			 M340.046,316.992c0.913,0,1.57-0.529,1.57-1.57c0-1.061-0.657-1.571-1.57-1.571c-0.915,0-1.572,0.512-1.572,1.571
			C338.473,316.463,339.131,316.992,340.046,316.992 M344.022,316.045h1.956v-1.217h-1.956c0.031,0.19,0.047,0.383,0.047,0.594
			C344.069,315.647,344.054,315.838,344.022,316.045 M343.397,319.959c3.207,0,5.244,1.107,5.244,3.017
			c0,1.908-2.037,3.016-5.244,3.016c-3.192,0-5.229-1.106-5.229-3.016C338.168,321.067,340.204,319.959,343.397,319.959
			 M343.397,324.018c1.811,0,2.678-0.289,2.678-1.043c0-0.738-0.867-1.043-2.678-1.043c-1.813,0-2.662,0.305-2.662,1.043
			C340.735,323.729,341.585,324.018,343.397,324.018 M350.075,309.43h-1.5h-2.598h-1.5v1.5v0.36H343.5
			c-0.96-0.729-2.163-1.123-3.455-1.123c-3.1,0-5.525,2.309-5.525,5.254c0,2.179,1.335,4.006,3.288,4.805
			c-0.801,0.806-1.142,1.792-1.142,2.749c0,2.184,1.77,4.516,6.729,4.516c4.973,0,6.744-2.332,6.744-4.516
			c0-0.604-0.136-1.217-0.437-1.789h0.369v-1.5v-8.756v-1.5H350.075L350.075,309.43z"/>
	</g>
	<g>
		<path fill="#3E454B" d="M352.455,326.498v-5.305c-0.182,0.069-0.367,0.133-0.561,0.188l-0.548,0.161l-2.087-3.355l0.939-0.279
			c1.788-0.533,2.486-1.596,2.719-2.588h-2.66v-3.507h2.759v-1.522h4.1v1.522h2.773v2.601h0.089v-4.233h4.097v12.582h-4.097v-3.339
			l-1.133,1.88l-0.554-0.158c-0.638-0.184-1.218-0.434-1.736-0.748v2.565h7.842v3.535H352.455L352.455,326.498z M356.527,320.379
			c-0.521-0.318-0.98-0.705-1.38-1.155c-0.339,0.44-0.733,0.827-1.181,1.155H356.527z M357.237,315.321
			c0.118,0.424,0.334,0.855,0.705,1.25v-1.25H357.237z"/>
		<path fill="#FFFFFF" d="M363.325,310.93v11.082h-2.597v-4.779h-2.037v-2.067h2.037v-4.233L363.325,310.93 M356.366,311.041v1.522
			h2.773v2.007h-2.773c0.063,1.491,0.882,3.129,3.354,3.832l-1.22,2.021c-1.622-0.465-2.71-1.377-3.399-2.532
			c-0.645,1.269-1.732,2.276-3.417,2.771l-1.268-2.036c2.47-0.735,3.305-2.438,3.352-4.058h-2.758v-2.006h2.758v-1.522
			L356.366,311.041 M355.807,321.129v2.584h7.842v2.035h-10.441v-4.619H355.807 M364.825,309.43h-1.5h-2.597h-1.5v1.5v0.135h-0.089
			h-1.273v-0.022v-1.5h-1.5h-2.6h-1.5v1.5v0.022h-1.259h-1.5v1.5v2.006v1.5h1.5h0.766c-0.376,0.506-0.97,0.877-1.786,1.119
			l-1.882,0.563l1.037,1.668l1.267,2.037l0.604,0.97l0.691-0.204v3.526v1.5h1.5h10.442h1.5v-1.5v-2.035v-1.5h-0.322v-0.2v-11.082
			V309.43L364.825,309.43z M357.307,322.213v-0.61c0.251,0.1,0.512,0.188,0.78,0.266l1.104,0.315l0.037-0.063v0.092H357.307
			L357.307,322.213z"/>
	</g>
	<g>
		<path fill="#3E454B" d="M374.603,326.772v-4.16l-0.744,1.041l-0.56-0.248c-1.271-0.563-2.294-1.449-3.057-2.646
			c-0.786,1.396-1.891,2.417-3.295,3.046l-0.562,0.251l-2.424-3.419l0.867-0.358c2.72-1.127,3.289-4.084,3.289-6.365v-2.641h4.114
			v2.641c0,2.709,0.795,4.594,2.366,5.617v-9.381h4.098v16.623H374.603z"/>
		<path fill="#FFFFFF" d="M377.949,310.899v15.123h-2.598v-15.123H377.949 M371.486,312.022v1.891c0,2.824,0.853,5.566,3.609,6.722
			l-1.492,2.087c-1.667-0.737-2.742-2.039-3.4-3.688c-0.641,1.813-1.764,3.287-3.56,4.09l-1.524-2.154
			c2.822-1.17,3.752-4.088,3.752-7.057v-1.892L371.486,312.022 M379.449,309.399h-1.5h-2.598h-1.5v1.5v6.793
			c-0.576-0.935-0.866-2.195-0.866-3.779v-1.891v-1.5h-1.5h-2.614h-1.5v1.5v1.891c0,2.054-0.489,4.703-2.825,5.672l-1.735,0.721
			l1.087,1.532l1.522,2.149l0.712,1.006l1.124-0.504c1.219-0.543,2.229-1.353,3.025-2.414c0.742,0.871,1.649,1.545,2.714,2.017
			l0.856,0.381v1.552v1.5h1.5h2.598h1.5v-1.5v-15.125V309.399L379.449,309.399z"/>
	</g>
	<g>
		<path fill="#3E454B" d="M387.056,326.74c-3.647,0-5.914-1.443-5.914-3.767c0-2.026,1.725-3.384,4.587-3.696
			c-0.374-0.261-0.712-0.561-1.015-0.896c-0.819,1.142-1.974,1.963-3.388,2.405l-0.548,0.172l-2.128-3.342l0.924-0.297
			c1.738-0.563,2.479-1.646,2.769-2.66h-2.63v-3.534h8.996v-0.947h4.101v3.257h1.875v3.601h-1.875v3.479h-1.009
			c0.767,0.628,1.185,1.463,1.185,2.459C392.985,325.297,390.713,326.74,387.056,326.74z M387.056,322.698
			c-1.59,0-1.832,0.27-1.843,0.279c0.013,0.014,0.25,0.291,1.843,0.291c1.604,0,1.846-0.277,1.854-0.29
			C388.904,322.966,388.657,322.698,387.056,322.698z M386.853,314.662c0.303,0.82,0.924,1.438,1.856,1.85v-1.85H386.853z"/>
		<path fill="#FFFFFF" d="M392.06,310.93v3.256h1.875v2.1h-1.875v3.48h-2.601v-8.836H392.06 M388.643,311.877v2.035h-2.728
			c0.159,1.478,1.012,2.92,3.307,3.576l-1.237,2.021c-1.619-0.463-2.678-1.362-3.335-2.485c-0.658,1.38-1.797,2.503-3.545,3.05
			l-1.298-2.037c2.39-0.771,3.288-2.486,3.432-4.123h-2.773v-2.035L388.643,311.877 M387.056,319.959c3.158,0,5.18,1.123,5.18,3.017
			c0,1.893-2.021,3.016-5.18,3.016c-3.146,0-5.164-1.123-5.164-3.016C381.892,321.082,383.91,319.959,387.056,319.959
			 M387.056,324.018c1.747,0,2.599-0.306,2.599-1.043c0-0.738-0.852-1.027-2.599-1.027c-1.732,0-2.583,0.289-2.583,1.027
			C384.473,323.713,385.323,324.018,387.056,324.018 M393.56,309.43h-1.5h-2.601h-1.5v0.946h-7.496h-1.5v1.5v2.035v1.5h1.5h0.688
			c-0.403,0.537-1.008,0.938-1.809,1.195l-1.848,0.596l1.043,1.638l1.299,2.037l0.615,0.97l0.108-0.034
			c-0.118,0.383-0.173,0.774-0.173,1.162c0,2.184,1.751,4.516,6.663,4.516c4.926,0,6.681-2.332,6.681-4.516
			c0-0.574-0.121-1.159-0.392-1.709h0.216v-1.5v-1.98h0.375h1.5v-1.5v-2.1v-1.5h-1.5h-0.375v-1.757v-1.5L393.56,309.43
			L393.56,309.43z"/>
	</g>
	<g>
		<path fill="#3E454B" d="M396.532,326.563v-7.688h0.163c-1.474-0.735-2.425-2.126-2.425-3.789c0-2.478,2.122-4.345,4.937-4.345
			c2.637,0,4.663,1.639,4.91,3.879v-4.438h4.103v16.383L396.532,326.563L396.532,326.563z M404.151,320.043v-0.264h-0.033v-4.229
			c-0.2,1.832-1.586,3.264-3.519,3.729v0.764H404.151z M399.207,314.36c-0.899,0-0.899,0.526-0.899,0.726
			c0,0.223,0,0.739,0.899,0.739c0.901,0,0.901-0.519,0.901-0.739C400.109,314.886,400.109,314.36,399.207,314.36z"/>
		<path fill="#FFFFFF" d="M407.469,310.93v8.1h-2.603v-8.1H407.469 M399.207,311.49c2.373,0,4.188,1.51,4.188,3.594
			c0,2.103-1.813,3.607-4.188,3.607s-4.187-1.507-4.187-3.607C395.021,313,396.834,311.49,399.207,311.49 M399.207,316.574
			c0.963,0,1.651-0.496,1.651-1.49c0-0.979-0.688-1.475-1.651-1.475c-0.962,0-1.649,0.495-1.649,1.475
			C397.557,316.078,398.245,316.574,399.207,316.574 M407.469,319.623v6.188h-10.188v-6.188h2.566v1.17h5.052v-1.17H407.469
			 M399.85,323.778h5.052v-1.026h-5.052V323.778 M408.969,309.43h-1.5h-2.603h-1.5v1.5v0.611c-1.021-0.968-2.483-1.552-4.16-1.552
			c-3.241,0-5.687,2.188-5.687,5.094c0,1.736,0.871,3.222,2.262,4.134v0.405v6.188v1.5h1.5h10.188h1.5v-1.5v-6.188v-1.5v-7.192
			V309.43L408.969,309.43z M402.514,319.293c0.311-0.191,0.597-0.413,0.854-0.656v0.394v0.265L402.514,319.293L402.514,319.293z"/>
	</g>
	<g>
		<path fill="#3E454B" d="M414.282,326.725v-5.789h-5.404v-3.57h9.307c0.169-1.088,0.229-2.023,0.254-2.848h-8.085v-3.535h12.15
			v2.096c0,1.215,0,2.567-0.241,4.287h1.73v3.57h-5.58v5.789H414.282z"/>
		<path fill="#FFFFFF" d="M421.754,311.733v1.346c0,1.396,0,2.951-0.369,5.037h1.858v2.07h-5.58v5.789h-2.631v-5.789h-5.404v-2.07
			h9.188c0.321-1.748,0.37-3.112,0.386-4.348h-8.101v-2.035H421.754 M423.254,310.233h-1.5h-10.65h-1.5v1.5v2.035v1.5h1.5h6.551
			c-0.023,0.42-0.063,0.868-0.122,1.348h-7.902h-1.5v1.5v2.07v1.5h1.5h3.904v4.289v1.5h1.5h2.631h1.5v-1.5v-4.289h4.08h1.5v-1.5
			v-2.07v-1.5h-1.5h-0.135c0.146-1.371,0.146-2.504,0.146-3.537v-1.346L423.254,310.233L423.254,310.233z"/>
	</g>
	<g>
		<path fill="#3E454B" d="M433.732,326.74v-3.515h-7.795v-3.521h0.849c-1.799-0.641-3.013-2.258-3.013-4.254
			c0-2.586,2.053-4.534,4.774-4.534c1.242,0,2.39,0.413,3.262,1.17h1.923v-1.902l4.098-0.025v16.582H433.732z M433.732,319.707
			v-0.875h-1.942c-0.443,0.382-0.954,0.677-1.509,0.875H433.732z M428.549,314.615c-0.737,0-0.822,0.479-0.822,0.838
			c0,0.58,0.262,0.853,0.822,0.853c0.56,0,0.819-0.271,0.819-0.853C429.368,315.094,429.283,314.615,428.549,314.615z"/>
		<path fill="#FFFFFF" d="M437.079,310.914v8.949h-2.598v-1.781h-2.983c-0.735,0.724-1.764,1.172-2.949,1.172
			c-2.264,0-4.024-1.604-4.024-3.801c0-2.183,1.763-3.785,4.024-3.785c1.188,0,2.229,0.433,2.967,1.17h2.968v-1.907L437.079,310.914
			 M428.549,317.055c0.897,0,1.569-0.527,1.569-1.603c0-1.06-0.672-1.588-1.569-1.588c-0.898,0-1.572,0.528-1.572,1.588
			C426.976,316.528,427.649,317.055,428.549,317.055 M432.525,316.045h1.957v-1.17h-1.957c0.032,0.191,0.048,0.385,0.048,0.578
			S432.558,315.854,432.525,316.045 M437.079,320.457v5.533h-2.598v-3.515h-7.795v-2.021h10.393 M438.579,309.407l-1.509,0.009
			l-2.598,0.017l-1.491,0.009v1.491v0.407h-0.904c-0.977-0.759-2.206-1.17-3.528-1.17c-3.1,0-5.524,2.321-5.524,5.284
			c0,1.75,0.841,3.276,2.164,4.235v0.77v2.021v1.5h1.5h6.295v2.015v1.5h1.5h2.599h1.5v-1.5v-5.533v-1.5v-8.043L438.579,309.407
			L438.579,309.407z"/>
	</g>
</g>
<path fill="#3E454B" d="M342.227,341.633c0,3.443-2.791,6.234-6.235,6.234l0,0c-3.442,0-6.233-2.791-6.233-6.234l0,0
	c0-3.445,2.791-6.236,6.233-6.236l0,0C339.436,335.396,342.227,338.187,342.227,341.633L342.227,341.633z"/>
<g>
	<polygon fill="#3E454B" points="386.612,543.212 376.227,540.684 397.918,451.507 164.007,162.149 172.32,155.43 409.553,448.895 	
		"/>
</g>
<g>
	<g>
		<path fill="#3E454B" d="M311.752,524.883c-3.583,0-5.896-1.527-5.896-3.896c0-1.156,0.586-2.127,1.608-2.807
			c-0.646,0.277-1.354,0.521-2.124,0.729l-0.598,0.158l-1.674-3.428l0.903-0.223c2.676-0.656,3.719-1.617,4.145-2.482h-3.864v-3.537
			h8.444v0.75c0,0.152-0.002,0.299-0.006,0.438h0.75v-2.164h4.099v9.967h-1.225c0.844,0.664,1.319,1.557,1.319,2.602
			C317.635,523.316,315.271,524.883,311.752,524.883z M311.752,520.566c-1.384,0-1.831,0.283-1.831,0.42
			c0,0.139,0.447,0.424,1.831,0.424c1.373,0,1.815-0.285,1.815-0.424C313.568,520.849,313.125,520.566,311.752,520.566z
			 M310.49,516.174c-0.521,0.535-1.141,1.01-1.856,1.422c0.554-0.203,1.176-0.35,1.856-0.43V516.174z"/>
		<path fill="#FFFFFF" d="M316.788,509.17v8.467h-2.599v-1.139h-2.95v-2.055h2.95v-1.072h-2.791
			c-0.881,2.34-2.902,3.914-6.254,4.813l-0.995-2.037c3.336-0.818,4.7-2.213,4.973-3.961h-4.121v-2.037h6.944
			c0,0.4-0.016,0.818-0.064,1.186h2.311v-2.164H316.788 M311.752,517.844c3.048,0,5.134,1.219,5.134,3.143
			c0,1.928-2.086,3.146-5.134,3.146c-3.063,0-5.146-1.219-5.146-3.146C306.604,519.062,308.688,517.844,311.752,517.844
			 M311.752,522.16c1.639,0,2.565-0.369,2.565-1.174c0-0.801-0.929-1.17-2.565-1.17c-1.65,0-2.581,0.369-2.581,1.17
			C309.171,521.791,310.101,522.16,311.752,522.16 M318.288,507.67h-1.5h-2.599h-1.5v0.979h-0.744h-6.944h-1.5v1.5v2.037v1.5h1.5
			h1.387c-0.563,0.354-1.386,0.707-2.595,1.004l-1.808,0.443l0.816,1.672l0.995,2.037l0.542,1.109l0.978-0.264
			c-0.141,0.406-0.213,0.84-0.213,1.299c0,2.777,2.671,4.645,6.646,4.645c3.968,0,6.634-1.865,6.634-4.645
			c0-0.676-0.157-1.299-0.454-1.854h0.357v-1.5v-8.467L318.288,507.67L318.288,507.67z"/>
	</g>
	<g>
		<path fill="#3E454B" d="M328.127,524.945V508.42h4.1v16.525H328.127z M317.686,519.482l0.776-0.375
			c3.051-1.467,4.519-3.088,5.008-5.629h-4.564v-3.537h8.829v0.75c0,4.115-0.864,8.736-7.274,11.793l-0.588,0.279L317.686,519.482z"
			/>
		<path fill="#FFFFFF" d="M331.476,509.17v15.025h-2.6V509.17H331.476 M326.984,510.691c0,4.748-1.331,8.484-6.849,11.115
			l-1.35-2.021c3.737-1.799,5.215-3.896,5.551-7.057h-4.684v-2.037H326.984 M332.976,507.67h-1.5h-2.6h-1.5v1.5v0.021h-0.394h-7.329
			h-1.5v1.5v2.037v1.5h1.5h2.854c-0.52,1.576-1.684,2.91-4.372,4.203l-1.556,0.748l0.956,1.436l1.35,2.023l0.72,1.082l1.174-0.561
			c3.613-1.725,5.563-3.912,6.597-6.24v7.273v1.5h1.5h2.6h1.5v-1.5v-15.025V507.67L332.976,507.67z"/>
	</g>
	<g>
		<path fill="#3E454B" d="M343.376,524.945v-0.656h-3.354v-2.871c-1.676,0.266-3.171,0.318-4.992,0.318h-1.842v-11.617h6.834v-1.461
			h3.354v-0.238h3.952v16.525H343.376z M337.24,518.092c0.922-0.053,1.813-0.148,2.705-0.297l0.078-0.014v-4.094h-2.783V518.092z"/>
		<path fill="#FFFFFF" d="M346.578,509.17v15.025h-2.452v-7.297h-0.946v6.641h-2.405v-14.131h2.405v5.438h0.946v-5.678h2.452
			 M339.475,510.869v2.068h-2.984v5.936c1.14-0.031,2.313-0.129,3.577-0.338l0.191,2.084c-1.859,0.32-3.479,0.367-5.229,0.367
			h-1.092v-10.117H339.475 M348.078,507.67h-1.5h-2.452h-1.5v0.238h-1.854h-1.5v1.461h-5.334h-1.5v1.5v10.117v1.5h1.5h1.092
			c1.541,0,2.855-0.037,4.242-0.207v1.26v1.5h1.5h1.854v0.656h1.5h2.452h1.5v-1.5V509.17V507.67L348.078,507.67z M337.99,514.437
			h1.283v2.701c-0.425,0.061-0.853,0.107-1.283,0.146V514.437L337.99,514.437z"/>
	</g>
	<g>
		<path fill="#3E454B" d="M356.922,524.976v-3.047h-7.586v-3.537h0.728c-1.134-0.625-1.833-1.67-1.833-2.922
			c0-0.939,0.394-1.764,1.069-2.379h-1.742v-3.504h3.127v-1.25h4.098v1.25h2.142v-1.17h4.099v3.734h1.878v3.604h-1.878v9.221
			H356.922z M356.922,518.392v-1.541c-0.311,0.635-0.835,1.164-1.52,1.541H356.922z M352.733,515.353
			c-0.411,0-0.525,0.096-0.526,0.098c0,0.041,0.115,0.137,0.526,0.137c0.344,0,0.498-0.07,0.524-0.098
			C353.257,515.449,353.143,515.353,352.733,515.353z M356.165,513.094c0.318,0.289,0.574,0.625,0.757,0.996v-0.996H356.165z"/>
		<path fill="#FFFFFF" d="M354.031,509.09v1.25h3.129v2.004h-8.854v-2.004h3.127v-1.25H354.031 M360.27,509.17v3.734h1.878v2.104
			h-1.878v3.623h-2.599v-9.461H360.27 M352.733,512.666c2.18,0,3.753,1.152,3.753,2.807c0,1.65-1.573,2.807-3.753,2.807
			c-2.184,0-3.754-1.154-3.754-2.807C348.979,513.818,350.551,512.666,352.733,512.666 M352.733,516.338
			c0.753,0,1.266-0.258,1.266-0.865c0-0.611-0.513-0.867-1.266-0.867c-0.756,0-1.269,0.256-1.269,0.867
			C351.466,516.08,351.978,516.338,352.733,516.338 M360.27,519.142v5.084h-2.599v-3.047h-7.586v-2.037H360.27 M355.531,507.59h-1.5
			h-2.598h-1.5v1.25h-1.627h-1.5v1.5v2.004v1.5h1.02c-0.225,0.494-0.347,1.043-0.347,1.629c0,1.068,0.404,2.012,1.105,2.738v0.934
			v2.037v1.5h1.5h6.086v1.547v1.5h1.5h2.599h1.5v-1.5v-5.084v-1.5v-1.137h0.378h1.5v-1.5v-2.104v-1.5h-1.5h-0.378v-2.234v-1.5h-1.5
			h-2.599h-1.5v1.17h-0.642L355.531,507.59L355.531,507.59z"/>
	</g>
	<g>
		<path fill="#3E454B" d="M362.323,523.308v-3.566h2.614v-4.619h7.294c0.052-0.725,0.076-1.393,0.089-2.016h-8.714v-3.533h12.822
			v2.111c0,1.777,0,3.99-0.521,7.225l-0.111,0.695l-3.104-0.307v0.439h4.78v3.568L362.323,523.308L362.323,523.308z"/>
		<path fill="#FFFFFF" d="M375.679,510.324v1.361c0,1.779,0,3.932-0.514,7.105l-2.599-0.256c0.449-2.582,0.497-4.57,0.513-6.178
			h-8.725v-2.033H375.679 M371.942,515.873v4.619h4.78v2.066h-13.649v-2.066h2.614v-4.619h2.55v4.619h1.155v-4.619H371.942
			 M377.179,508.824h-1.5h-11.322h-1.5v1.5v2.033v1.5h1.5h7.191c-0.008,0.168-0.015,0.34-0.021,0.516h-1.789h-1.5h-2.55h-1.5v1.5
			v3.119h-1.114h-1.5v1.5v2.066v1.5h1.5h13.649h1.5v-1.5v-2.066v-1.5h-1.5h-0.068c0.524-3.271,0.524-5.508,0.524-7.307v-1.361
			V508.824L377.179,508.824z"/>
	</g>
</g>
<path fill="#3E454B" d="M298.163,516.66c0,3.441-2.789,6.232-6.232,6.232l0,0c-3.443,0-6.235-2.791-6.235-6.232l0,0
	c0-3.445,2.792-6.234,6.235-6.234l0,0C295.374,510.426,298.163,513.215,298.163,516.66L298.163,516.66z"/>
<g>
	<polygon fill="#3E454B" points="270.512,343.785 259.848,322.58 220.651,336.793 218.833,331.767 262.491,315.943 273.206,337.244 
		308.42,325.43 310.119,330.496 	"/>
</g>
<g>
	<path fill="#3E454B" d="M36.202,327.307c-2.277-0.699-3.791-2.073-4.737-3.79c-0.924,1.872-2.504,3.386-4.94,4.128l-1.872-2.819
		c3.609-1.105,4.827-3.7,4.917-6.114h-3.925v-2.841h11.482v2.841h-3.836c0.091,2.256,1.286,4.69,4.759,5.776L36.202,327.307z
		 M42.923,332.474v2.865H28.035v-6.993h3.654v4.128H42.923L42.923,332.474z M42.429,329.653h-3.656v-15.159h3.656V329.653z"/>
	<path fill="#3E454B" d="M64.625,330.399v2.91H45.472v-2.91h7.737v-3.543h-5.843v-11.122h3.61v2.98h8.076v-2.98h3.609v11.122h-5.797
		v3.543H64.625z M50.976,323.992h8.076v-2.459h-8.076V323.992z"/>
	<path fill="#3E454B" d="M70.488,327.668c1.715-0.042,3.272-0.18,4.941-0.517l0.453,3.021c-2.414,0.498-4.669,0.588-7.42,0.588
		h-1.56v-14.392h3.585L70.488,327.668L70.488,327.668z M76.622,314.788h3.385v19.985h-3.385v-10.94h-3.833v-2.908h3.833V314.788z
		 M84.564,314.472v21.161h-3.452v-21.161H84.564z"/>
	<path fill="#3E454B" d="M106.152,330.467v2.909H86.976v-2.909H106.152z M104.188,327.941H89.097v-12.046h14.957v2.864H92.821v1.736
		h10.713v2.776H92.821v1.826h11.368V327.941z"/>
	<path fill="#3E454B" d="M121.311,327.015c-1.716,0.315-3.475,0.497-5.167,0.652v7.378h-3.654v-7.195
		c-1.58,0.066-3.047,0.066-4.422,0.066l-0.428-2.912c3.903,0,9.025-0.022,13.469-0.607L121.311,327.015z M109.038,319.682
		c0-2.57,2.302-4.419,5.415-4.419c3.137,0,5.436,1.851,5.436,4.419c0,2.595-2.301,4.445-5.436,4.445
		C111.339,324.128,109.038,322.277,109.038,319.682z M112.444,319.682c0,1.15,0.813,1.693,2.006,1.693
		c1.217,0,2.03-0.544,2.03-1.693c0-1.126-0.813-1.692-2.03-1.692C113.257,317.99,112.444,318.554,112.444,319.682z M125.956,314.472
		v21.161h-3.655v-4.309h-3.926v-2.732h3.926v-14.12H125.956L125.956,314.472z"/>
	<path fill="#3E454B" d="M147.634,330.445v2.931h-19.153v-2.931H147.634z M142.286,321.962c0.046-1.016,0.046-2.007,0.046-2.933
		h-11.778v-2.866h15.365v2.372c0,3.065,0,6-1.037,10.78l-3.586-0.337c0.383-1.578,0.609-3.002,0.768-4.33l-11.708,0.563l-0.429-2.91
		L142.286,321.962z"/>
	<path fill="#3E454B" d="M157.536,327.24c-1.49-0.723-2.504-1.849-3.158-3.271c-0.724,1.647-1.895,3.002-3.63,3.791l-1.985-2.775
		c3-1.443,3.835-4.107,3.835-6.611v-2.502h3.541v2.502c0,2.414,0.723,4.761,3.361,6.115L157.536,327.24z M167.844,332.474v2.865
		h-14.979v-6.834h3.655v3.969H167.844z M159.656,321.936h-2.099v-2.908h2.099v-4.218h3.383v14.841h-3.383V321.936z M167.371,330.308
		h-3.452v-15.814h3.452V330.308z"/>
	<path fill="#3E454B" d="M174.543,328.166c2.436-0.023,4.625-0.135,7.039-0.498l0.292,2.887c-3.066,0.452-5.866,0.497-9.181,0.497
		h-1.781v-14.91h9.815v2.91h-6.182v2.956h5.57v2.819h-5.57L174.543,328.166L174.543,328.166z M187.942,314.45v21.25h-3.654v-11.165
		h-3.226v-2.911h3.226v-7.174H187.942z"/>
</g>
<g>
	<g>
		<path fill="#73FFDA" d="M233.922,322.395l-12.67,26.938c-0.731,1.531-2.333,2.472-4.003,2.472s-3.272-0.94-3.968-2.472
			l-12.704-26.938c-0.905-1.915-1.149-4.108-1.149-6.23c0-9.851,7.971-17.821,17.821-17.821s17.821,7.971,17.821,17.821
			C235.07,318.287,234.828,320.48,233.922,322.395z M217.249,307.253c-4.907,0-8.909,4.004-8.909,8.911
			c0,4.905,4.002,8.907,8.909,8.907c4.906,0,8.911-4.002,8.911-8.907C226.16,311.257,222.157,307.253,217.249,307.253z"/>
	</g>
</g>
<g>
	<g>
		<g>
			<path fill="#3E454B" d="M490.396,478.335v-4.961l-1.441,1.908l-0.551-0.258c-1.183-0.557-2.137-1.416-2.848-2.566
				c-0.725,1.26-1.716,2.203-2.965,2.814l-0.548,0.27l-2.563-3.299l0.865-0.395c2.592-1.176,3.136-4.115,3.136-6.375v-2.658h4.115
				v2.658c0,0.945,0.082,1.787,0.247,2.525v-1.771h2.551v-4.506h4.098v16.607h-4.097L490.396,478.335L490.396,478.335z
				 M488.525,469.8c0.453,0.777,1.076,1.355,1.871,1.74v-1.74H488.525z"/>
			<path fill="#FFFFFF" d="M493.743,462.473v15.109h-2.598v-8.533h-2.551v-2.07h2.551v-4.506H493.743 M486.849,463.567v1.906
				c0,2.92,0.752,5.662,3.415,6.832l-1.54,2.039c-1.571-0.736-2.581-2.021-3.191-3.641c-0.607,1.729-1.668,3.107-3.271,3.895
				l-1.604-2.064c2.728-1.236,3.576-4.156,3.576-7.061v-1.906H486.849 M495.243,460.973h-1.5h-2.598h-1.5v1.5v3.006h-1.051h-0.247
				c0-0.002,0-0.004,0-0.006v-1.906v-1.5h-1.5h-2.615h-1.5v1.5v1.906c0,2.039-0.468,4.684-2.696,5.691l-1.729,0.785l1.166,1.502
				l1.604,2.064l0.748,0.965l1.099-0.537c1.039-0.51,1.933-1.244,2.651-2.178c0.688,0.826,1.527,1.473,2.513,1.936l1.102,0.518
				l0.459-0.607v1.973v1.5h1.5h2.598h1.5v-1.5v-15.109L495.243,460.973L495.243,460.973z"/>
		</g>
		<g>
			<path fill="#3E454B" d="M505.515,478.268v-0.656h-3.353v-2.869c-1.688,0.264-3.229,0.318-4.991,0.318h-1.842v-11.619h6.833
				v-1.459h3.353v-0.24h3.955v16.525H505.515L505.515,478.268z M499.383,471.415c0.928-0.053,1.816-0.148,2.701-0.297l0.079-0.014
				v-4.094h-2.78V471.415L499.383,471.415z"/>
			<path fill="#FFFFFF" d="M508.72,462.493v15.025h-2.455v-7.297h-0.945v6.641h-2.405v-14.129h2.405v5.438h0.945v-5.68h2.455
				 M501.613,464.192v2.068h-2.979v5.936c1.139-0.031,2.309-0.127,3.575-0.338l0.191,2.086c-1.86,0.318-3.479,0.367-5.229,0.367
				h-1.092v-10.119H501.613 M510.22,460.993h-1.5h-2.455h-1.5v0.24h-1.853h-1.5v1.459h-5.333h-1.5v1.5v10.119v1.5h1.5h1.092
				c1.494,0,2.837-0.039,4.241-0.209v1.26v1.5h1.5h1.853v0.656h1.5h2.455h1.5v-1.5v-15.025V460.993L510.22,460.993z M500.133,467.76
				h1.28v2.701c-0.423,0.061-0.85,0.107-1.28,0.146V467.76L500.133,467.76z"/>
		</g>
		<g>
			<path fill="#3E454B" d="M511.204,478.077v-5.5h-1.49v-3.521h1.618v-6.721h11.798v6.721h1.717v3.521h-5.293v1.963h3.803v3.537
				H511.204z M515.454,474.54v-1.963h-0.15v1.963H515.454z M519.079,466.087v-0.248h-3.695v0.248H519.079z"/>
			<path fill="#FFFFFF" d="M522.38,463.085v5.758h-10.296v-5.758H522.38 M514.634,466.837h5.195v-1.748h-5.195V466.837
				 M524.096,469.805v2.021h-5.293v2.262h-2.6v-2.262h-5.74v-2.021H524.096 M514.553,472.919v2.369h8.053v2.037h-10.65v-4.406
				H514.553 M523.88,461.585h-1.5h-10.296h-1.5v1.5v5.221h-0.12h-1.5v1.5v2.021v1.5h1.49v4v1.5h1.5h10.65h1.5v-1.5v-2.037v-1.5h-1.5
				h-2.303v-0.463h3.793h1.5v-1.5v-2.021v-1.5h-1.5h-0.217v-5.221L523.88,461.585L523.88,461.585z"/>
		</g>
		<g>
			<path fill="#3E454B" d="M534.584,478.319v-3.516h-7.795v-3.52h0.85c-1.8-0.643-3.016-2.26-3.016-4.254
				c0-2.586,2.056-4.535,4.776-4.535c1.242,0,2.387,0.412,3.26,1.17h1.925v-1.902l4.099-0.025v16.582H534.584z M534.584,471.286
				v-0.875h-1.941c-0.445,0.381-0.956,0.678-1.509,0.875H534.584z M529.4,466.194c-0.737,0-0.822,0.479-0.822,0.838
				c0,0.582,0.264,0.854,0.822,0.854c0.562,0,0.82-0.271,0.82-0.854C530.221,466.671,530.136,466.194,529.4,466.194z"/>
			<path fill="#FFFFFF" d="M537.932,462.493v8.949h-2.599v-1.781h-2.982c-0.737,0.723-1.765,1.172-2.95,1.172
				c-2.262,0-4.024-1.605-4.024-3.801c0-2.184,1.765-3.785,4.024-3.785c1.188,0,2.229,0.434,2.966,1.17h2.97v-1.908L537.932,462.493
				 M529.4,468.634c0.896,0,1.57-0.529,1.57-1.604c0-1.059-0.674-1.588-1.57-1.588s-1.572,0.529-1.572,1.588
				C527.827,468.104,528.503,468.634,529.4,468.634 M533.378,467.626h1.956v-1.172h-1.956c0.03,0.189,0.048,0.385,0.048,0.578
				C533.426,467.221,533.408,467.43,533.378,467.626 M537.932,472.036v5.533h-2.599v-3.516h-7.795v-2.02L537.932,472.036
				 M539.432,460.983l-1.509,0.01l-2.6,0.016l-1.489,0.01v1.49v0.408h-0.905c-0.979-0.76-2.207-1.17-3.528-1.17
				c-3.099,0-5.526,2.32-5.526,5.285c0,1.75,0.844,3.275,2.166,4.234v0.77v2.02v1.5h1.5h6.295v2.016v1.5h1.5h2.599h1.5v-1.5v-5.533
				v-1.5v-8.043L539.432,460.983L539.432,460.983z"/>
		</g>
		<g>
			<path fill="#3E454B" d="M542.997,476.78v-2.723l0.246-0.223c2.462-2.236,4.741-4.52,4.741-6.053c0-0.828-0.43-0.936-0.805-0.936
				c-0.441,0-0.881,0.273-1.469,0.914l-0.527,0.572l-2.63-2.602l0.504-0.533c1.396-1.479,2.704-2.08,4.506-2.08
				c2.745,0,4.663,1.854,4.663,4.504c0,1.547-0.816,3.273-2.486,5.248c0.029,0,3.031,0,3.031,0v3.906h-9.773L542.997,476.78
				L542.997,476.78z"/>
			<path fill="#FFFFFF" d="M547.564,463.872c2.313,0,3.913,1.477,3.913,3.754c0,2.053-1.764,4.313-3.592,6.158
				c0.594-0.08,1.411-0.16,1.938-0.16h2.196v2.406h-8.274v-1.641c2.982-2.709,4.987-4.873,4.987-6.605
				c0-1.09-0.606-1.686-1.555-1.686c-0.818,0-1.46,0.545-2.021,1.156l-1.556-1.539C544.773,464.479,545.865,463.872,547.564,463.872
				 M547.564,462.372c-2.005,0-3.516,0.691-5.051,2.313l-1.008,1.064l1.043,1.033l1.556,1.539l1.106,1.094l1.053-1.146
				c0.409-0.443,0.718-0.67,0.917-0.67c0.015,0,0.028,0,0.04,0c0.008,0.041,0.015,0.102,0.015,0.184
				c0,1.414-3.267,4.381-4.496,5.498l-0.489,0.445v0.664v1.639v1.5h1.5h8.272h1.5v-1.5v-2.404v-1.5h-1.5h-0.752
				c1.146-1.629,1.707-3.115,1.707-4.498C552.978,464.532,550.753,462.372,547.564,462.372L547.564,462.372z"/>
		</g>
		<g>
			<path fill="#3E454B" d="M555.246,478.077v-5.965h-2.021v-9.359h4.064v2.07h0.697v-2.07h4.035v2.855h0.744v-3.852h4.098v12.582
				h-4.098v-5.18h-0.744v2.951h-2.68v2.428h7.843v3.537L555.246,478.077L555.246,478.077z M557.99,468.575v-0.297h-0.695v0.297
				H557.99z"/>
			<path fill="#FFFFFF" d="M566.116,462.507v11.082h-2.598v-5.18h-2.244v2.951h-7.299v-7.859h2.564v2.07h2.197v-2.07h2.535v2.854
				h2.244v-3.85L566.116,462.507 M556.544,469.325h2.195v-1.797h-2.195V469.325 M558.596,472.501v2.789h7.843v2.037H556v-4.826
				H558.596 M567.616,461.007h-1.5h-2.598h-1.5v0.994h-0.744h-2.535h-0.695h-1.5h-2.566h-1.5v1.5v7.859v1.5h1.5h0.521v4.465v1.5h1.5
				h10.441h1.5v-1.5v-2.037v-1.5h-0.321v-0.199v-11.082L567.616,461.007L567.616,461.007z M560.096,472.862h1.18h0.744v0.729v0.197
				h-1.924V472.862L560.096,472.862z"/>
		</g>
		<g>
			<path fill="#3E454B" d="M568.926,478.239v-4.41h-0.018v-2.475h-1.46v-3.375h0.86l-0.775-2.08c0,0,1.092-0.037,1.117-0.037v-3.029
				h4.251v-1.074H577v1.074h4.268v3.029c0.021,0,1.11,0.037,1.11,0.037l-0.796,2.08h0.919v3.375h-1.571v3.521h0.369v3.361
				L568.926,478.239L568.926,478.239z M575.26,467.979c-0.107-0.064-0.21-0.135-0.311-0.205c-0.099,0.07-0.2,0.141-0.309,0.205
				H575.26z"/>
			<path fill="#FFFFFF" d="M576.25,462.507v1.074h4.268v1.861h-3.834c0.514,0.545,1.781,1.072,4.619,1.17l-0.723,1.893
				c-2.869-0.129-4.683-0.754-5.63-1.715c-0.945,0.961-2.758,1.586-5.646,1.715l-0.705-1.893c2.838-0.098,4.104-0.625,4.619-1.17
				H569.4v-1.861h4.251v-1.074H576.25 M581.75,468.729v1.875h-5.483v0.629h3.913v3.979h-7.938v0.416h8.309v1.859h-10.873v-3.994
				h7.938v-0.416h-7.954v-1.846h4.011v-0.627H568.2v-1.875H581.75 M577.75,461.007h-1.5h-2.599h-1.5v1.074H569.4h-1.5v1.5v1.555
				l-1.434,0.049l0.728,1.951l0.034,0.094h-0.53v1.5v1.875v1.5h1.46v0.975v1.5h0.018v2.91v1.5h1.5h10.873h1.5v-1.5v-1.861v-1.5
				h-0.369v-2.023h0.07h1.5v-1.5v-1.875v-1.5h-0.577l0.029-0.082l0.749-1.963l-1.436-0.049v-1.555v-1.5h-1.5h-2.768v-1.074H577.75
				L577.75,461.007z"/>
		</g>
		<g>
			<path fill="#3E454B" d="M587.571,478.3v-5.789h-5.401v-3.566h9.305c0.169-1.086,0.229-2.006,0.254-2.848h-8.084v-3.537h12.148
				v2.1c0,1.213,0,2.564-0.24,4.285h1.731v3.566h-5.582v5.789H587.571z"/>
			<path fill="#FFFFFF" d="M595.041,463.309v1.35c0,1.395,0,2.949-0.368,5.035h1.86v2.066h-5.582v5.789h-2.631v-5.789h-5.401v-2.066
				h9.188c0.321-1.748,0.369-3.111,0.386-4.348h-8.1v-2.037H595.041 M596.541,461.809h-1.5h-10.647h-1.5v1.5v2.037v1.5h1.5h6.551
				c-0.023,0.422-0.063,0.867-0.123,1.348h-7.9h-1.5v1.5v2.066v1.5h1.5h3.901v4.289v1.5h1.5h2.631h1.5v-1.5v-4.289h4.082h1.5v-1.5
				v-2.066v-1.5h-1.5h-0.136c0.146-1.371,0.146-2.502,0.146-3.535v-1.35v-1.5H596.541z"/>
		</g>
	</g>
</g>
<g>
	<polygon fill="#3E454B" points="130.055,42.433 130.055,39.37 122.084,39.37 122.084,36.58 120.592,36.58 120.592,33.059 
		122.213,33.059 122.213,26.482 134.152,26.482 134.152,29.979 134.28,29.979 134.28,33.059 135.725,33.059 135.725,36.58 
		134.152,36.58 134.152,42.433 	"/>
	<path fill="#FFFFFF" d="M133.402,27.232v2.021h-7.857v1.477h7.985v2.021h-4.072v1.06h5.519v2.021h-13.634v-2.021h5.519v-1.06
		h-3.896v-5.519L133.402,27.232 M133.402,36.599v5.084h-2.598V38.62h-7.972v-2.021H133.402 M134.902,25.732h-1.5h-10.438h-1.5v1.5
		v5.077h-0.121h-1.5v1.5v2.021v1.5h1.492v1.29v1.5h1.5h6.472v1.563v1.5h1.5h2.598h1.5v-1.5V37.33h0.072h1.5v-1.5v-2.021v-1.5h-1.444
		v-1.58v-1.5h-0.128v-1.997L134.902,25.732L134.902,25.732z"/>
	<path fill="#3E454B" d="M137.763,42.273v-6.654h-1.635v-5.552h-0.018v-3.536h8.493v5.215c0.146-0.022,0.744-0.125,0.744-0.125
		v-5.747h4.101v16.398L137.763,42.273L137.763,42.273z M145.382,35.897v-0.056h-0.031v-0.597c-1.114,0.178-2.208,0.272-3.521,0.322
		v0.33H145.382z"/>
	<path fill="#FFFFFF" d="M148.699,26.625v8.468h-2.601v-8.468H148.699 M143.855,27.281v4.699h-4.411v0.834
		c2.344-0.016,3.979-0.097,5.727-0.4l0.289,2.054c-2.085,0.353-4.09,0.401-7.217,0.401h-1.363v-4.797h4.41v-0.755h-4.428v-2.036
		H143.855 M148.699,35.652v5.871h-10.188v-5.871h2.566v0.995h5.052v-0.995H148.699 M141.08,39.486h5.052v-0.883h-5.052V39.486
		 M150.199,25.125h-1.5h-2.601h-1.5v0.656h-0.744h-6.993h-1.5v1.5v2.036v1.5h0.018v4.052v1.5h1.5h0.135v5.154v1.5h1.5H148.7h1.5
		v-1.5v-5.871v-1.5v-7.527L150.199,25.125L150.199,25.125z"/>
	<path fill="#3E454B" d="M151.585,42.209v-5.5h-1.49v-3.521h1.618v-6.721h11.796v6.721h1.717v3.521h-5.292v1.964h3.802v3.536
		H151.585z M155.835,38.672v-1.964h-0.15v1.964H155.835z M159.46,30.22v-0.249h-3.695v0.249H159.46z"/>
	<path fill="#FFFFFF" d="M162.759,27.217v5.758h-10.296v-5.758H162.759 M155.014,30.97h5.195v-1.749h-5.195V30.97 M164.475,33.937
		v2.021h-5.292v2.261h-2.599v-2.261h-5.74v-2.021H164.475 M154.934,37.048v2.374h8.051v2.036h-10.648v-4.41H154.934 M164.259,25.717
		h-1.5h-10.296h-1.5v1.5v5.221h-0.118h-1.5v1.5v2.021v1.5h1.49v4v1.5h1.5h10.648h1.5v-1.5v-2.037v-1.5h-1.5h-2.302v-0.464h3.792h1.5
		v-1.5v-2.021v-1.5h-1.5h-0.217v-5.221L164.259,25.717L164.259,25.717z"/>
	<path fill="#3E454B" d="M174.963,42.45v-3.514h-7.793v-3.52h0.852c-1.8-0.641-3.017-2.258-3.017-4.254
		c0-2.586,2.054-4.536,4.774-4.536c1.243,0,2.389,0.414,3.261,1.171h1.922v-1.904l4.1-0.023v16.58H174.963z M174.963,35.418v-0.874
		h-1.941c-0.445,0.382-0.957,0.676-1.51,0.874H174.963z M169.78,30.325c-0.736,0-0.821,0.479-0.821,0.839
		c0,0.582,0.262,0.853,0.821,0.853c0.562,0,0.821-0.271,0.821-0.853C170.602,30.802,170.517,30.325,169.78,30.325z"/>
	<path fill="#FFFFFF" d="M178.312,26.625v8.948h-2.6v-1.779h-2.981c-0.736,0.721-1.766,1.17-2.95,1.17
		c-2.262,0-4.024-1.604-4.024-3.8c0-2.183,1.765-3.786,4.024-3.786c1.187,0,2.229,0.434,2.967,1.171h2.967V26.64L178.312,26.625
		 M169.78,32.765c0.897,0,1.571-0.527,1.571-1.603c0-1.059-0.674-1.59-1.571-1.59s-1.571,0.531-1.571,1.59
		C168.208,32.238,168.882,32.765,169.78,32.765 M173.757,31.757h1.956v-1.172h-1.956c0.032,0.191,0.05,0.386,0.05,0.578
		C173.806,31.354,173.789,31.564,173.757,31.757 M178.312,36.168V41.7h-2.6v-3.514h-7.793v-2.02L178.312,36.168 M179.812,25.114
		l-1.509,0.01l-2.6,0.016l-1.491,0.009v1.491v0.408h-0.903c-0.978-0.759-2.207-1.171-3.529-1.171c-3.098,0-5.524,2.321-5.524,5.286
		c0,1.75,0.842,3.275,2.165,4.234v0.77v2.02v1.5h1.5h6.293V41.7v1.5h1.5h2.6h1.5v-1.5v-5.532v-1.5v-8.043L179.812,25.114
		L179.812,25.114z"/>
	<polygon fill="#3E454B" points="188.062,40.911 188.062,37.927 183.059,37.927 183.059,35 187.536,27.476 192.225,27.476 
		192.225,34.261 193.555,34.261 193.555,37.927 192.225,37.927 192.225,40.911 	"/>
	<path fill="#FFFFFF" d="M191.475,28.226v6.785h1.33v2.165h-1.33v2.983h-2.663v-2.983h-5.003v-1.972l4.152-6.979L191.475,28.226
		 M188.923,30.618h-0.063c-0.304,0.674-0.625,1.362-0.961,2.036l-1.362,2.357h2.276v-1.748
		C188.812,32.51,188.892,31.372,188.923,30.618 M192.975,26.726h-1.5h-3.514h-0.854l-0.437,0.733l-4.152,6.979l-0.211,0.354v0.413
		v1.972v1.5h1.5h3.503v1.483v1.5h1.5h2.663h1.5v-1.5v-1.483h1.33v-1.5v-2.166v-1.5h-1.33v-5.285L192.975,26.726L192.975,26.726z"/>
	<path fill="#3E454B" d="M195.628,42.209v-5.965h-2.021v-9.359h4.064v2.069h0.697v-2.069h4.033v2.854h0.745v-3.849h4.099v12.583
		h-4.099v-5.181h-0.745v2.951h-2.678v2.429h7.843v3.536L195.628,42.209L195.628,42.209z M198.37,32.708v-0.297h-0.697v0.297H198.37z
		"/>
	<path fill="#FFFFFF" d="M206.497,26.639v11.083h-2.599v-5.181h-2.245v2.951h-7.297v-7.859h2.564v2.069h2.197v-2.069h2.533v2.854
		h2.245v-3.849L206.497,26.639 M196.923,33.458h2.197v-1.797h-2.197V33.458 M198.977,36.632v2.79h7.843v2.036h-10.44v-4.826H198.977
		 M207.997,25.139h-1.5h-2.599h-1.5v0.994h-0.745h-2.533h-0.697h-1.5h-2.564h-1.5v1.5v7.859v1.5h1.5h0.521v4.465v1.5h1.5h10.44h1.5
		v-1.5v-2.036v-1.5h-0.321v-0.199V26.639L207.997,25.139L207.997,25.139z M200.477,36.994h1.178h0.745v0.729v0.199h-1.923V36.994
		L200.477,36.994z"/>
	<path fill="#3E454B" d="M209.306,42.37v-4.409h-0.02v-2.473h-1.458v-3.376h0.859l-0.774-2.082c0,0,1.092-0.036,1.117-0.037v-3.03
		h4.251v-1.073h4.099v1.073h4.267v3.03c0.021,0.001,1.109,0.037,1.109,0.037l-0.793,2.081h0.917v3.376h-1.57v3.521h0.369v3.361
		L209.306,42.37L209.306,42.37z M215.64,32.112c-0.106-0.065-0.21-0.135-0.31-0.207c-0.1,0.071-0.202,0.141-0.31,0.207H215.64z"/>
	<path fill="#FFFFFF" d="M216.631,26.639v1.073h4.267v1.86h-3.834c0.515,0.547,1.779,1.074,4.619,1.172l-0.723,1.894
		c-2.87-0.129-4.684-0.755-5.629-1.717c-0.945,0.962-2.76,1.588-5.646,1.717l-0.705-1.894c2.838-0.098,4.104-0.625,4.619-1.172
		h-3.817v-1.86h4.251v-1.073H216.631 M222.13,32.862v1.876h-5.482v0.626h3.912v3.979h-7.938v0.416h8.308v1.861h-10.872v-3.993h7.938
		v-0.416h-7.956v-1.847h4.012v-0.626h-5.47v-1.876H222.13 M218.131,25.139h-1.5h-2.599h-1.5v1.073h-2.752h-1.5v1.5v1.555
		l-1.433,0.049l0.728,1.952l0.034,0.094h-0.53v1.5v1.876v1.5h1.458v0.973v1.5h0.02v2.909v1.5h1.5h10.872h1.5v-1.5v-1.861v-1.5
		h-0.369v-2.021h0.07h1.5v-1.5v-1.876v-1.5h-0.578l0.032-0.083l0.748-1.962l-1.436-0.049v-1.556v-1.5h-1.5h-2.767L218.131,25.139
		L218.131,25.139z"/>
	<path fill="#3E454B" d="M227.951,42.433v-5.79h-5.403v-3.568h9.306c0.168-1.083,0.229-2.004,0.254-2.847h-8.084v-3.537h12.147
		v2.099c0,1.214,0,2.565-0.24,4.285h1.733v3.568h-5.582v5.79H227.951z"/>
	<path fill="#FFFFFF" d="M235.421,27.441v1.349c0,1.396,0,2.949-0.368,5.035h1.861v2.068h-5.582v5.79h-2.631v-5.79h-5.403v-2.068
		h9.188c0.321-1.747,0.369-3.111,0.388-4.347h-8.102v-2.037H235.421 M236.921,25.941h-1.5h-10.647h-1.5v1.5v2.037v1.5h1.5h6.552
		c-0.025,0.422-0.063,0.868-0.123,1.347h-7.903h-1.5v1.5v2.068v1.5h1.5h3.903v4.29v1.5h1.5h2.631h1.5v-1.5v-4.29h4.082h1.5v-1.5
		v-2.068v-1.5h-1.5h-0.138c0.145-1.371,0.145-2.503,0.145-3.535v-1.349L236.921,25.941L236.921,25.941z"/>
</g>
<g>
	<g>
		<path fill="#3E454B" d="M326.22,330.177c-1.277,0-2.317-1.041-2.317-2.318v-0.815h-7.898v0.815c0,1.277-1.039,2.318-2.315,2.318
			c-1.277,0-2.316-1.041-2.316-2.318v-0.815h-1.564v-8.129c0-1.048,0.091-1.859,0.323-2.896l1.262-5.555
			c0.26-2.229,3.627-3.72,8.563-3.72c4.938,0,8.305,1.489,8.578,3.797l1.271,5.474c0.251,1.111,0.302,1.935,0.302,2.899v8.129
			h-1.566v0.815C328.535,329.136,327.496,330.177,326.22,330.177z M326.22,321.56c-0.458,0-0.817,0.357-0.817,0.815
			s0.359,0.815,0.817,0.815s0.814-0.357,0.814-0.815S326.678,321.56,326.22,321.56z M313.687,321.56
			c-0.458,0-0.816,0.357-0.816,0.815s0.358,0.815,0.816,0.815s0.815-0.357,0.815-0.815S314.145,321.56,313.687,321.56z
			 M314.336,312.945c-0.026,0-0.035,0.023-0.036,0.031l-0.88,4.693l13.031,0.04l-0.848-4.741L314.336,312.945z"/>
		<path fill="#FFFA9F" d="M319.952,307.495c4.174,0,7.603,1.176,7.833,3.135l1.284,5.555c0.222,0.98,0.282,1.729,0.282,2.73v7.379
			h-1.566v1.565c0,0.869-0.697,1.568-1.564,1.568c-0.869,0-1.567-0.699-1.567-1.568v-1.565h-9.398v1.565
			c0,0.869-0.696,1.568-1.565,1.568c-0.868,0-1.566-0.699-1.566-1.568v-1.565h-1.564v-7.379c0-1.004,0.085-1.75,0.306-2.73
			l1.261-5.555C312.353,308.671,315.78,307.495,319.952,307.495 M316.036,310.63h7.832c0.33,0,0.588-0.258,0.588-0.588
			s-0.258-0.588-0.588-0.588h-7.832c-0.317,0-0.588,0.258-0.588,0.588S315.718,310.63,316.036,310.63 M313.453,318.462h12.998
			c0.489,0,0.856-0.44,0.771-0.931l-0.883-4.7c-0.072-0.367-0.393-0.636-0.771-0.636h-11.233c-0.381,0-0.697,0.269-0.771,0.636
			l-0.882,4.7C312.598,318.019,312.965,318.462,313.453,318.462 M326.22,323.943c0.867,0,1.564-0.696,1.564-1.565
			s-0.697-1.566-1.564-1.566c-0.869,0-1.567,0.697-1.567,1.566S325.351,323.943,326.22,323.943 M313.687,323.943
			c0.869,0,1.565-0.696,1.565-1.565s-0.696-1.566-1.565-1.566c-0.868,0-1.566,0.697-1.566,1.566S312.818,323.943,313.687,323.943
			 M319.952,305.995c-4.213,0-8.848,1.149-9.311,4.368l-1.246,5.488c-0.247,1.098-0.343,1.955-0.343,3.063v7.379v1.5h1.5h0.064
			v0.065c0,1.691,1.375,3.068,3.066,3.068c1.689,0,3.065-1.377,3.065-3.068v-0.065h6.398v0.065c0,1.691,1.376,3.068,3.066,3.068
			c1.689,0,3.065-1.377,3.065-3.068v-0.065h0.066h1.5v-1.5v-7.379c0-1.02-0.055-1.887-0.319-3.063l-1.271-5.491
			C328.798,307.142,324.163,305.995,319.952,305.995L319.952,305.995z M314.929,313.695h10.05l0.611,3.267h-11.274L314.929,313.695
			L314.929,313.695z"/>
	</g>
</g>
<polygon fill="#3E454B" points="593.722,0 0,213.996 0,225.357 597.346,10.055 "/>
<polygon fill="#3E454B" points="381.076,418.854 381.076,430.216 443.662,407.656 436.454,398.893 "/>
<g>
	<path fill="#3E454B" d="M244.649,340.804c0,3.442-2.792,6.235-6.236,6.235l0,0c-3.443,0-6.235-2.793-6.235-6.235l0,0
		c0-3.444,2.792-6.234,6.235-6.234l0,0C241.857,334.57,244.649,337.36,244.649,340.804L244.649,340.804z"/>
	<g>
		<path fill="#FFFFFF" d="M235.562,337.016h2.657c1.671,0,3.045,0.59,3.045,2.465c0,1.803-1.396,2.597-2.994,2.597h-0.886v2.515
			h-1.823V337.016z M238.178,340.641c0.887,0,1.314-0.417,1.314-1.16c0-0.764-0.489-1.029-1.365-1.029h-0.743v2.189H238.178z"/>
	</g>
</g>
<g>
	<g>
		<path fill="#3E454B" d="M232.435,362.138c-3.157,0-5.119-1.151-5.119-3.002c0-1.115,0.699-1.976,1.938-2.486h-3.021v-2.838h3.971
			v-2.09h3.325v2.09h0.248l0.089-0.372c0.181-0.725,0.256-1.32,0.288-1.818h-6.675v-2.839h10.023v1.594c0,0.985,0,2.097-0.348,3.436
			h1.651v2.838h-3.187c1.237,0.511,1.938,1.371,1.938,2.486C237.557,360.987,235.594,362.138,232.435,362.138z M230.627,359.155
			c0.05,0,0.381,0.213,1.808,0.213c1.44,0,1.764-0.22,1.814-0.267c0,0,0,0-0.002,0c-0.061,0-0.39-0.214-1.813-0.214
			c-1.455,0-1.764,0.223-1.81,0.268C230.625,359.155,230.625,359.155,230.627,359.155z"/>
		<path fill="#FFFFFF" d="M236.938,349.345v1.031c0,0.99,0,2.102-0.367,3.431l-2.156-0.232c0.245-0.988,0.312-1.776,0.326-2.521
			h-6.698v-1.709H236.938 M232.965,352.291v2.085h5.274v1.707h-11.443v-1.707h3.971v-2.085H232.965 M232.435,356.678
			c2.752,0,4.556,0.939,4.556,2.458c0,1.501-1.803,2.44-4.556,2.44c-2.752,0-4.555-0.939-4.555-2.44
			C227.88,357.618,229.683,356.678,232.435,356.678 M232.435,359.936c1.56,0,2.374-0.248,2.374-0.8c0-0.57-0.814-0.817-2.374-0.817
			c-1.572,0-2.371,0.247-2.371,0.817C230.064,359.688,230.864,359.936,232.435,359.936 M238.067,348.216h-1.129h-8.896h-1.127v1.13
			v1.709v1.132h1.127h1.598v0.104v0.954h-2.844h-1.129v1.131v1.707v1.133h1.129h0.67c-0.499,0.581-0.714,1.258-0.714,1.921
			c0,2.168,2.231,3.565,5.683,3.565c3.455,0,5.685-1.397,5.685-3.565c0-0.74-0.255-1.389-0.727-1.921h0.846h1.127v-1.133v-1.707
			v-1.131h-1.127h-0.38c0.208-1.104,0.208-2.065,0.208-2.868v-1.031V348.216L238.067,348.216z"/>
	</g>
	<g>
		<path fill="#3E454B" d="M245.596,362.128c-3.074,0-4.987-1.195-4.987-3.114c0-1.22,0.775-2.148,2.129-2.661
			c-2.25-0.012-3.944-1.61-3.944-3.726c0-2.129,1.706-3.737,3.968-3.737c1.02,0,1.958,0.337,2.673,0.948h1.778v-1.572h3.326v8.533
			h-1.193c0.802,0.534,1.246,1.291,1.246,2.215C250.593,360.932,248.679,362.128,245.596,362.128z M245.596,358.694
			c-1.383,0-1.687,0.229-1.687,0.319c0,0.107,0.353,0.316,1.687,0.316c1.344,0,1.699-0.209,1.699-0.316
			C247.295,359.011,247.248,358.694,245.596,358.694z M245.596,355.901c0.583,0,1.125,0.04,1.618,0.124v-0.584h-1.825
			c-0.241,0.198-0.506,0.367-0.79,0.505C244.916,355.914,245.248,355.901,245.596,355.901z M242.762,351.865
			c-0.685,0-0.763,0.432-0.763,0.762c0,0.515,0.25,0.764,0.763,0.764c0.513,0,0.763-0.249,0.763-0.764
			C243.526,352.297,243.448,351.865,242.762,351.865z"/>
		<path fill="#FFFFFF" d="M249.973,348.834v7.397h-2.194v-1.353h-2.603c-0.611,0.57-1.452,0.907-2.414,0.907
			c-1.912,0-3.402-1.343-3.402-3.159c0-1.827,1.49-3.171,3.402-3.171c0.989,0,1.843,0.35,2.453,0.947h2.563v-1.569H249.973
			 M242.762,353.957c0.773,0,1.33-0.447,1.33-1.33c0-0.895-0.557-1.327-1.33-1.327c-0.772,0-1.33,0.433-1.33,1.327
			C241.433,353.51,241.99,353.957,242.762,353.957 M246.124,353.156h1.655v-1.032h-1.655c0.027,0.167,0.042,0.325,0.042,0.503
			C246.166,352.817,246.151,352.98,246.124,353.156 M245.596,356.464c2.711,0,4.433,0.934,4.433,2.55
			c0,1.612-1.722,2.547-4.433,2.547c-2.696,0-4.42-0.935-4.42-2.547C241.176,357.397,242.9,356.464,245.596,356.464
			 M245.596,359.892c1.533,0,2.265-0.242,2.265-0.879c0-0.623-0.732-0.882-2.265-0.882c-1.532,0-2.25,0.259-2.25,0.882
			C243.346,359.65,244.064,359.892,245.596,359.892 M251.103,347.702h-1.13h-2.194h-1.131v1.132v0.441h-1.01
			c-0.795-0.615-1.797-0.949-2.875-0.949c-2.542,0-4.531,1.89-4.531,4.301c0,1.859,1.187,3.402,2.899,4.013
			c-0.762,0.682-1.084,1.538-1.084,2.374c0,1.776,1.459,3.677,5.55,3.677c4.102,0,5.563-1.9,5.563-3.677
			c0-0.561-0.144-1.13-0.47-1.65h0.415v-1.132v-7.397V347.702L251.103,347.702z M242.591,352.444c0.011,0,0.067-0.016,0.172-0.016
			c0.137,0,0.187,0.029,0.189,0.029h-0.002c-0.006,0,0.013,0.061,0.013,0.169c0,0.116-0.022,0.166-0.026,0.181c0,0-0.001,0-0.003,0
			c-0.008,0-0.059,0.02-0.171,0.02c-0.116,0-0.168-0.022-0.182-0.031c0.005-0.003-0.016-0.054-0.016-0.169
			C242.565,352.523,242.58,352.468,242.591,352.444C242.59,352.444,242.59,352.444,242.591,352.444L242.591,352.444z"/>
	</g>
</g>
<g>
	<g>
		<path fill="#3E454B" d="M454.543,483.097c-0.489,0-0.923-0.293-1.104-0.745c-0.182-0.453-0.07-0.965,0.283-1.303l1.769-1.676
			c-2.904-0.61-4.996-2.588-4.996-4.944v-12.318c0-2.84,3.099-5.149,6.908-5.149h8.799c3.811,0,6.91,2.31,6.91,5.149v12.318
			c0,2.356-2.093,4.334-4.997,4.944l1.765,1.674c0.356,0.339,0.469,0.851,0.287,1.304c-0.181,0.453-0.614,0.746-1.104,0.746H454.543
			z M468.401,472.099c-0.8,0-1.45,0.65-1.45,1.45s0.65,1.45,1.45,1.45s1.45-0.65,1.45-1.45S469.201,472.099,468.401,472.099z
			 M455.203,472.099c-0.799,0-1.449,0.65-1.449,1.45s0.65,1.45,1.449,1.45s1.449-0.65,1.449-1.45S456.002,472.099,455.203,472.099z
			 M469.851,467.52v-5.539h-6.42v5.539H469.851z M460.172,467.52v-5.539h-5.979v5.539H460.172z"/>
		<path fill="#FFFFFF" d="M466.201,457.712c3.396,0,6.16,1.966,6.16,4.399v12.318c0,2.379-2.626,4.303-5.926,4.386l2.928,2.776
			c0.289,0.275,0.097,0.756-0.302,0.756h-14.519c-0.398,0-0.591-0.48-0.303-0.756l2.929-2.776c-3.3-0.083-5.925-2.007-5.925-4.386
			v-12.318c0-2.434,2.763-4.399,6.158-4.399H466.201 M462.681,468.27h7.92v-7.039h-7.92V468.27 M453.443,468.27h7.479v-7.039h-7.479
			V468.27 M468.401,475.75c1.21,0,2.2-0.99,2.2-2.2s-0.99-2.2-2.2-2.2s-2.2,0.99-2.2,2.2S467.191,475.75,468.401,475.75
			 M455.203,475.75c1.21,0,2.199-0.99,2.199-2.2s-0.989-2.2-2.199-2.2s-2.199,0.99-2.199,2.2S453.993,475.75,455.203,475.75
			 M466.201,456.212h-8.799c-4.294,0-7.658,2.592-7.658,5.899v12.318c0,2.336,1.732,4.345,4.282,5.298l-0.818,0.775
			c-0.581,0.556-0.763,1.39-0.466,2.129c0.296,0.738,1.003,1.216,1.801,1.216h14.519c0.799,0,1.506-0.478,1.802-1.218
			c0.296-0.739,0.113-1.573-0.465-2.124l-0.82-0.777c2.55-0.954,4.283-2.963,4.283-5.299v-12.318
			C473.861,458.803,470.496,456.212,466.201,456.212L466.201,456.212z M464.181,462.731h4.92v4.039h-4.92V462.731L464.181,462.731z
			 M454.943,462.731h4.479v4.039h-4.479V462.731L454.943,462.731z M468.401,474.25c-0.38,0-0.7-0.32-0.7-0.7s0.32-0.7,0.7-0.7
			s0.7,0.32,0.7,0.7S468.781,474.25,468.401,474.25L468.401,474.25z M455.203,474.25c-0.379,0-0.699-0.32-0.699-0.7
			s0.32-0.7,0.699-0.7s0.699,0.32,0.699,0.7S455.582,474.25,455.203,474.25L455.203,474.25z"/>
	</g>
</g>
<g>
	<g>
		<path fill="#3E454B" d="M93.304,47.225c-0.489,0-0.923-0.293-1.104-0.745c-0.182-0.453-0.07-0.965,0.283-1.303l1.769-1.676
			c-2.904-0.61-4.996-2.588-4.996-4.944V26.239c0-2.84,3.099-5.149,6.908-5.149h8.799c3.811,0,6.91,2.31,6.91,5.149v12.318
			c0,2.356-2.093,4.334-4.997,4.944l1.765,1.674c0.356,0.339,0.469,0.851,0.287,1.304c-0.181,0.453-0.614,0.746-1.104,0.746H93.304z
			 M107.163,36.227c-0.8,0-1.45,0.65-1.45,1.45s0.65,1.45,1.45,1.45s1.45-0.65,1.45-1.45S107.963,36.227,107.163,36.227z
			 M93.965,36.227c-0.799,0-1.449,0.65-1.449,1.45s0.65,1.45,1.449,1.45s1.449-0.65,1.449-1.45S94.763,36.227,93.965,36.227z
			 M108.613,31.648v-5.539h-6.42v5.539H108.613z M98.933,31.648v-5.539h-5.979v5.539H98.933z"/>
		<path fill="#FFFFFF" d="M104.963,21.839c3.396,0,6.16,1.966,6.16,4.399v12.318c0,2.379-2.626,4.303-5.926,4.386l2.928,2.776
			c0.289,0.275,0.097,0.756-0.302,0.756H93.304c-0.398,0-0.591-0.48-0.303-0.756l2.929-2.776c-3.3-0.083-5.925-2.007-5.925-4.386
			V26.239c0-2.434,2.763-4.399,6.158-4.399H104.963 M101.443,32.398h7.92v-7.039h-7.92V32.398 M92.205,32.398h7.479v-7.039h-7.479
			V32.398 M107.163,39.877c1.21,0,2.2-0.99,2.2-2.2s-0.99-2.2-2.2-2.2s-2.2,0.99-2.2,2.2S105.953,39.877,107.163,39.877
			 M93.965,39.877c1.21,0,2.199-0.99,2.199-2.2s-0.989-2.2-2.199-2.2s-2.199,0.99-2.199,2.2S92.755,39.877,93.965,39.877
			 M104.963,20.339h-8.799c-4.294,0-7.658,2.592-7.658,5.899v12.318c0,2.336,1.732,4.345,4.282,5.298l-0.818,0.775
			c-0.581,0.556-0.763,1.39-0.466,2.129c0.296,0.738,1.003,1.216,1.801,1.216h14.519c0.799,0,1.506-0.478,1.802-1.218
			c0.296-0.739,0.113-1.573-0.465-2.124l-0.82-0.777c2.55-0.954,4.283-2.963,4.283-5.299V26.239
			C112.623,22.931,109.258,20.339,104.963,20.339L104.963,20.339z M102.943,26.859h4.92v4.039h-4.92V26.859L102.943,26.859z
			 M93.705,26.859h4.479v4.039h-4.479V26.859L93.705,26.859z M107.163,38.377c-0.38,0-0.7-0.32-0.7-0.7s0.32-0.7,0.7-0.7
			s0.7,0.32,0.7,0.7S107.543,38.377,107.163,38.377L107.163,38.377z M93.965,38.377c-0.379,0-0.699-0.32-0.699-0.7
			s0.32-0.7,0.699-0.7s0.699,0.32,0.699,0.7S94.344,38.377,93.965,38.377L93.965,38.377z"/>
	</g>
</g>
</svg>
