<?xml version="1.0" encoding="utf-8"?>
<!-- Generator: Adobe Illustrator 15.0.0, SVG Export Plug-In . SVG Version: 6.00 Build 0)  -->
<!DOCTYPE svg PUBLIC "-//W3C//DTD SVG 1.0//EN" "http://www.w3.org/TR/2001/REC-SVG-20010904/DTD/svg10.dtd">
<svg version="1.0" id="Layer_1" xmlns="http://www.w3.org/2000/svg" xmlns:xlink="http://www.w3.org/1999/xlink" x="0px" y="0px"
	 width="145px" height="46px" viewBox="0 0 145 46" enable-background="new 0 0 145 46" xml:space="preserve">
<g>
	<path fill="#FFFFFF" d="M126.529,34.926c0.027,0.003,0.055,0.007,0.082,0.011V22.397V9.236V8.229V3.461
		c-3.234-0.348-23.84-2.432-52.6-2.432c-19.096,0-37.818,0.904-55.65,2.686V7.7v1.008v13.514v12.261
		c0.029-0.002,0.072-0.004,0.104-0.006c4.531-0.259,33.048-1.823,61.519-1.823c14.586,0,26.82,0.404,36.574,1.203
		c0.266,0.021,0.539,0.043,0.801,0.064C120.723,34.208,123.783,34.542,126.529,34.926z"/>
	<path fill="#B3EEE5" d="M23.418,39.522c-2.754-1.751-5.76-3.791-5.796-3.814l-0.238-0.163v-0.003l-0.022,0.002V8.822
		c-7.889,0.94-15.336,2.663-15.46,4.26c-0.106,1.39,1.695,3.654,3.437,5.845c2.054,2.582,4.177,5.252,4.314,7.588
		c0.131,2.227-1.832,5.831-3.731,9.316c-1.752,3.216-3.737,6.861-3.29,8.315c0.057,0.184,0.438,0.293,1.02,0.293
		c1.858,0,5.377-1.045,9.103-2.151c3.858-1.146,7.829-2.325,10.826-2.647l-0.194-0.119L23.418,39.522z"/>
	<path fill="#94E0DE" d="M25.365,39.561c1.059,0.036,1.833,0.268,2.382,0.679v-5.24c-4.16,0.197-7.189,0.361-8.723,0.447
		C20.395,36.366,23.18,38.219,25.365,39.561z"/>
	<path fill="#B3EEE5" d="M127.611,9.351v26.672v0.057l-0.014,0.01l-0.221,0.15c-0.035,0.023-3.041,2.063-5.795,3.814l0.033-0.001
		l-0.195,0.119c2.998,0.322,6.967,1.502,10.826,2.647c3.725,1.106,7.244,2.152,9.104,2.151c0.582,0,0.963-0.109,1.02-0.293
		c0.447-1.454-1.539-5.1-3.291-8.315c-1.898-3.485-3.861-7.09-3.73-9.316c0.137-2.336,2.26-5.006,4.314-7.588
		c1.74-2.19,3.543-4.455,3.436-5.845C142.975,12.014,135.51,10.29,127.611,9.351z"/>
	<path fill="#94E0DE" d="M117.359,34.927v5.763c0.543-0.361,1.285-0.563,2.275-0.598c2.26-1.389,5.17-3.327,6.484-4.21
		C123.482,35.52,120.563,35.2,117.359,34.927z"/>
	<path fill="#58595B" d="M144.094,13.537c-0.223-2.911-11.07-4.554-16.482-5.194V2.567l-0.441-0.052
		c-0.217-0.024-21.879-2.486-53.158-2.486c-19.292,0-38.2,0.921-56.2,2.736l-0.45,0.045v5.005c-5.42,0.642-16.232,2.284-16.456,5.19
		c-0.138,1.78,1.702,4.094,3.65,6.543c1.957,2.461,3.979,5.005,4.099,7.024c0.114,1.941-1.779,5.418-3.611,8.779
		c-2.113,3.88-3.939,7.23-3.367,9.089c0.203,0.662,0.868,0.998,1.975,0.998c2.004,0,5.591-1.064,9.388-2.192
		c4.248-1.262,9.063-2.692,12-2.692l0.036,0.001c2.338,1.426,2.82,1.547,3.086,1.547l0.411-0.035l0.128-0.309
		c0.016-0.039,0.01-0.077,0.018-0.115h0.029v-6.691c11.766-0.547,31.509-1.299,51.238-1.299c14.469,0,26.613,0.398,36.307,1.185
		v7.083c-0.033,0.125-0.041,0.247,0.01,0.369l0.205,0.344h0.334c0.266,0,0.748-0.122,3.086-1.547l0.035-0.001
		c2.938,0,7.752,1.431,12,2.692c3.797,1.128,7.385,2.193,9.389,2.192c1.105,0,1.771-0.336,1.975-0.998
		c0.572-1.858-1.254-5.209-3.367-9.089c-1.832-3.361-3.727-6.838-3.611-8.779c0.119-2.02,2.141-4.563,4.098-7.024
		C142.393,17.631,144.232,15.317,144.094,13.537z M12.753,42.288c-3.726,1.106-7.244,2.151-9.103,2.151
		c-0.582,0-0.963-0.109-1.02-0.293c-0.447-1.454,1.538-5.1,3.29-8.315c1.899-3.485,3.862-7.09,3.731-9.316
		c-0.138-2.336-2.261-5.006-4.314-7.588c-1.741-2.19-3.543-4.455-3.437-5.845c0.124-1.597,7.571-3.319,15.46-4.26v26.722
		l0.022-0.002v0.003l0.238,0.163c0.036,0.023,3.042,2.063,5.796,3.814l-0.033-0.001l0.194,0.119
		C20.583,39.963,16.612,41.143,12.753,42.288z M27.747,40.239c-0.549-0.411-1.323-0.643-2.382-0.679
		c-2.185-1.342-4.97-3.194-6.341-4.114c1.533-0.086,4.563-0.25,8.723-0.447V40.239z M116.559,33.856
		c-9.754-0.799-21.988-1.203-36.574-1.203c-28.471,0-56.988,1.564-61.519,1.823c-0.031,0.002-0.074,0.004-0.104,0.006V22.222V8.708
		V7.7V3.715c17.832-1.781,36.554-2.686,55.65-2.686c28.76,0,49.365,2.084,52.6,2.432v4.769v1.007v13.161v12.539
		c-0.027-0.004-0.055-0.008-0.082-0.011c-2.746-0.384-5.807-0.718-9.17-1.005C117.098,33.899,116.824,33.878,116.559,33.856z
		 M119.635,40.092c-0.99,0.034-1.732,0.236-2.275,0.598v-5.763c3.203,0.273,6.123,0.593,8.76,0.955
		C124.805,36.765,121.895,38.703,119.635,40.092z M135.348,27.046c-0.131,2.227,1.832,5.831,3.73,9.316
		c1.752,3.216,3.738,6.861,3.291,8.315c-0.057,0.184-0.438,0.293-1.02,0.293c-1.859,0.001-5.379-1.045-9.104-2.151
		c-3.859-1.146-7.828-2.325-10.826-2.647l0.195-0.119l-0.033,0.001c2.754-1.751,5.76-3.791,5.795-3.814l0.221-0.15l0.014-0.01
		v-0.057V9.351c7.898,0.939,15.363,2.663,15.486,4.263c0.107,1.39-1.695,3.654-3.436,5.845
		C137.607,22.04,135.484,24.71,135.348,27.046z"/>
</g>
</svg>
