<?xml version="1.0" encoding="utf-8"?>
<!-- Generator: Adobe Illustrator 15.0.0, SVG Export Plug-In . SVG Version: 6.00 Build 0)  -->
<!DOCTYPE svg PUBLIC "-//W3C//DTD SVG 1.1//EN" "http://www.w3.org/Graphics/SVG/1.1/DTD/svg11.dtd">
<svg version="1.1" id="Layer_1" xmlns="http://www.w3.org/2000/svg" xmlns:xlink="http://www.w3.org/1999/xlink" x="0px" y="0px"
	 width="210px" height="130px" viewBox="0 0 210 130" enable-background="new 0 0 210 130" xml:space="preserve">
<g>
	<path fill="#FFFFFF" d="M145.392,19.429c-2.209-5.813-6.086-10.724-11.217-14.2c-2.471-1.673-5.168-2.969-8.021-3.851
		c-2.877-0.89-5.859-1.341-8.863-1.341c-3.641,0-7.232,0.661-10.67,1.968c-0.498,0.191-1.016,0.407-1.57,0.655
		c-1.861-0.839-3.807-1.488-5.791-1.934C97.112,0.244,94.915,0,92.722,0c-2.566,0-5.137,0.334-7.639,0.995
		c-3.926,1.027-7.529,2.792-10.719,5.248c-3.078,2.371-5.637,5.282-7.604,8.652c-1.971,3.371-3.252,7.03-3.809,10.876
		c-0.578,3.982-0.346,7.989,0.684,11.913c0.863,3.302,2.262,6.396,4.154,9.2c1.83,2.708,4.082,5.091,6.695,7.08
		c2.586,1.967,5.459,3.497,8.531,4.547c3.123,1.065,6.375,1.607,9.666,1.607c2.566,0,5.137-0.333,7.641-0.989
		c1.572-0.41,3.127-0.955,4.639-1.626c1.918,0.864,3.932,1.53,5.986,1.976c2.088,0.455,4.229,0.686,6.357,0.686c0,0,0,0,0.002,0
		c3.645,0,7.23-0.664,10.666-1.968c3.791-1.441,7.186-3.583,10.094-6.364c2.809-2.686,5.043-5.853,6.643-9.413
		c1.602-3.559,2.486-7.333,2.627-11.217C147.487,27.181,146.831,23.221,145.392,19.429z M119.163,44.296
		c1.297-2.41,2.26-4.972,2.861-7.63l4.43,1.102l-5.199-18.095l-13.072,13.55l4.447,1.106c-1.607,7.48-7.328,13.497-14.762,15.444
		c-1.695,0.444-3.443,0.671-5.182,0.671c-9.248,0-17.35-6.26-19.697-15.222c-1.383-5.261-0.631-10.748,2.117-15.448
		c2.75-4.7,7.164-8.05,12.428-9.431c1.691-0.444,3.428-0.67,5.158-0.67c0.809,0,1.621,0.05,2.426,0.148
		c-1.697,1.857-3.154,3.921-4.346,6.155c-1.266,2.382-2.207,4.912-2.799,7.536l-3.969-1.845l1.668,18.75l15.404-10.816l-4.021-1.868
		c0.887-7.598,5.826-13.958,13.004-16.684c2.33-0.887,4.764-1.335,7.232-1.335c8.41,0,16.064,5.287,19.051,13.155
		c1.936,5.087,1.773,10.624-0.455,15.588c-2.23,4.966-6.264,8.765-11.352,10.696c-2.318,0.879-4.74,1.327-7.203,1.327
		c-0.816,0-1.637-0.05-2.451-0.149C116.548,48.506,117.985,46.482,119.163,44.296z"/>
</g>
<g>
	<path fill="#FFFFFF" d="M2.569,83.325c0-0.277-0.436-0.525-1.314-0.744c-0.23-0.059-0.346-0.145-0.346-0.26
		c0-0.092,0.039-0.18,0.119-0.26c0.082-0.081,0.203-0.127,0.363-0.139c0.209-0.012,0.428-0.012,0.658,0s0.449,0.03,0.656,0.052
		c0.207,0.024,0.4,0.054,0.572,0.087c0.172,0.035,0.303,0.069,0.396,0.104c0.195-0.011,0.41-0.02,0.648-0.025
		c0.236-0.007,0.477-0.014,0.719-0.026c0.24-0.012,0.48-0.019,0.709-0.026c0.229-0.005,0.443-0.014,0.639-0.025
		c0.242-0.01,0.461-0.049,0.656-0.111c0.197-0.064,0.359-0.16,0.488-0.287c0.227,0,0.471,0.009,0.723,0.027
		c0.254,0.018,0.496,0.049,0.729,0.094c0.344,0.059,0.518,0.22,0.518,0.484c0,0.301-0.207,0.45-0.623,0.45
		c-0.797,0.011-1.652,0.023-2.568,0.034c-0.916,0.013-1.771,0.029-2.566,0.052v5.62c0,0.139,0.051,0.243,0.146,0.312
		c0.096,0.069,0.32,0.093,0.666,0.069c0.438-0.012,0.961-0.053,1.564-0.121c0.605-0.069,1.238-0.156,1.902-0.26
		c0.662-0.104,1.338-0.221,2.023-0.354c0.686-0.132,1.33-0.272,1.93-0.423v-6.848c0-0.207-0.109-0.398-0.32-0.572
		c-0.215-0.172-0.535-0.34-0.961-0.5c-0.092-0.047-0.17-0.09-0.234-0.131c-0.061-0.04-0.094-0.089-0.094-0.146
		c0-0.059,0.045-0.12,0.131-0.189c0.086-0.07,0.215-0.104,0.387-0.104c0.08,0,0.23,0.012,0.449,0.034
		c0.221,0.023,0.455,0.057,0.701,0.096c0.246,0.041,0.482,0.084,0.699,0.129c0.221,0.047,0.365,0.088,0.436,0.122l-0.07,0.934
		v10.289c0,0.231-0.002,0.558-0.008,0.977c-0.006,0.421-0.035,0.839-0.08,1.254s-0.121,0.778-0.223,1.09
		c-0.105,0.312-0.25,0.466-0.434,0.466c-0.256,0-0.379-0.715-0.379-2.145v-4.098c-0.51,0.15-1.107,0.315-1.801,0.493
		c-0.689,0.179-1.402,0.346-2.137,0.502c-0.73,0.156-1.453,0.293-2.168,0.415c-0.715,0.121-1.35,0.198-1.904,0.232
		c-0.551,0.035-0.924-0.097-1.113-0.396c-0.191-0.301-0.285-0.691-0.285-1.177V83.325z"/>
	<path fill="#FFFFFF" d="M22.714,81.629c0.186-0.012,0.346-0.046,0.486-0.105c0.135-0.056,0.232-0.102,0.293-0.137
		c0.104,0,0.232,0.006,0.389,0.016c0.154,0.012,0.313,0.029,0.475,0.053c0.139,0.023,0.23,0.064,0.277,0.122
		c0.045,0.057,0.066,0.132,0.066,0.224c0,0.059-0.021,0.128-0.066,0.208c-0.047,0.081-0.102,0.173-0.174,0.276
		c-0.057,0.07-0.113,0.167-0.172,0.295c-0.242,0.484-0.518,0.985-0.822,1.504c-0.307,0.519-0.664,1.049-1.082,1.591
		c0.162,0.173,0.348,0.349,0.555,0.527s0.457,0.384,0.742,0.614c0.107,0.092,0.211,0.161,0.322,0.207
		c0.109,0.046,0.207,0.08,0.303,0.104c0.092,0.023,0.178,0.072,0.26,0.147c0.084,0.075,0.174,0.182,0.277,0.319
		c0.16,0.23,0.301,0.455,0.42,0.675c0.123,0.218,0.217,0.393,0.287,0.519c0.045,0.081,0.098,0.19,0.156,0.329
		c0.057,0.138,0.086,0.259,0.086,0.362c0,0.219-0.121,0.328-0.363,0.328c-0.092,0-0.199-0.057-0.32-0.173
		c-0.123-0.114-0.277-0.271-0.475-0.466l-2.732-2.904c-0.555,0.656-1.211,1.311-1.971,1.962c-0.762,0.651-1.67,1.306-2.734,1.962
		c-0.068,0.047-0.139,0.061-0.215,0.044c-0.076-0.019-0.139-0.052-0.189-0.104c-0.053-0.051-0.078-0.111-0.078-0.182
		c0-0.068,0.041-0.139,0.121-0.207c1.291-1.015,2.467-2.139,3.527-3.373c1.059-1.232,1.906-2.599,2.541-4.098
		c-0.195,0-0.406,0.002-0.639,0.008c-0.23,0.008-0.467,0.017-0.709,0.027c-0.244,0.012-0.484,0.026-0.727,0.043
		c-0.24,0.018-0.461,0.038-0.656,0.061c-0.232,0.023-0.445,0.064-0.646,0.121c-0.203,0.059-0.398,0.145-0.58,0.26
		c-0.141-0.035-0.291-0.084-0.451-0.146c-0.164-0.064-0.316-0.131-0.467-0.2c-0.152-0.068-0.283-0.138-0.398-0.206
		c-0.117-0.07-0.195-0.128-0.244-0.174c-0.064-0.069-0.104-0.145-0.104-0.225c0-0.162,0.135-0.213,0.4-0.156
		c0.266,0.047,0.518,0.072,0.762,0.078c0.242,0.005,0.477,0.009,0.707,0.009c0.207,0,0.455-0.004,0.742-0.009
		c0.289-0.006,0.594-0.017,0.918-0.034c0.322-0.017,0.652-0.032,0.986-0.044C22.132,81.669,22.437,81.652,22.714,81.629z
		 M28.991,80.47v10.063c0,0.151,0,0.353,0,0.605c0,0.255-0.004,0.53-0.016,0.83c-0.014,0.301-0.037,0.603-0.07,0.907
		c-0.035,0.306-0.078,0.583-0.131,0.831c-0.051,0.248-0.121,0.449-0.205,0.605c-0.09,0.156-0.195,0.232-0.322,0.232
		c-0.254,0-0.379-0.715-0.379-2.145V80.799c0-0.207-0.105-0.398-0.32-0.572c-0.211-0.172-0.533-0.34-0.959-0.5
		c-0.096-0.047-0.172-0.09-0.236-0.131c-0.061-0.04-0.094-0.089-0.094-0.146c0-0.059,0.041-0.12,0.131-0.189
		c0.086-0.07,0.217-0.104,0.387-0.104c0.082,0,0.232,0.012,0.451,0.034c0.219,0.023,0.453,0.057,0.703,0.096
		c0.244,0.041,0.479,0.084,0.697,0.129c0.219,0.047,0.363,0.088,0.434,0.122L28.991,80.47z"/>
	<path fill="#FFFFFF" d="M35.407,86.142c0,0.265,0.15,0.397,0.447,0.397c0.703,0.013,1.551-0.025,2.545-0.111
		c0.99-0.088,1.992-0.223,3.008-0.406c0.127-0.023,0.225-0.01,0.293,0.043c0.068,0.052,0.104,0.114,0.104,0.189
		c0,0.074-0.029,0.152-0.084,0.232c-0.059,0.082-0.158,0.14-0.295,0.174c-1.176,0.335-2.258,0.576-3.242,0.727
		c-0.986,0.15-1.838,0.23-2.551,0.242c-0.518,0.012-0.889-0.127-1.107-0.414c-0.217-0.289-0.328-0.693-0.328-1.211v-3.563
		c-0.127-0.218-0.316-0.383-0.572-0.491c-0.25-0.111-0.482-0.193-0.688-0.252c-0.131-0.035-0.227-0.083-0.289-0.146
		c-0.064-0.063-0.094-0.129-0.094-0.199c0-0.069,0.033-0.132,0.104-0.189c0.068-0.059,0.166-0.088,0.295-0.088
		c0.125,0,0.283,0.01,0.475,0.026c0.189,0.019,0.395,0.04,0.611,0.069c0.223,0.029,0.438,0.061,0.652,0.095
		c0.211,0.036,0.406,0.06,0.578,0.069c0.23,0.012,0.432,0.018,0.596,0.018c0.168,0,0.32-0.006,0.457-0.018
		c0.139-0.01,0.273-0.022,0.396-0.033c0.129-0.013,0.268-0.03,0.416-0.054c0.268-0.034,0.504-0.092,0.711-0.173
		c0.207-0.08,0.398-0.184,0.572-0.311c0.158-0.022,0.391-0.035,0.682-0.035c0.295,0,0.52,0.013,0.684,0.035
		c0.172,0.023,0.342,0.068,0.51,0.138s0.25,0.197,0.25,0.381c0,0.186-0.094,0.326-0.285,0.425c-0.188,0.098-0.43,0.141-0.715,0.129
		c-0.463,0.012-0.869,0.023-1.221,0.033c-0.352,0.014-0.684,0.027-0.994,0.045c-0.313,0.018-0.617,0.035-0.916,0.052
		c-0.303,0.017-0.631,0.032-0.988,0.043c-0.01,0.116-0.016,0.192-0.016,0.233s0,0.066,0,0.078v1.59c0.264,0,0.557-0.002,0.873-0.008
		c0.314-0.006,0.572-0.031,0.768-0.078c0.164-0.034,0.316-0.08,0.459-0.138c0.145-0.058,0.279-0.134,0.406-0.226
		c0.174-0.023,0.389-0.034,0.643-0.034s0.457,0.007,0.623,0.017c0.4,0.025,0.604,0.18,0.604,0.467c0,0.221-0.082,0.365-0.24,0.432
		c-0.164,0.07-0.396,0.111-0.693,0.123c-0.578,0.022-1.16,0.043-1.754,0.06c-0.596,0.018-1.158,0.044-1.688,0.078V86.142z
		 M39.054,93.785c0.646,0.023,1.285,0.026,1.922,0.011c0.633-0.019,1.238-0.057,1.814-0.115c0.186-0.021,0.389-0.066,0.613-0.129
		c0.227-0.063,0.402-0.158,0.527-0.285c0.164-0.023,0.385-0.025,0.668-0.008c0.281,0.018,0.502,0.037,0.664,0.061
		c0.172,0.022,0.34,0.074,0.5,0.156c0.162,0.08,0.244,0.205,0.244,0.379c0,0.381-0.293,0.559-0.881,0.537
		c-0.303-0.012-0.701-0.016-1.205-0.01c-0.5,0.006-1.037,0.016-1.617,0.027c-0.574,0.011-1.156,0.021-1.742,0.034
		c-0.588,0.011-1.121,0.018-1.592,0.018c-0.484,0.033-0.857-0.062-1.117-0.286s-0.389-0.58-0.389-1.063v-0.97
		c-0.08-0.196-0.215-0.337-0.396-0.423c-0.186-0.088-0.375-0.158-0.57-0.216c-0.268-0.069-0.389-0.178-0.373-0.32
		c0.018-0.144,0.158-0.228,0.424-0.251c0.127-0.012,0.289-0.012,0.484,0c0.197,0.012,0.402,0.023,0.615,0.035
		s0.422,0.025,0.627,0.043c0.211,0.018,0.387,0.025,0.537,0.025c0.395,0.012,0.811,0.016,1.258,0.01
		c0.441-0.006,0.871-0.018,1.287-0.035c0.412-0.018,0.803-0.035,1.168-0.053c0.361-0.018,0.658-0.037,0.889-0.06
		c0.01-0.115,0.021-0.254,0.035-0.415c0.012-0.161,0.018-0.322,0.027-0.485c0.006-0.161,0.01-0.319,0.016-0.476
		c0.006-0.154,0.008-0.29,0.008-0.405c-0.311-0.013-0.648-0.015-1.01-0.009c-0.365,0.006-0.732,0.018-1.105,0.034
		c-0.377,0.018-0.746,0.04-1.109,0.068c-0.365,0.03-0.701,0.056-1.012,0.079c-0.322,0.023-0.615,0.078-0.881,0.165
		c-0.268,0.086-0.457,0.157-0.572,0.216c-0.113-0.036-0.25-0.084-0.406-0.148c-0.156-0.063-0.307-0.131-0.457-0.207
		c-0.148-0.074-0.287-0.152-0.418-0.232c-0.125-0.081-0.219-0.15-0.273-0.209c-0.08-0.068-0.129-0.135-0.141-0.198
		c-0.01-0.063,0-0.116,0.035-0.155c0.035-0.041,0.084-0.072,0.148-0.096c0.063-0.021,0.131-0.027,0.199-0.018
		c0.07,0.012,0.164,0.024,0.285,0.035c0.119,0.012,0.244,0.023,0.371,0.035c0.127,0.01,0.25,0.023,0.373,0.035
		c0.121,0.01,0.215,0.016,0.283,0.016c0.426,0.023,0.891,0.031,1.393,0.025c0.502-0.005,0.99-0.016,1.461-0.033
		c0.473-0.018,0.904-0.035,1.297-0.053c0.395-0.018,0.703-0.03,0.936-0.043c0.334-0.021,0.666-0.043,0.99-0.061
		c0.334-0.018,0.559-0.036,0.688-0.061c0.195-0.022,0.33-0.002,0.404,0.061c0.076,0.064,0.111,0.137,0.111,0.217
		c0,0.081-0.02,0.175-0.059,0.284c-0.039,0.11-0.088,0.229-0.148,0.354c-0.068,0.277-0.148,0.57-0.242,0.883
		c-0.092,0.311-0.174,0.56-0.24,0.743c0.09-0.011,0.189-0.014,0.293-0.009c0.104,0.007,0.193,0.023,0.27,0.053
		c0.074,0.028,0.135,0.074,0.189,0.139c0.051,0.063,0.072,0.146,0.061,0.25c-0.014,0.162-0.09,0.266-0.234,0.312
		c-0.146,0.046-0.324,0.058-0.543,0.035c-0.646,0-1.24,0.003-1.781,0.007c-0.543,0.007-1.049,0.016-1.514,0.027
		c-0.469,0.011-0.9,0.025-1.295,0.043c-0.4,0.018-0.777,0.032-1.137,0.043c-0.012,0.058-0.018,0.129-0.018,0.217
		c0,0.086,0,0.135,0,0.146v1.211C38.69,93.629,38.812,93.785,39.054,93.785z M45.159,79.692c-0.023,0.139-0.051,0.328-0.078,0.57
		c-0.027,0.244-0.041,0.467-0.041,0.676v3.925c0,0.173-0.004,0.423-0.01,0.753c-0.004,0.328-0.029,0.653-0.068,0.976
		c-0.041,0.323-0.107,0.603-0.201,0.839s-0.225,0.354-0.396,0.354c-0.127,0-0.234-0.094-0.32-0.284
		c-0.088-0.19-0.127-0.481-0.127-0.873v-2.404c-0.256,0-0.5,0.009-0.738,0.026c-0.236,0.018-0.439,0.037-0.611,0.061
		c-0.393,0.068-0.699,0.162-0.918,0.276c-0.242-0.057-0.477-0.149-0.701-0.276c-0.223-0.127-0.406-0.253-0.543-0.38
		c-0.162-0.139-0.203-0.26-0.131-0.363c0.074-0.104,0.184-0.144,0.32-0.122c0.045,0.012,0.121,0.025,0.225,0.035
		c0.104,0.012,0.217,0.021,0.336,0.025c0.123,0.006,0.244,0.013,0.363,0.018c0.121,0.006,0.229,0.01,0.322,0.01
		c0.631,0,1.324-0.035,2.076-0.104V80.54c-0.188-0.219-0.418-0.395-0.691-0.528c-0.279-0.132-0.512-0.226-0.693-0.284
		c-0.266-0.092-0.387-0.214-0.363-0.363c0.023-0.15,0.166-0.225,0.432-0.225c0.104,0,0.273,0.011,0.51,0.034
		c0.238,0.023,0.486,0.058,0.752,0.104c0.266,0.045,0.516,0.104,0.752,0.172C44.853,79.519,45.034,79.599,45.159,79.692z"/>
	<path fill="#FFFFFF" d="M53.806,90.413c-0.094,0.07-0.184,0.107-0.275,0.112c-0.094,0.007-0.168-0.011-0.225-0.05
		c-0.059-0.042-0.084-0.099-0.076-0.174c0.004-0.076,0.057-0.164,0.16-0.269c0.486-0.461,0.969-0.981,1.453-1.565
		c0.486-0.581,0.932-1.184,1.342-1.807s0.771-1.248,1.086-1.875c0.32-0.629,0.559-1.232,0.721-1.807
		c0.023-0.048,0.039-0.105,0.051-0.175s0.018-0.114,0.018-0.138c0.01-0.092-0.072-0.219-0.25-0.381
		c-0.18-0.16-0.447-0.3-0.805-0.416c-0.207-0.068-0.299-0.166-0.275-0.292c0-0.069,0.039-0.13,0.119-0.183
		c0.08-0.051,0.193-0.076,0.328-0.076c0.139,0,0.334,0.025,0.59,0.076c0.254,0.053,0.51,0.116,0.77,0.191
		c0.26,0.074,0.494,0.152,0.705,0.232c0.217,0.082,0.355,0.15,0.426,0.209c-0.012,0.057-0.031,0.137-0.059,0.24
		c-0.031,0.104-0.063,0.213-0.096,0.33c-0.127,0.402-0.283,0.824-0.469,1.262c-0.184,0.438-0.408,0.881-0.674,1.332
		c0.104,0.103,0.238,0.238,0.398,0.406c0.162,0.167,0.33,0.34,0.5,0.519c0.176,0.178,0.34,0.345,0.494,0.501
		c0.156,0.155,0.279,0.269,0.373,0.337c0.092,0.069,0.189,0.139,0.293,0.207c0.105,0.069,0.201,0.122,0.293,0.157
		c0.129,0.046,0.227,0.089,0.297,0.129c0.068,0.041,0.129,0.101,0.189,0.182c0.264,0.381,0.471,0.715,0.623,1.003
		c0.146,0.288,0.246,0.616,0.291,0.985c0.035,0.231-0.07,0.357-0.309,0.38c-0.176,0.013-0.434-0.196-0.779-0.622l-3.043-3.597
		c-0.566,0.899-1.213,1.759-1.945,2.577S54.569,89.86,53.806,90.413z M65.669,80.47v10.063c0,0.151,0,0.353,0,0.605
		c0,0.255-0.008,0.53-0.02,0.83c-0.01,0.301-0.033,0.603-0.068,0.907c-0.033,0.306-0.076,0.583-0.129,0.831
		c-0.051,0.248-0.121,0.449-0.209,0.605c-0.084,0.156-0.191,0.232-0.318,0.232c-0.256,0-0.379-0.715-0.379-2.145V80.799
		c0-0.207-0.109-0.398-0.322-0.572c-0.213-0.172-0.531-0.34-0.959-0.5c-0.094-0.047-0.17-0.09-0.232-0.131
		c-0.064-0.04-0.096-0.089-0.096-0.146c0-0.059,0.041-0.12,0.131-0.189c0.086-0.07,0.213-0.104,0.387-0.104
		c0.084,0,0.232,0.012,0.451,0.034c0.219,0.023,0.451,0.057,0.699,0.096c0.248,0.041,0.482,0.084,0.699,0.129
		c0.221,0.047,0.365,0.088,0.434,0.122L65.669,80.47z"/>
	<path fill="#FFFFFF" d="M70.528,83.444c0-0.126-0.096-0.252-0.287-0.379c-0.189-0.127-0.504-0.249-0.939-0.364
		c-0.234-0.058-0.348-0.144-0.348-0.26c0-0.091,0.041-0.177,0.121-0.259c0.08-0.081,0.199-0.126,0.363-0.139
		c0.426-0.022,0.85-0.006,1.27,0.053c0.422,0.058,0.729,0.121,0.926,0.189c0.176-0.012,0.324-0.02,0.459-0.025
		c0.133-0.006,0.254-0.012,0.371-0.018s0.229-0.012,0.34-0.018c0.105-0.006,0.232-0.014,0.371-0.026
		c0.238-0.023,0.461-0.066,0.656-0.13c0.195-0.062,0.355-0.158,0.482-0.285c0.23,0,0.463,0.01,0.691,0.027
		c0.23,0.016,0.463,0.049,0.693,0.095c0.346,0.058,0.518,0.22,0.518,0.483c0,0.301-0.207,0.45-0.621,0.45
		c-0.404,0-0.76,0.003-1.064,0.008c-0.305,0.007-0.602,0.016-0.881,0.026c-0.283,0.012-0.58,0.021-0.891,0.026
		c-0.313,0.005-0.664,0.015-1.055,0.025v5.759c0,0.138,0.049,0.242,0.145,0.311c0.098,0.07,0.32,0.093,0.666,0.07
		c0.428-0.022,0.848-0.055,1.254-0.096c0.41-0.041,0.832-0.098,1.262-0.173c0.434-0.075,0.885-0.164,1.359-0.269
		c0.473-0.104,0.99-0.235,1.557-0.396v-6.226c0-0.162-0.037-0.303-0.111-0.425c-0.076-0.121-0.174-0.225-0.297-0.311
		c-0.119-0.086-0.26-0.16-0.414-0.226c-0.158-0.063-0.314-0.122-0.475-0.181c-0.209-0.08-0.311-0.172-0.311-0.277
		c0-0.068,0.039-0.138,0.119-0.206c0.082-0.071,0.203-0.104,0.363-0.104c0.082,0,0.23,0.016,0.449,0.043
		c0.223,0.029,0.457,0.062,0.711,0.096c0.252,0.034,0.488,0.076,0.707,0.121c0.219,0.047,0.365,0.086,0.432,0.121l-0.066,0.916
		v3.994l2.039-0.017v-4.651c0-0.207-0.109-0.398-0.318-0.572c-0.213-0.172-0.535-0.34-0.961-0.5c-0.092-0.047-0.17-0.09-0.232-0.131
		c-0.063-0.04-0.096-0.089-0.096-0.146c0-0.059,0.045-0.12,0.131-0.189c0.084-0.07,0.215-0.104,0.389-0.104
		c0.08,0,0.229,0.012,0.449,0.034c0.217,0.023,0.451,0.057,0.699,0.096c0.248,0.041,0.484,0.084,0.701,0.129
		c0.219,0.047,0.361,0.088,0.432,0.122l-0.07,0.934v10.063c0,0.151,0,0.353,0,0.605c0,0.255-0.004,0.53-0.008,0.83
		c-0.006,0.301-0.023,0.603-0.053,0.907c-0.029,0.306-0.066,0.583-0.119,0.831c-0.051,0.248-0.125,0.449-0.217,0.605
		s-0.207,0.232-0.346,0.232c-0.252,0-0.381-0.715-0.381-2.145v-6.189l-2.039,0.017v3.269c0,0.15,0,0.353,0,0.605
		c0,0.254-0.004,0.529-0.008,0.83c-0.008,0.3-0.025,0.602-0.055,0.906c-0.029,0.307-0.068,0.585-0.119,0.832
		c-0.053,0.247-0.121,0.449-0.207,0.605c-0.088,0.156-0.201,0.232-0.34,0.232c-0.254,0-0.379-0.715-0.379-2.145v-2.559
		c-0.924,0.312-1.877,0.6-2.861,0.865c-0.986,0.266-2.037,0.443-3.156,0.535c-0.277,0.023-0.506,0-0.684-0.068
		c-0.178-0.07-0.324-0.176-0.432-0.32c-0.111-0.145-0.186-0.317-0.227-0.519c-0.039-0.202-0.059-0.425-0.059-0.666V83.444z"/>
	<path fill="#FFFFFF" d="M86.817,92.61c0,0.299-0.047,0.59-0.139,0.873c-0.092,0.282-0.215,0.545-0.363,0.787
		c-0.15,0.242-0.326,0.461-0.527,0.657c-0.203,0.195-0.404,0.357-0.613,0.483c-0.176,0.104-0.293,0.104-0.363,0
		c-0.082-0.104-0.051-0.207,0.086-0.312c0.115-0.092,0.23-0.204,0.355-0.337c0.121-0.133,0.232-0.283,0.336-0.449
		c0.105-0.168,0.195-0.346,0.268-0.536c0.074-0.19,0.119-0.39,0.129-0.597c-0.391,0.045-0.688-0.018-0.889-0.19
		s-0.303-0.415-0.303-0.726c0-0.289,0.096-0.518,0.285-0.684c0.189-0.167,0.416-0.251,0.684-0.251c0.346,0,0.605,0.12,0.787,0.363
		C86.729,91.936,86.817,92.241,86.817,92.61z"/>
	<path fill="#FFFFFF" d="M101.948,81.836c-0.383,0.785-0.861,1.527-1.443,2.23c-0.584,0.704-1.207,1.349-1.869,1.938
		c-0.662,0.587-1.344,1.114-2.047,1.582c-0.703,0.467-1.373,0.855-2.01,1.166c-0.146,0.069-0.268,0.102-0.361,0.098
		c-0.092-0.008-0.15-0.039-0.182-0.098c-0.027-0.057-0.023-0.125,0.018-0.206s0.117-0.156,0.232-0.226
		c0.59-0.357,1.195-0.772,1.818-1.245c0.621-0.473,1.215-0.995,1.779-1.565s1.082-1.188,1.547-1.849
		c0.469-0.664,0.846-1.364,1.135-2.103c-0.199,0-0.428,0.003-0.691,0.009c-0.266,0.006-0.545,0.016-0.832,0.026
		c-0.285,0.011-0.568,0.026-0.85,0.043c-0.273,0.018-0.51,0.037-0.705,0.061c-0.23,0.023-0.447,0.064-0.648,0.121
		c-0.201,0.058-0.395,0.145-0.58,0.259c-0.139-0.034-0.287-0.083-0.449-0.146c-0.162-0.064-0.318-0.131-0.467-0.199
		c-0.148-0.07-0.283-0.142-0.396-0.216c-0.115-0.075-0.197-0.136-0.244-0.183c-0.068-0.069-0.104-0.144-0.104-0.225
		c0-0.162,0.131-0.213,0.396-0.156c0.266,0.047,0.52,0.072,0.762,0.078c0.244,0.007,0.479,0.009,0.709,0.009
		c0.207,0,0.475-0.002,0.795-0.009c0.322-0.006,0.67-0.016,1.039-0.033c0.367-0.018,0.738-0.033,1.105-0.045
		c0.369-0.012,0.693-0.028,0.969-0.052c0.184-0.011,0.348-0.046,0.484-0.103c0.139-0.058,0.234-0.104,0.293-0.139
		c0.105,0,0.234,0.006,0.391,0.017c0.154,0.013,0.313,0.03,0.477,0.052c0.137,0.023,0.232,0.067,0.283,0.13
		c0.051,0.063,0.08,0.142,0.08,0.233c0,0.081-0.092,0.236-0.277,0.467c-0.025,0.035-0.053,0.082-0.078,0.139
		C101.995,81.756,101.972,81.801,101.948,81.836z M104.56,88.667c0.162-0.012,0.334-0.012,0.516,0
		c0.186,0.011,0.344,0.028,0.469,0.051c0.207,0.048,0.316,0.116,0.322,0.208c0.004,0.092,0.002,0.185-0.01,0.276
		c-0.023,0.196-0.057,0.353-0.096,0.468s-0.072,0.287-0.096,0.518c-0.021,0.22-0.047,0.459-0.068,0.719
		c-0.023,0.259-0.049,0.521-0.068,0.786c-0.023,0.266-0.047,0.521-0.07,0.77c-0.021,0.247-0.045,0.477-0.068,0.684
		c0.217,0.046,0.371,0.112,0.459,0.198c0.086,0.088,0.129,0.176,0.129,0.268c0,0.254-0.215,0.393-0.641,0.416
		c-0.957-0.023-1.869-0.029-2.74-0.018c-0.871,0.01-1.773,0.027-2.709,0.051c-0.008,0.116-0.059,0.248-0.143,0.399
		c-0.088,0.149-0.197,0.224-0.322,0.224c-0.162,0-0.273-0.074-0.336-0.224c-0.064-0.151-0.105-0.323-0.131-0.521l-0.295-3.89
		c-0.078-0.173-0.193-0.302-0.336-0.39c-0.145-0.086-0.326-0.164-0.543-0.232c-0.096-0.035-0.174-0.078-0.244-0.13
		s-0.105-0.107-0.105-0.164c0-0.059,0.043-0.122,0.131-0.19c0.088-0.07,0.219-0.104,0.391-0.104c0.266,0,0.584,0.02,0.959,0.061
		c0.373,0.041,0.736,0.077,1.08,0.111c0.666,0.023,1.309,0.023,1.912,0s1.217-0.057,1.84-0.104c0.197-0.023,0.357-0.055,0.486-0.094
		C104.356,88.773,104.466,88.724,104.56,88.667z M104.353,93.319c0.068,0,0.131-0.034,0.188-0.104v-3.58c-0.354,0-0.754,0-1.191,0
		s-0.873,0.007-1.307,0.019c-0.432,0.011-0.834,0.025-1.211,0.043c-0.373,0.018-0.678,0.031-0.906,0.043
		c-0.012,0.127-0.016,0.216-0.016,0.269c0,0.052,0,0.095,0,0.13v3.216c0.193,0,0.496,0,0.904,0c0.41,0,0.84,0,1.291,0
		c0.447,0,0.881-0.003,1.297-0.009C103.815,93.338,104.132,93.33,104.353,93.319z M105.804,80.47v3.511
		c0.094-0.012,0.18-0.018,0.26-0.018s0.145,0,0.191,0c0.256-0.023,0.48-0.074,0.682-0.154c0.203-0.082,0.344-0.174,0.424-0.277
		c0.162,0,0.367,0.008,0.615,0.023c0.246,0.02,0.469,0.039,0.664,0.063c0.334,0.058,0.502,0.225,0.502,0.501
		c0,0.3-0.201,0.45-0.604,0.45c-0.418,0.012-0.869,0.02-1.359,0.025c-0.488,0.006-0.949,0.015-1.375,0.027v0.741
		c0,0.187-0.004,0.434-0.01,0.744c-0.004,0.312-0.031,0.617-0.074,0.917c-0.049,0.301-0.121,0.561-0.217,0.779
		c-0.1,0.218-0.242,0.328-0.428,0.328c-0.266,0-0.396-0.49-0.396-1.471v-5.861c0-0.207-0.105-0.398-0.318-0.572
		c-0.213-0.172-0.531-0.34-0.959-0.5c-0.094-0.047-0.174-0.09-0.236-0.131c-0.061-0.04-0.09-0.089-0.09-0.146
		c0-0.059,0.039-0.12,0.125-0.189c0.088-0.07,0.219-0.104,0.393-0.104c0.078,0,0.227,0.012,0.447,0.034
		c0.223,0.023,0.453,0.057,0.701,0.096c0.248,0.041,0.482,0.084,0.699,0.129c0.221,0.047,0.363,0.088,0.434,0.122L105.804,80.47z"/>
	<path fill="#FFFFFF" d="M110.769,90.413c-0.096,0.07-0.188,0.107-0.277,0.112c-0.092,0.007-0.168-0.011-0.227-0.05
		c-0.057-0.042-0.084-0.099-0.076-0.174c0.006-0.076,0.059-0.164,0.164-0.269c0.484-0.461,0.967-0.981,1.451-1.565
		c0.486-0.581,0.932-1.184,1.34-1.807c0.41-0.623,0.773-1.248,1.09-1.875c0.318-0.629,0.557-1.232,0.719-1.807
		c0.023-0.048,0.039-0.105,0.051-0.175c0.014-0.069,0.018-0.114,0.018-0.138c0.012-0.092-0.072-0.219-0.25-0.381
		c-0.18-0.16-0.447-0.3-0.805-0.416c-0.205-0.068-0.301-0.166-0.273-0.292c0-0.069,0.035-0.13,0.119-0.183
		c0.078-0.051,0.188-0.076,0.326-0.076c0.141,0,0.334,0.025,0.59,0.076c0.252,0.053,0.512,0.116,0.77,0.191
		c0.258,0.074,0.494,0.152,0.707,0.232c0.213,0.082,0.357,0.15,0.426,0.209c-0.012,0.057-0.033,0.137-0.061,0.24
		c-0.029,0.104-0.061,0.213-0.096,0.33c-0.127,0.402-0.283,0.824-0.465,1.262c-0.186,0.438-0.412,0.881-0.676,1.332
		c0.102,0.103,0.236,0.238,0.396,0.406c0.158,0.167,0.326,0.34,0.5,0.519c0.176,0.178,0.34,0.345,0.494,0.501
		c0.154,0.155,0.281,0.269,0.371,0.337c0.092,0.069,0.191,0.139,0.295,0.207c0.104,0.069,0.203,0.122,0.293,0.157
		c0.131,0.046,0.227,0.089,0.297,0.129c0.066,0.041,0.131,0.101,0.189,0.182c0.266,0.381,0.473,0.715,0.623,1.003
		s0.246,0.616,0.293,0.985c0.035,0.231-0.07,0.357-0.313,0.38c-0.17,0.013-0.432-0.196-0.777-0.622l-3.043-3.597
		c-0.566,0.899-1.213,1.759-1.947,2.577C112.274,89.174,111.528,89.86,110.769,90.413z M122.63,80.47v10.063
		c0,0.151,0,0.353,0,0.605c0,0.255-0.006,0.53-0.018,0.83c-0.014,0.301-0.035,0.603-0.07,0.907
		c-0.035,0.306-0.076,0.583-0.129,0.831s-0.121,0.449-0.209,0.605c-0.086,0.156-0.193,0.232-0.318,0.232
		c-0.254,0-0.379-0.715-0.379-2.145V80.799c0-0.207-0.107-0.398-0.32-0.572c-0.215-0.172-0.535-0.34-0.961-0.5
		c-0.092-0.047-0.168-0.09-0.232-0.131c-0.064-0.04-0.096-0.089-0.096-0.146c0-0.059,0.043-0.12,0.129-0.189
		c0.088-0.07,0.217-0.104,0.391-0.104c0.082,0,0.23,0.012,0.449,0.034c0.219,0.023,0.453,0.057,0.699,0.096
		c0.248,0.041,0.482,0.084,0.701,0.129c0.219,0.047,0.363,0.088,0.432,0.122L122.63,80.47z"/>
	<path fill="#FFFFFF" d="M128.147,87.975c-0.152-0.012-0.314-0.043-0.492-0.096c-0.182-0.053-0.361-0.111-0.541-0.182
		c-0.178-0.068-0.348-0.146-0.518-0.232c-0.168-0.088-0.305-0.176-0.424-0.268c-0.08-0.059-0.139-0.122-0.18-0.191
		c-0.041-0.068-0.063-0.131-0.063-0.189c0-0.173,0.182-0.23,0.537-0.173c0.334,0.058,0.684,0.101,1.047,0.129
		s0.748,0.044,1.15,0.044c1.441,0,2.857-0.018,4.244-0.053c1.391-0.034,2.648-0.079,3.777-0.138
		c0.428-0.023,0.771-0.061,1.031-0.112c0.26-0.053,0.486-0.141,0.682-0.268c0.23,0.011,0.488,0.033,0.771,0.068
		c0.279,0.035,0.549,0.082,0.803,0.14c0.426,0.079,0.639,0.247,0.639,0.5c0,0.323-0.213,0.484-0.639,0.484
		c-0.104,0-0.301-0.009-0.598-0.026c-0.293-0.018-0.578-0.037-0.854-0.061c-0.176-0.011-0.428-0.018-0.762-0.018s-0.746,0-1.229,0
		c-0.541,0.012-1.113,0.024-1.713,0.035c-0.598,0.012-1.201,0.029-1.805,0.051c-0.604,0.024-1.209,0.048-1.807,0.071
		c-0.6,0.022-1.178,0.046-1.73,0.069c-0.23,0.023-0.461,0.066-0.689,0.129C128.554,87.753,128.343,87.848,128.147,87.975z
		 M136.706,82.182c0.219,0.035,0.361,0.082,0.422,0.139c0.063,0.057,0.096,0.132,0.096,0.225c0,0.266-0.189,0.397-0.57,0.397
		l-6.207,0.122v1.313c0,0.289,0.15,0.434,0.449,0.434l3.82-0.018c0.322,0,0.6-0.046,0.822-0.139
		c0.227-0.092,0.389-0.184,0.494-0.277c0.299,0.024,0.555,0.048,0.768,0.069c0.213,0.024,0.418,0.06,0.615,0.104
		c0.299,0.07,0.449,0.225,0.449,0.467c0,0.287-0.207,0.433-0.621,0.433l-6.607,0.017c-0.898,0-1.35-0.444-1.35-1.332v-0.847
		c-0.16-0.265-0.477-0.455-0.951-0.57c-0.217-0.046-0.326-0.126-0.326-0.242c0-0.08,0.041-0.149,0.129-0.208
		c0.086-0.057,0.221-0.086,0.406-0.086c0.311,0,0.59,0.01,0.842,0.025c0.244,0.018,0.461,0.051,0.645,0.096
		c0.047,0.012,0.1,0.032,0.164,0.061c0.064,0.029,0.123,0.055,0.184,0.077c0.367-0.011,0.779-0.022,1.234-0.034
		c0.457-0.011,0.918-0.02,1.383-0.025c0.469-0.006,0.926-0.016,1.377-0.025c0.447-0.014,0.857-0.023,1.23-0.035
		c0.064,0,0.129-0.035,0.186-0.104v-1.711c-0.217,0-0.527,0.002-0.934,0.008c-0.402,0.006-0.828,0.014-1.27,0.025
		c-0.443,0.012-0.871,0.025-1.281,0.044c-0.408,0.017-0.725,0.036-0.941,0.06c-0.266,0.023-0.508,0.072-0.727,0.146
		c-0.221,0.076-0.434,0.17-0.641,0.285c-0.158-0.034-0.328-0.088-0.502-0.164c-0.172-0.075-0.336-0.152-0.492-0.233
		s-0.293-0.157-0.414-0.233c-0.123-0.074-0.211-0.135-0.268-0.182c-0.07-0.068-0.104-0.145-0.104-0.225
		c0-0.16,0.146-0.213,0.449-0.155c0.299,0.046,0.59,0.072,0.863,0.078c0.277,0.006,0.549,0.009,0.814,0.009c0.229,0,0.541,0,0.932,0
		c0.393,0,0.809-0.007,1.246-0.018c0.439-0.012,0.877-0.021,1.316-0.026c0.438-0.006,0.816-0.021,1.141-0.043
		c0.207-0.011,0.387-0.046,0.545-0.103c0.154-0.059,0.26-0.105,0.32-0.139c0.148,0,0.322,0.007,0.525,0.025
		c0.203,0.018,0.367,0.037,0.492,0.061c0.195,0.045,0.301,0.115,0.313,0.208c0.012,0.091,0.006,0.183-0.018,0.274
		c-0.025,0.163-0.059,0.311-0.105,0.442c-0.047,0.133-0.09,0.302-0.137,0.511L136.706,82.182z M137.034,91.226
		c0.219,0.046,0.371,0.106,0.459,0.181c0.086,0.076,0.127,0.158,0.127,0.252c0,0.254-0.213,0.392-0.639,0.414l-6.242,0.121v1.418
		c0,0.289,0.148,0.432,0.449,0.432l3.979-0.016c0.32,0,0.598-0.047,0.822-0.139c0.225-0.093,0.389-0.186,0.492-0.277
		c0.299,0,0.58,0.016,0.848,0.043c0.264,0.029,0.492,0.066,0.691,0.113c0.299,0.092,0.447,0.252,0.447,0.484
		c0,0.288-0.205,0.432-0.619,0.432l-6.92,0.02c-0.449,0-0.787-0.1-1.01-0.295c-0.225-0.197-0.338-0.514-0.338-0.951v-1.038
		c-0.162-0.265-0.479-0.455-0.953-0.571c-0.217-0.046-0.328-0.125-0.328-0.242c0-0.08,0.045-0.148,0.131-0.207
		c0.088-0.059,0.223-0.086,0.406-0.086c0.311,0,0.592,0.009,0.84,0.025c0.248,0.018,0.463,0.049,0.648,0.096
		c0.045,0.01,0.102,0.031,0.164,0.061c0.063,0.027,0.125,0.055,0.182,0.077c0.369-0.011,0.779-0.022,1.236-0.034
		c0.453-0.012,0.922-0.021,1.398-0.025c0.48-0.006,0.945-0.016,1.395-0.027c0.447-0.012,0.857-0.021,1.227-0.035
		c0.07,0,0.133-0.034,0.191-0.103v-1.763c-0.219,0-0.531,0.002-0.934,0.007c-0.404,0.006-0.832,0.015-1.279,0.026
		c-0.451,0.012-0.883,0.026-1.297,0.043c-0.416,0.018-0.734,0.037-0.953,0.061c-0.264,0.023-0.508,0.072-0.727,0.148
		c-0.219,0.074-0.434,0.17-0.639,0.285c-0.162-0.036-0.33-0.09-0.5-0.166c-0.176-0.074-0.338-0.152-0.494-0.232
		c-0.154-0.08-0.295-0.159-0.414-0.234c-0.123-0.074-0.211-0.135-0.266-0.182c-0.072-0.068-0.107-0.143-0.107-0.224
		c0-0.161,0.148-0.214,0.449-0.155c0.301,0.046,0.588,0.072,0.867,0.078c0.275,0.006,0.545,0.009,0.811,0.009
		c0.23,0,0.543,0,0.934,0c0.393,0,0.811-0.006,1.256-0.018c0.439-0.013,0.883-0.021,1.322-0.026
		c0.438-0.006,0.816-0.021,1.139-0.043c0.207-0.012,0.391-0.047,0.545-0.104c0.158-0.059,0.264-0.105,0.322-0.14
		c0.148,0,0.324,0.009,0.525,0.026c0.201,0.017,0.365,0.037,0.494,0.061c0.195,0.047,0.299,0.115,0.311,0.207
		c0.014,0.092,0.008,0.186-0.018,0.277c-0.021,0.16-0.061,0.311-0.111,0.449c-0.053,0.139-0.094,0.306-0.131,0.502L137.034,91.226z"
		/>
	<path fill="#FFFFFF" d="M151.04,83.635c0,0.357,0.15,0.523,0.451,0.5l4.045-0.104c0.264-0.021,0.508-0.074,0.727-0.154
		c0.221-0.082,0.357-0.162,0.416-0.242c0.23,0,0.48,0.008,0.752,0.026c0.27,0.017,0.52,0.048,0.754,0.095
		c0.344,0.057,0.518,0.213,0.518,0.466c0,0.301-0.209,0.45-0.625,0.45l-3.51,0.052v1.815c0.521-0.022,1.016-0.043,1.496-0.06
		c0.48-0.019,0.936-0.038,1.375-0.062c0.426-0.021,0.768-0.061,1.029-0.111c0.26-0.053,0.486-0.142,0.684-0.27
		c0.23,0.014,0.486,0.035,0.77,0.069c0.281,0.035,0.551,0.081,0.805,0.14c0.426,0.08,0.639,0.246,0.639,0.5
		c0,0.323-0.213,0.484-0.639,0.484c-0.105,0-0.303-0.008-0.596-0.025c-0.295-0.018-0.58-0.037-0.859-0.061
		c-0.172-0.012-0.428-0.018-0.76-0.018c-0.334,0-0.744,0-1.227,0c-0.543,0.012-1.113,0.023-1.713,0.034
		c-0.598,0.013-1.201,0.03-1.807,0.054c-0.605,0.021-1.209,0.045-1.807,0.068c-0.6,0.023-1.178,0.045-1.73,0.068
		c-0.229,0.023-0.461,0.066-0.691,0.13s-0.443,0.159-0.641,0.286c-0.148-0.012-0.313-0.045-0.492-0.096
		c-0.178-0.051-0.357-0.111-0.535-0.181c-0.18-0.071-0.35-0.147-0.518-0.233c-0.168-0.088-0.311-0.176-0.426-0.27
		c-0.08-0.057-0.141-0.121-0.18-0.189c-0.041-0.069-0.061-0.132-0.061-0.19c0-0.173,0.176-0.229,0.535-0.173
		c0.334,0.057,0.682,0.102,1.045,0.13c0.361,0.028,0.746,0.043,1.15,0.043c1.369,0,2.711-0.018,4.014-0.052v-1.816l-2.25,0.035
		c-0.875,0.023-1.313-0.467-1.313-1.471v-1.918c0-0.277-0.441-0.523-1.316-0.744c-0.229-0.057-0.344-0.145-0.344-0.259
		c0-0.093,0.039-0.179,0.119-0.259c0.082-0.08,0.201-0.128,0.365-0.14c0.205-0.011,0.426-0.011,0.654,0
		c0.23,0.012,0.451,0.029,0.66,0.052c0.205,0.023,0.396,0.053,0.566,0.088c0.176,0.033,0.307,0.068,0.402,0.102
		c0.736-0.021,1.443-0.039,2.117-0.051s1.375-0.029,2.1-0.051c0.244,0,0.463-0.035,0.658-0.105c0.195-0.068,0.357-0.166,0.484-0.293
		c0.229,0,0.473,0.008,0.727,0.025c0.252,0.018,0.494,0.049,0.725,0.096c0.346,0.057,0.52,0.219,0.52,0.483
		c0,0.301-0.207,0.45-0.623,0.45c-1.15,0.011-2.26,0.023-3.32,0.035c-1.061,0.01-2.166,0.029-3.32,0.051V83.635z M157.042,88.424
		c0.148,0,0.307,0.007,0.475,0.018c0.168,0.012,0.314,0.029,0.441,0.053c0.186,0.023,0.293,0.074,0.32,0.154
		c0.029,0.082,0.031,0.186,0.01,0.313c-0.035,0.149-0.078,0.283-0.123,0.396c-0.049,0.116-0.082,0.236-0.104,0.363
		c-0.045,0.22-0.086,0.434-0.121,0.641s-0.076,0.421-0.121,0.639c0.404,0.082,0.604,0.226,0.604,0.434
		c0,0.254-0.213,0.392-0.639,0.414l-6.348,0.121v1.488c0,0.287,0.154,0.432,0.451,0.432l4.08-0.018c0.324,0,0.596-0.046,0.822-0.138
		c0.225-0.093,0.389-0.185,0.494-0.276c0.299,0,0.58,0.014,0.846,0.043c0.266,0.027,0.496,0.066,0.689,0.111
		c0.303,0.092,0.451,0.254,0.451,0.484c0,0.289-0.207,0.433-0.621,0.433l-7.02,0.017c-0.9,0-1.352-0.442-1.352-1.331v-1.021
		c-0.158-0.264-0.475-0.455-0.947-0.569c-0.223-0.046-0.33-0.128-0.33-0.243c0-0.08,0.043-0.149,0.129-0.207
		c0.088-0.057,0.221-0.086,0.406-0.086c0.313,0,0.592,0.008,0.838,0.026c0.25,0.017,0.465,0.049,0.65,0.095
		c0.045,0.012,0.1,0.031,0.162,0.061c0.063,0.027,0.127,0.054,0.184,0.077c0.367-0.011,0.785-0.023,1.254-0.034
		c0.467-0.012,0.945-0.02,1.434-0.026c0.49-0.006,0.965-0.015,1.428-0.026c0.461-0.011,0.873-0.022,1.244-0.034
		c0.07,0,0.133-0.034,0.191-0.104V89.29c-0.219,0-0.537,0.002-0.953,0.009c-0.412,0.007-0.854,0.015-1.313,0.026
		c-0.463,0.012-0.906,0.025-1.33,0.043c-0.428,0.016-0.752,0.037-0.969,0.061c-0.266,0.021-0.508,0.071-0.727,0.146
		c-0.219,0.076-0.436,0.17-0.641,0.285c-0.16-0.035-0.328-0.088-0.502-0.164c-0.172-0.075-0.336-0.153-0.492-0.233
		c-0.156-0.081-0.295-0.157-0.416-0.234c-0.121-0.074-0.211-0.135-0.27-0.18c-0.066-0.07-0.1-0.146-0.1-0.227
		c0-0.16,0.148-0.212,0.447-0.154c0.301,0.045,0.588,0.071,0.865,0.077s0.547,0.008,0.813,0.008c0.23,0,0.549,0,0.961,0
		c0.408,0,0.844-0.005,1.303-0.017c0.461-0.012,0.92-0.021,1.377-0.025c0.453-0.006,0.844-0.021,1.168-0.043
		c0.205-0.012,0.395-0.046,0.561-0.104C156.87,88.506,156.983,88.458,157.042,88.424z"/>
	<path fill="#FFFFFF" d="M164.704,89.428c0.539-0.023,1.146-0.072,1.822-0.146c0.676-0.076,1.367-0.159,2.084-0.251
		c0.045-0.254,0.1-0.589,0.164-1.004c0.063-0.415,0.121-0.839,0.174-1.271c0.051-0.434,0.096-0.842,0.127-1.229
		c0.037-0.385,0.061-0.678,0.07-0.873c-0.023-0.104-0.135-0.213-0.338-0.33c-0.201-0.113-0.387-0.206-0.561-0.275
		c-0.242-0.104-0.336-0.213-0.277-0.329c0.057-0.114,0.201-0.167,0.43-0.154c0.166,0.011,0.352,0.032,0.564,0.061
		s0.42,0.066,0.621,0.111c0.203,0.047,0.385,0.096,0.545,0.147c0.162,0.053,0.277,0.1,0.348,0.146
		c-0.059,0.244-0.131,0.574-0.217,0.995s-0.18,0.868-0.285,1.339c-0.104,0.475-0.209,0.938-0.311,1.393
		c-0.105,0.455-0.201,0.839-0.293,1.15c0.713-0.104,1.396-0.213,2.047-0.328c0.652-0.115,1.232-0.231,1.74-0.346v-7.436
		c0-0.207-0.107-0.398-0.322-0.572c-0.211-0.172-0.531-0.34-0.959-0.5c-0.092-0.047-0.17-0.09-0.232-0.131
		c-0.066-0.04-0.096-0.089-0.096-0.146c0-0.059,0.041-0.12,0.129-0.189c0.088-0.07,0.215-0.104,0.389-0.104
		c0.082,0,0.232,0.012,0.451,0.034c0.219,0.023,0.451,0.057,0.699,0.096c0.248,0.041,0.482,0.084,0.701,0.129
		c0.221,0.047,0.359,0.088,0.43,0.122l-0.07,0.934v5.067c0.096-0.012,0.182-0.019,0.264-0.019c0.078,0,0.143,0,0.191,0
		c0.252-0.023,0.479-0.073,0.682-0.156c0.201-0.079,0.344-0.171,0.424-0.275c0.16,0,0.365,0.009,0.613,0.025
		c0.248,0.019,0.469,0.038,0.664,0.06c0.334,0.059,0.504,0.227,0.504,0.503c0,0.3-0.199,0.448-0.605,0.448
		c-0.418,0.013-0.867,0.021-1.359,0.027c-0.488,0.006-0.947,0.015-1.377,0.026v4.356c0,0.151,0,0.353,0,0.605
		c0,0.255-0.004,0.53-0.014,0.83c-0.012,0.301-0.033,0.603-0.068,0.907c-0.035,0.306-0.08,0.583-0.131,0.831
		s-0.121,0.449-0.207,0.605c-0.088,0.156-0.193,0.232-0.32,0.232c-0.256,0-0.379-0.715-0.379-2.145v-3.543
		c-0.484,0.137-1.047,0.276-1.678,0.414c-0.635,0.139-1.295,0.274-1.98,0.406c-0.688,0.133-1.369,0.254-2.051,0.364
		c-0.68,0.108-1.303,0.198-1.869,0.267c-0.287,0.047-0.533,0.099-0.742,0.156c-0.205,0.058-0.42,0.162-0.639,0.312
		c-0.148-0.046-0.307-0.104-0.467-0.173c-0.162-0.07-0.316-0.145-0.467-0.225c-0.15-0.082-0.287-0.166-0.414-0.252
		c-0.127-0.085-0.232-0.164-0.313-0.232c-0.104-0.08-0.154-0.18-0.154-0.295c0-0.195,0.154-0.27,0.467-0.225
		C163.438,89.446,164.056,89.462,164.704,89.428z M164.425,83.325c-0.264-0.047-0.543-0.137-0.828-0.27
		c-0.291-0.133-0.545-0.279-0.762-0.441c-0.197-0.138-0.295-0.271-0.295-0.396c0-0.15,0.156-0.208,0.465-0.174
		c0.244,0.034,0.529,0.061,0.857,0.078s0.672,0.02,1.029,0.009c0.67-0.011,1.277-0.036,1.824-0.077s1.094-0.084,1.635-0.131
		c0.369-0.035,0.67-0.08,0.898-0.139c0.23-0.057,0.439-0.149,0.623-0.275c0.209,0.012,0.428,0.031,0.666,0.06
		c0.236,0.029,0.451,0.066,0.648,0.112c0.381,0.092,0.57,0.272,0.57,0.537c0,0.357-0.189,0.535-0.57,0.535
		c-0.092,0-0.26-0.008-0.502-0.025c-0.24-0.018-0.482-0.037-0.729-0.061c-0.195-0.023-0.447-0.037-0.758-0.043
		c-0.313-0.006-0.639,0.002-0.986,0.025c-0.254,0.012-0.48,0.026-0.682,0.043c-0.203,0.018-0.406,0.037-0.607,0.061
		s-0.404,0.047-0.613,0.069c-0.207,0.023-0.449,0.052-0.729,0.086c-0.193,0.023-0.391,0.067-0.584,0.13
		C164.802,83.102,164.61,83.197,164.425,83.325z M165.86,88.702c-0.129,0.092-0.244,0.12-0.346,0.086
		c-0.105-0.035-0.154-0.12-0.154-0.26c0-0.276-0.021-0.588-0.063-0.934s-0.088-0.697-0.146-1.055s-0.129-0.693-0.217-1.012
		c-0.086-0.316-0.168-0.579-0.252-0.787c-0.033-0.092-0.041-0.169-0.025-0.232c0.018-0.063,0.057-0.106,0.113-0.131
		c0.061-0.021,0.123-0.025,0.197-0.008c0.078,0.018,0.148,0.066,0.219,0.146c0.102,0.105,0.223,0.271,0.361,0.502
		c0.139,0.231,0.281,0.488,0.426,0.77c0.141,0.283,0.277,0.582,0.396,0.899c0.121,0.316,0.211,0.62,0.27,0.907
		c-0.07,0.196-0.188,0.406-0.346,0.632C166.132,88.45,165.987,88.61,165.86,88.702z"/>
	<path fill="#FFFFFF" d="M180.179,84.102c-0.23-0.035-0.492-0.121-0.787-0.26c-0.293-0.139-0.539-0.289-0.734-0.449
		c-0.139-0.115-0.195-0.236-0.174-0.363c0.012-0.058,0.045-0.109,0.104-0.156c0.059-0.045,0.162-0.058,0.313-0.034
		c0.242,0.046,0.525,0.081,0.855,0.104c0.328,0.023,0.643,0.036,0.941,0.036c0.326,0,0.662-0.007,1.023-0.018
		c0.355-0.013,0.707-0.023,1.053-0.036c0.344-0.011,0.676-0.025,0.996-0.043c0.316-0.018,0.588-0.031,0.82-0.043
		c0.324-0.035,0.602-0.072,0.838-0.112c0.236-0.041,0.436-0.123,0.598-0.251c0.16,0.012,0.365,0.03,0.613,0.052
		c0.244,0.023,0.463,0.059,0.646,0.104c0.336,0.094,0.504,0.26,0.504,0.502c0,0.357-0.168,0.536-0.504,0.536
		c-0.078,0-0.246-0.012-0.5-0.034c-0.256-0.023-0.482-0.046-0.693-0.069c-0.172-0.022-0.41-0.032-0.715-0.026
		c-0.307,0.006-0.609,0.008-0.91,0.008c-0.229,0-0.479,0.006-0.744,0.019c-0.266,0.011-0.533,0.026-0.809,0.043
		c-0.279,0.018-0.557,0.034-0.832,0.053c-0.277,0.017-0.527,0.037-0.762,0.059c-0.186,0.024-0.379,0.062-0.59,0.113
		C180.524,83.885,180.341,83.975,180.179,84.102z M180.11,87.439c0-0.393,0.08-0.761,0.24-1.106
		c0.162-0.346,0.389-0.648,0.684-0.908c0.293-0.26,0.641-0.464,1.039-0.613c0.396-0.15,0.84-0.226,1.322-0.226
		s0.924,0.075,1.32,0.226c0.398,0.149,0.744,0.354,1.039,0.613c0.293,0.26,0.521,0.563,0.684,0.908s0.242,0.714,0.242,1.106
		c0,0.392-0.08,0.765-0.242,1.114c-0.162,0.354-0.387,0.664-0.674,0.935s-0.635,0.485-1.039,0.64
		c-0.402,0.156-0.848,0.234-1.33,0.234s-0.93-0.078-1.334-0.234c-0.404-0.154-0.748-0.369-1.033-0.64
		c-0.291-0.271-0.516-0.581-0.678-0.935C180.19,88.204,180.11,87.831,180.11,87.439z M185.212,81.319
		c0,0.137-0.08,0.255-0.236,0.353c-0.154,0.099-0.33,0.147-0.525,0.147c-0.127,0-0.295,0-0.502,0c-0.209,0-0.424,0.004-0.65,0.008
		c-0.223,0.008-0.441,0.012-0.656,0.018c-0.213,0.008-0.387,0.016-0.525,0.025c-0.094-0.033-0.195-0.082-0.305-0.146
		c-0.111-0.063-0.223-0.136-0.336-0.216c-0.117-0.08-0.223-0.164-0.32-0.252c-0.098-0.086-0.17-0.164-0.215-0.232
		c-0.08-0.104-0.092-0.199-0.035-0.285c0.055-0.087,0.189-0.106,0.396-0.062c0.092,0.023,0.232,0.047,0.418,0.069
		c0.18,0.023,0.342,0.046,0.48,0.07c0.119,0.021,0.266,0.037,0.451,0.042c0.186,0.007,0.381,0.013,0.586,0.018
		c0.209,0.006,0.42,0.009,0.635,0.009c0.213,0,0.416,0,0.613,0C184.968,80.885,185.212,81.03,185.212,81.319z M181.284,87.439
		c0,0.288,0.053,0.558,0.156,0.805c0.105,0.247,0.25,0.467,0.443,0.657c0.189,0.189,0.408,0.34,0.664,0.449
		c0.254,0.109,0.535,0.164,0.848,0.164s0.592-0.055,0.846-0.164s0.475-0.26,0.668-0.449c0.189-0.19,0.338-0.41,0.441-0.657
		c0.102-0.247,0.152-0.517,0.152-0.805c0-0.277-0.051-0.54-0.152-0.787c-0.104-0.247-0.252-0.464-0.441-0.647
		c-0.193-0.185-0.414-0.332-0.668-0.441s-0.533-0.164-0.846-0.164s-0.594,0.055-0.848,0.164c-0.256,0.109-0.475,0.257-0.664,0.441
		c-0.193,0.184-0.338,0.4-0.443,0.647C181.337,86.899,181.284,87.162,181.284,87.439z M190.19,80.47v5.309
		c0.092-0.012,0.18-0.017,0.262-0.017c0.078,0,0.141,0,0.189,0c0.252-0.023,0.479-0.076,0.682-0.156
		c0.201-0.08,0.344-0.173,0.422-0.277c0.164,0,0.367,0.01,0.615,0.026c0.248,0.018,0.471,0.038,0.666,0.061
		c0.336,0.059,0.502,0.226,0.502,0.501c0,0.301-0.201,0.449-0.605,0.449c-0.416,0.014-0.869,0.021-1.357,0.027
		c-0.49,0.006-0.949,0.014-1.375,0.025v4.115c0,0.151,0,0.353,0,0.605c0,0.255-0.004,0.53-0.018,0.83
		c-0.012,0.301-0.033,0.603-0.068,0.907c-0.035,0.306-0.078,0.583-0.129,0.831c-0.053,0.248-0.121,0.449-0.209,0.605
		c-0.084,0.156-0.193,0.232-0.318,0.232c-0.254,0-0.381-0.715-0.381-2.145V80.799c0-0.207-0.105-0.398-0.32-0.572
		c-0.215-0.172-0.535-0.34-0.959-0.5c-0.092-0.047-0.172-0.09-0.234-0.131c-0.061-0.04-0.096-0.089-0.096-0.146
		c0-0.059,0.045-0.12,0.129-0.189c0.088-0.07,0.219-0.104,0.391-0.104c0.078,0,0.229,0.012,0.449,0.034
		c0.219,0.023,0.451,0.057,0.699,0.096c0.25,0.041,0.482,0.084,0.703,0.129c0.217,0.047,0.361,0.088,0.43,0.122L190.19,80.47z"/>
	<path fill="#FFFFFF" d="M196.622,88.495c-0.146-0.012-0.314-0.045-0.49-0.096c-0.182-0.053-0.361-0.113-0.539-0.182
		c-0.176-0.07-0.35-0.147-0.52-0.234c-0.164-0.085-0.307-0.176-0.422-0.268c-0.08-0.057-0.143-0.121-0.182-0.19
		c-0.039-0.068-0.061-0.131-0.061-0.19c0-0.173,0.182-0.23,0.537-0.173c0.334,0.058,0.682,0.103,1.047,0.13
		c0.361,0.029,0.746,0.043,1.148,0.043c1.443,0,2.855-0.016,4.246-0.051c1.389-0.035,2.648-0.081,3.777-0.139
		c0.428-0.023,0.771-0.061,1.029-0.112c0.26-0.052,0.488-0.142,0.684-0.269c0.232,0.012,0.488,0.035,0.768,0.07
		c0.283,0.033,0.553,0.08,0.807,0.138c0.426,0.081,0.639,0.247,0.639,0.502c0,0.323-0.213,0.483-0.639,0.483
		c-0.105,0-0.303-0.009-0.596-0.025c-0.295-0.018-0.582-0.037-0.859-0.061c-0.172-0.012-0.424-0.018-0.76-0.018
		c-0.334,0-0.742,0-1.229,0c-0.541,0.012-1.111,0.022-1.711,0.035c-0.598,0.012-1.201,0.028-1.805,0.051
		c-0.607,0.023-1.209,0.047-1.811,0.07c-0.6,0.023-1.174,0.045-1.73,0.068c-0.229,0.023-0.459,0.066-0.688,0.13
		C197.032,88.272,196.819,88.367,196.622,88.495z M197.646,81.906c0-0.208-0.105-0.378-0.314-0.511
		c-0.207-0.132-0.525-0.273-0.949-0.424c-0.221-0.08-0.328-0.172-0.328-0.276c0-0.058,0.043-0.12,0.129-0.188
		c0.086-0.07,0.215-0.105,0.391-0.105c0.08,0,0.229,0.01,0.447,0.026s0.453,0.037,0.701,0.06c0.246,0.025,0.482,0.053,0.701,0.088
		c0.219,0.033,0.361,0.068,0.43,0.103l-0.068,0.935v2.299c0,0.324,0.15,0.484,0.453,0.484c1.426,0,2.85-0.018,4.27-0.053
		c0.219-0.01,0.43-0.052,0.639-0.12c0.209-0.069,0.367-0.155,0.484-0.259c0.332,0,0.658,0.014,0.977,0.043
		c0.316,0.029,0.557,0.066,0.719,0.112c0.115,0.048,0.211,0.106,0.283,0.183c0.076,0.074,0.113,0.164,0.113,0.268
		c0,0.288-0.207,0.438-0.623,0.449c-1.197,0.023-2.395,0.041-3.588,0.052s-2.391,0.018-3.588,0.018c-0.91,0-1.34-0.489-1.277-1.47
		V81.906z M198.024,91.399c0-0.207-0.105-0.377-0.311-0.51c-0.207-0.133-0.525-0.273-0.953-0.424
		c-0.219-0.08-0.328-0.174-0.328-0.277c0-0.057,0.045-0.121,0.133-0.19c0.086-0.068,0.215-0.103,0.387-0.103
		c0.08,0,0.23,0.008,0.449,0.025s0.451,0.037,0.701,0.061c0.246,0.023,0.482,0.052,0.701,0.086c0.217,0.035,0.361,0.07,0.434,0.104
		l-0.072,0.934v1.903c0,0.322,0.146,0.483,0.449,0.483c0.727,0,1.443-0.006,2.145-0.016c0.703-0.013,1.418-0.03,2.145-0.054
		c0.217-0.011,0.432-0.051,0.639-0.12c0.209-0.069,0.371-0.155,0.484-0.26c0.334,0,0.662,0.015,0.979,0.043
		c0.316,0.029,0.557,0.066,0.717,0.113c0.117,0.045,0.211,0.106,0.285,0.182c0.076,0.074,0.113,0.164,0.113,0.268
		c0,0.289-0.209,0.438-0.623,0.449c-1.209,0.023-2.41,0.044-3.596,0.061c-1.189,0.018-2.387,0.026-3.6,0.026
		c-0.906,0-1.336-0.49-1.277-1.47V91.399z"/>
</g>
<g>
	<path fill="#FFFFFF" d="M13.07,108.394c-0.451,0.823-0.924,1.593-1.424,2.308c-0.502,0.715-1.008,1.396-1.516,2.043
		c0.256,0.216,0.574,0.465,0.955,0.749c0.383,0.284,0.68,0.495,0.898,0.633c0.137,0.077,0.293,0.157,0.471,0.235
		c0.174,0.078,0.342,0.137,0.498,0.176c0.334,0.059,0.6,0.187,0.793,0.383c0.334,0.373,0.627,0.744,0.881,1.116
		c0.256,0.373,0.463,0.677,0.619,0.911c0.098,0.178,0.174,0.338,0.221,0.486c0.049,0.146,0.092,0.279,0.133,0.396
		c0.098,0.334-0.061,0.549-0.471,0.646c-0.215,0.02-0.629-0.255-1.236-0.823l-4.469-4.087c-1.293,1.471-2.648,2.754-4.07,3.852
		c-1.42,1.098-2.895,2.088-4.424,2.969c-0.215,0.118-0.4,0.167-0.559,0.148c-0.156-0.021-0.264-0.079-0.322-0.178
		c-0.061-0.098-0.063-0.225-0.016-0.381c0.049-0.157,0.17-0.295,0.369-0.412c1.998-1.354,3.906-2.994,5.73-4.926
		c1.822-1.929,3.361-4.158,4.619-6.687c-0.338,0.021-0.703,0.034-1.105,0.045c-0.402,0.009-0.818,0.024-1.248,0.044
		c-0.434,0.02-0.854,0.039-1.264,0.058c-0.412,0.02-0.785,0.05-1.117,0.089c-0.395,0.039-0.762,0.107-1.102,0.206
		c-0.346,0.099-0.674,0.245-0.988,0.44c-0.234-0.058-0.49-0.143-0.764-0.25s-0.539-0.221-0.795-0.338
		c-0.252-0.117-0.479-0.24-0.672-0.367c-0.199-0.127-0.334-0.23-0.416-0.309c-0.113-0.119-0.174-0.244-0.174-0.383
		c0-0.274,0.225-0.362,0.676-0.264c0.451,0.078,0.881,0.123,1.293,0.131c0.41,0.01,0.813,0.016,1.207,0.016
		c0.352,0,0.779-0.006,1.275-0.016c0.5-0.008,1.029-0.028,1.588-0.059c0.561-0.027,1.123-0.053,1.691-0.072s1.09-0.049,1.559-0.088
		c0.313-0.021,0.588-0.078,0.824-0.177c0.234-0.099,0.4-0.178,0.5-0.235c0.174,0,0.404,0.01,0.691,0.029
		c0.281,0.02,0.561,0.049,0.834,0.088c0.354,0.059,0.531,0.206,0.531,0.44c0,0.218-0.035,0.388-0.102,0.515
		c-0.07,0.128-0.145,0.25-0.223,0.367c-0.059,0.1-0.129,0.188-0.207,0.266C13.172,108.208,13.111,108.295,13.07,108.394z
		 M8.131,122.798c0-0.353-0.176-0.642-0.529-0.867c-0.35-0.225-0.889-0.464-1.617-0.72c-0.371-0.138-0.557-0.295-0.557-0.471
		c0-0.098,0.074-0.205,0.221-0.324c0.146-0.117,0.369-0.176,0.66-0.176c0.139,0,0.395,0.014,0.766,0.045
		c0.373,0.029,0.77,0.064,1.193,0.102c0.418,0.041,0.816,0.089,1.188,0.148c0.375,0.058,0.617,0.117,0.736,0.176l-0.119,1.587v4.351
		c0,0.549,0.256,0.824,0.766,0.824l6.172-0.03c0.371,0,0.736-0.064,1.09-0.191c0.352-0.127,0.625-0.278,0.82-0.454
		c0.57,0,1.123,0.023,1.66,0.072c0.541,0.049,0.945,0.112,1.223,0.191c0.197,0.078,0.357,0.182,0.482,0.309
		c0.129,0.127,0.191,0.279,0.191,0.455c0,0.529-0.354,0.794-1.057,0.794l-11.111,0.029c-1.545,0-2.275-0.833-2.178-2.497V122.798z
		 M20.598,105.336v12.729c0,0.313-0.006,0.733-0.018,1.263c-0.008,0.529-0.053,1.049-0.129,1.56
		c-0.078,0.509-0.203,0.95-0.369,1.322s-0.408,0.56-0.721,0.56c-0.451,0-0.674-0.834-0.674-2.5v-14.375
		c0-0.354-0.182-0.676-0.547-0.971c-0.361-0.294-0.904-0.578-1.629-0.852c-0.16-0.078-0.289-0.152-0.398-0.221
		c-0.107-0.068-0.16-0.151-0.16-0.25s0.074-0.206,0.219-0.324c0.148-0.115,0.369-0.176,0.662-0.176c0.137,0,0.393,0.02,0.764,0.061
		c0.373,0.039,0.77,0.092,1.191,0.161c0.424,0.067,0.818,0.142,1.189,0.22s0.619,0.146,0.734,0.205L20.598,105.336z"/>
	<path fill="#FFFFFF" d="M45.408,106.836v7.495c0,0.256-0.008,0.599-0.016,1.03c-0.008,0.43-0.055,0.855-0.131,1.277
		c-0.08,0.423-0.201,0.789-0.369,1.104c-0.164,0.313-0.406,0.469-0.719,0.469c-0.314,0-0.52-0.342-0.619-1.028l-3.877,0.06v5.527
		c1.566-0.021,3.104-0.08,4.613-0.178c0.746-0.039,1.342-0.111,1.793-0.221c0.451-0.106,0.852-0.27,1.203-0.484
		c0.395,0.02,0.838,0.059,1.34,0.117c0.5,0.059,0.975,0.138,1.426,0.235c0.744,0.157,1.117,0.461,1.117,0.911
		c0,0.607-0.373,0.912-1.117,0.912c-0.197,0-0.514-0.016-0.955-0.045s-0.977-0.073-1.602-0.132
		c-0.256-0.021-0.689-0.033-1.295-0.044c-0.609-0.01-1.342-0.015-2.203-0.015c-1.922,0.038-3.842,0.088-5.766,0.146
		c-1.92,0.059-3.859,0.138-5.82,0.235c-0.389,0.039-0.789,0.113-1.188,0.221c-0.402,0.107-0.779,0.27-1.133,0.484
		c-0.275-0.02-0.57-0.073-0.883-0.162c-0.311-0.087-0.625-0.195-0.939-0.322c-0.313-0.127-0.611-0.265-0.896-0.412
		c-0.285-0.146-0.533-0.299-0.752-0.455c-0.135-0.098-0.238-0.211-0.307-0.338c-0.07-0.128-0.102-0.24-0.102-0.338
		c0-0.295,0.313-0.393,0.941-0.295c0.566,0.098,1.176,0.172,1.822,0.221c0.645,0.049,1.32,0.074,2.027,0.074
		c1.193,0,2.35-0.006,3.469-0.016c1.117-0.01,2.205-0.025,3.262-0.045v-5.525l-4.174,0.088c-0.098,0.373-0.225,0.688-0.381,0.941
		s-0.373,0.381-0.648,0.381c-0.451,0-0.676-0.686-0.676-2.057v-8.202c0-0.354-0.182-0.642-0.543-0.867s-0.908-0.475-1.633-0.749
		c-0.158-0.078-0.287-0.152-0.395-0.221c-0.109-0.068-0.166-0.152-0.166-0.251s0.078-0.206,0.223-0.321
		c0.148-0.119,0.367-0.178,0.664-0.178c0.137,0,0.385,0.01,0.748,0.029c0.361,0.02,0.75,0.055,1.162,0.104
		c0.41,0.049,0.801,0.098,1.174,0.146s0.637,0.103,0.793,0.162l-0.117,1.587v2.058l9.732-0.147v-2.409
		c0-0.354-0.182-0.678-0.545-0.971s-0.908-0.578-1.631-0.854c-0.158-0.077-0.289-0.15-0.398-0.219
		c-0.105-0.068-0.162-0.152-0.162-0.251c0-0.098,0.076-0.206,0.221-0.323c0.148-0.117,0.369-0.176,0.662-0.176
		c0.137,0,0.391,0.019,0.764,0.059c0.373,0.039,0.77,0.093,1.191,0.162c0.422,0.068,0.818,0.141,1.191,0.22
		c0.371,0.078,0.617,0.147,0.734,0.206L45.408,106.836z M33.766,115.375c0,0.206-0.01,0.437-0.029,0.69l9.762-0.146v-4.822
		l-9.732,0.146v3.587C33.766,114.99,33.766,115.169,33.766,115.375z"/>
	<path fill="#FFFFFF" d="M58.371,119.241c0,0.471,0.236,0.688,0.707,0.647c0.861-0.04,1.949-0.143,3.262-0.31
		c1.313-0.166,2.635-0.416,3.969-0.75c0.197-0.038,0.357-0.032,0.486,0.016c0.127,0.05,0.205,0.119,0.234,0.207
		c0.029,0.086,0.006,0.189-0.072,0.308c-0.078,0.117-0.227,0.216-0.443,0.294c-0.646,0.255-1.34,0.505-2.086,0.75
		c-0.744,0.246-1.475,0.466-2.189,0.661c-0.713,0.196-1.383,0.353-2,0.472c-0.617,0.117-1.123,0.175-1.514,0.175
		c-0.883,0-1.51-0.243-1.883-0.734c-0.371-0.491-0.557-1.177-0.557-2.058v-8.586c0-0.352-0.176-0.646-0.529-0.881
		c-0.354-0.234-0.895-0.471-1.617-0.705c-0.371-0.117-0.559-0.273-0.559-0.47c0-0.099,0.074-0.207,0.221-0.324
		c0.146-0.118,0.365-0.177,0.662-0.177c0.176,0,0.443,0.016,0.807,0.045s0.744,0.064,1.146,0.102
		c0.404,0.041,0.795,0.094,1.178,0.164c0.381,0.068,0.68,0.131,0.895,0.19l-0.117,1.587V119.241z M68.66,113.567
		c-0.451,0.021-0.887,0.055-1.307,0.104c-0.422,0.05-0.799,0.102-1.133,0.162c-0.432,0.078-0.844,0.244-1.234,0.499
		c-0.197-0.059-0.408-0.132-0.633-0.22s-0.451-0.182-0.672-0.279c-0.23-0.098-0.441-0.201-0.637-0.309s-0.352-0.211-0.469-0.309
		c-0.199-0.157-0.275-0.328-0.236-0.514c0.037-0.187,0.205-0.262,0.5-0.223c0.863,0.08,1.814,0.118,2.852,0.118
		c1.039,0,2.027-0.03,2.969-0.088v-4.733c0-0.273-0.063-0.514-0.189-0.721c-0.127-0.205-0.295-0.383-0.5-0.527
		c-0.207-0.146-0.443-0.275-0.709-0.383c-0.262-0.107-0.531-0.21-0.805-0.309c-0.355-0.137-0.529-0.295-0.529-0.471
		c0-0.117,0.068-0.234,0.205-0.354c0.135-0.117,0.342-0.176,0.617-0.176c0.135,0,0.393,0.025,0.764,0.074s0.773,0.102,1.207,0.161
		c0.43,0.06,0.832,0.128,1.203,0.206c0.373,0.078,0.619,0.146,0.734,0.206l-0.115,1.558v13.64c0,0.256,0,0.599,0,1.029
		c0,0.432-0.01,0.902-0.029,1.411c-0.021,0.51-0.055,1.025-0.104,1.544c-0.049,0.52-0.123,0.989-0.221,1.41
		c-0.098,0.423-0.217,0.765-0.352,1.028c-0.139,0.266-0.314,0.398-0.529,0.398c-0.432,0-0.648-1.217-0.648-3.646V113.567z
		 M75.48,105.336v17.109c0,0.255,0,0.598,0,1.029c0,0.431-0.01,0.901-0.029,1.41c-0.018,0.51-0.059,1.023-0.117,1.543
		c-0.059,0.519-0.133,0.99-0.221,1.412c-0.09,0.42-0.205,0.764-0.352,1.028s-0.33,0.396-0.545,0.396
		c-0.43,0-0.646-1.215-0.646-3.645v-19.726c0-0.354-0.18-0.676-0.545-0.971c-0.363-0.294-0.906-0.578-1.631-0.852
		c-0.158-0.078-0.287-0.152-0.396-0.221c-0.107-0.068-0.162-0.151-0.162-0.25s0.072-0.206,0.221-0.324
		c0.148-0.115,0.365-0.176,0.662-0.176c0.135,0,0.391,0.02,0.764,0.061c0.371,0.039,0.77,0.092,1.191,0.161
		c0.42,0.067,0.818,0.142,1.191,0.22c0.369,0.078,0.615,0.146,0.734,0.205L75.48,105.336z"/>
	<path fill="#FFFFFF" d="M84.184,124.268c-0.277-0.02-0.572-0.074-0.885-0.162c-0.314-0.088-0.625-0.195-0.939-0.322
		s-0.613-0.266-0.896-0.412s-0.535-0.299-0.75-0.455c-0.137-0.099-0.24-0.211-0.309-0.338c-0.07-0.127-0.102-0.241-0.102-0.339
		c0-0.294,0.313-0.392,0.939-0.294c0.568,0.098,1.176,0.172,1.822,0.221s1.322,0.073,2.031,0.073c2.506,0,4.854-0.024,7.039-0.073
		s4.268-0.123,6.246-0.221c0.744-0.039,1.342-0.112,1.793-0.221c0.451-0.107,0.854-0.27,1.207-0.484
		c0.391,0.02,0.838,0.059,1.336,0.118c0.5,0.058,0.973,0.136,1.426,0.233c0.744,0.157,1.117,0.461,1.117,0.912
		c0,0.607-0.373,0.911-1.117,0.911c-0.197,0-0.514-0.015-0.957-0.044c-0.439-0.029-0.973-0.073-1.602-0.133
		c-0.254-0.02-0.686-0.033-1.291-0.043c-0.607-0.011-1.344-0.016-2.205-0.016c-1.92,0.039-3.842,0.088-5.762,0.146
		c-1.922,0.06-3.863,0.139-5.82,0.236c-0.395,0.039-0.791,0.113-1.191,0.221C84.912,123.891,84.535,124.053,84.184,124.268z
		 M87.445,112.186c1.174-0.02,2.439-0.045,3.793-0.074c1.352-0.028,2.586-0.054,3.705-0.072c0.471-0.02,0.883-0.104,1.248-0.25
		c0.361-0.148,0.592-0.289,0.689-0.427c0.414,0,0.82,0.015,1.221,0.044s0.797,0.084,1.191,0.162
		c0.588,0.099,0.881,0.372,0.881,0.824c0,0.469-0.354,0.714-1.059,0.733l-11.67,0.147v3.146c0,0.608,0.256,0.892,0.764,0.852
		l7.469-0.177c0.449-0.039,0.861-0.127,1.234-0.264c0.369-0.137,0.604-0.273,0.705-0.411c0.391,0,0.818,0.015,1.279,0.044
		s0.887,0.084,1.277,0.162c0.588,0.098,0.883,0.361,0.883,0.793c0,0.511-0.354,0.765-1.059,0.765l-12.316,0.177
		c-1.49,0.039-2.234-0.793-2.234-2.499v-6.821c0-0.469-0.746-0.891-2.234-1.264c-0.395-0.098-0.588-0.244-0.588-0.441
		c0-0.156,0.07-0.303,0.203-0.439c0.137-0.137,0.344-0.216,0.619-0.235c0.354-0.02,0.725-0.02,1.117,0
		c0.391,0.02,0.764,0.049,1.117,0.088c0.352,0.04,0.676,0.089,0.969,0.147c0.295,0.059,0.521,0.117,0.678,0.176
		c0.627-0.019,1.285-0.035,1.982-0.044c0.695-0.011,1.402-0.024,2.117-0.045c0.717-0.019,1.416-0.034,2.102-0.044
		s1.346-0.024,1.971-0.043c0.41,0,0.785-0.059,1.117-0.178c0.332-0.117,0.607-0.283,0.824-0.5c0.391,0,0.803,0.017,1.232,0.045
		c0.432,0.029,0.844,0.084,1.236,0.162c0.586,0.098,0.881,0.372,0.881,0.822c0,0.512-0.352,0.765-1.057,0.765
		c-1.963,0.021-4.008,0.04-6.146,0.059c-2.135,0.021-4.182,0.049-6.143,0.089V112.186z"/>
	<path fill="#FFFFFF" d="M124.752,117.743c-1.297,0.391-2.568,0.7-3.824,0.926c-1.254,0.226-2.477,0.416-3.674,0.572v4.704
		c0,0.294-0.004,0.716-0.014,1.264s-0.051,1.087-0.119,1.617c-0.066,0.528-0.182,0.989-0.338,1.382
		c-0.156,0.392-0.383,0.588-0.676,0.588c-0.234,0-0.426-0.162-0.574-0.484c-0.148-0.324-0.219-0.82-0.219-1.485v-7.35
		c-0.453,0.04-0.889,0.073-1.309,0.103c-0.422,0.03-0.838,0.064-1.25,0.104c-0.41,0.039-0.813,0.133-1.205,0.279
		s-0.668,0.289-0.822,0.426c-0.51-0.117-1.053-0.322-1.633-0.617c-0.578-0.294-1.082-0.598-1.514-0.911
		c-0.119-0.077-0.205-0.177-0.266-0.294c-0.059-0.117-0.078-0.225-0.059-0.322c0.021-0.1,0.08-0.177,0.178-0.236
		c0.096-0.058,0.244-0.077,0.441-0.058c0.625,0.097,1.238,0.155,1.836,0.177c0.6,0.018,1.209,0.018,1.838,0
		c1.039-0.021,2.127-0.069,3.262-0.147c1.139-0.079,2.275-0.183,3.412-0.31c1.135-0.127,2.248-0.273,3.336-0.44
		c1.09-0.166,2.111-0.349,3.07-0.544c0.178-0.059,0.334-0.049,0.473,0.029c0.137,0.078,0.227,0.182,0.264,0.309
		c0.039,0.128,0.01,0.26-0.09,0.396C125.18,117.555,125.006,117.664,124.752,117.743z M109.816,110.627
		c0,0.705,0.158,1.357,0.469,1.956c0.316,0.597,0.76,1.106,1.34,1.528c0.578,0.422,1.26,0.75,2.041,0.984
		c0.787,0.234,1.648,0.353,2.588,0.353s1.805-0.118,2.602-0.353c0.795-0.234,1.48-0.563,2.059-0.984s1.027-0.932,1.352-1.528
		c0.322-0.599,0.486-1.251,0.486-1.956c0-0.725-0.164-1.383-0.486-1.969c-0.324-0.589-0.773-1.098-1.352-1.529
		s-1.264-0.765-2.059-0.998c-0.797-0.236-1.662-0.354-2.602-0.354s-1.801,0.117-2.588,0.354c-0.781,0.233-1.463,0.566-2.041,0.998
		c-0.58,0.432-1.023,0.94-1.34,1.529C109.975,109.245,109.816,109.903,109.816,110.627z M111.873,110.657
		c0-0.548,0.113-1.042,0.34-1.484c0.225-0.44,0.531-0.817,0.926-1.131c0.391-0.314,0.857-0.549,1.398-0.707
		c0.537-0.156,1.129-0.234,1.777-0.234c0.646,0,1.24,0.078,1.777,0.234c0.539,0.158,1.008,0.393,1.41,0.707
		c0.402,0.313,0.715,0.69,0.941,1.131c0.225,0.442,0.34,0.937,0.34,1.484c0,0.549-0.115,1.045-0.34,1.484
		c-0.227,0.442-0.539,0.814-0.941,1.117c-0.402,0.304-0.871,0.535-1.41,0.691c-0.537,0.156-1.131,0.234-1.777,0.234
		c-0.648,0-1.24-0.078-1.777-0.234c-0.541-0.156-1.008-0.388-1.398-0.691c-0.395-0.303-0.701-0.675-0.926-1.117
		C111.986,111.702,111.873,111.206,111.873,110.657z M129.277,104.014c-0.039,0.234-0.084,0.559-0.131,0.969
		c-0.051,0.412-0.078,0.795-0.078,1.148v18.9c0,0.294-0.002,0.721-0.012,1.279c-0.008,0.559-0.049,1.111-0.117,1.66
		c-0.07,0.549-0.182,1.024-0.338,1.428c-0.158,0.4-0.383,0.602-0.676,0.602c-0.217,0-0.398-0.161-0.543-0.485
		c-0.148-0.322-0.223-0.817-0.223-1.484v-6.115c-0.234,0.021-0.5,0.05-0.793,0.089c-0.295,0.039-0.588,0.078-0.881,0.117
		c-0.295,0.041-0.568,0.079-0.824,0.118c-0.256,0.04-0.471,0.069-0.648,0.088c-0.354,0.079-0.648,0.153-0.895,0.221
		c-0.246,0.069-0.467,0.152-0.662,0.25c-0.41-0.098-0.814-0.261-1.205-0.485c-0.393-0.225-0.695-0.436-0.91-0.631
		c-0.275-0.236-0.348-0.441-0.223-0.618c0.127-0.176,0.311-0.244,0.545-0.206c0.078,0.02,0.207,0.035,0.383,0.043
		c0.178,0.012,0.367,0.021,0.572,0.03c0.207,0.011,0.412,0.021,0.617,0.03c0.207,0.01,0.387,0.015,0.543,0.015
		c0.295,0,0.625-0.005,0.986-0.015c0.363-0.01,0.74-0.03,1.133-0.061c0.389-0.029,0.781-0.062,1.174-0.102
		c0.393-0.039,0.754-0.088,1.088-0.146v-15.199c-0.313-0.371-0.703-0.67-1.176-0.896c-0.469-0.225-0.861-0.387-1.176-0.484
		c-0.451-0.158-0.656-0.363-0.617-0.618c0.037-0.253,0.285-0.382,0.734-0.382c0.178,0,0.465,0.02,0.867,0.059s0.828,0.1,1.279,0.176
		c0.449,0.079,0.875,0.178,1.279,0.295C128.752,103.719,129.061,103.857,129.277,104.014z"/>
	<path fill="#FFFFFF" d="M151.355,106.748c0.373-0.039,0.709-0.099,1.014-0.176c0.303-0.079,0.523-0.167,0.662-0.265
		c0.273-0.021,0.617-0.024,1.025-0.016c0.414,0.01,0.729,0.034,0.941,0.073c0.375,0.04,0.594,0.128,0.664,0.265
		c0.066,0.138,0.082,0.275,0.043,0.412c-0.059,0.293-0.139,0.598-0.252,0.911c-0.105,0.313-0.18,0.628-0.219,0.94
		c-0.119,0.844-0.277,1.854-0.484,3.027c-0.207,1.177-0.426,2.372-0.66,3.588c-0.238,1.215-0.479,2.381-0.723,3.498
		c-0.246,1.117-0.463,2.038-0.66,2.763c0.666-0.038,1.209-0.112,1.631-0.221c0.42-0.107,0.799-0.269,1.133-0.484
		c0.391,0.021,0.838,0.06,1.336,0.117c0.5,0.06,0.977,0.138,1.428,0.235c0.742,0.158,1.115,0.461,1.115,0.911
		c0,0.608-0.373,0.911-1.115,0.911c-0.197,0-0.516-0.014-0.955-0.043c-0.441-0.03-0.977-0.074-1.602-0.134
		c-0.258-0.019-0.686-0.033-1.295-0.043c-0.607-0.009-1.342-0.015-2.205-0.015c-1.922,0.039-3.84,0.089-5.762,0.146
		c-1.92,0.059-3.861,0.137-5.82,0.235c-0.393,0.04-0.791,0.113-1.191,0.22c-0.402,0.109-0.777,0.27-1.135,0.486
		c-0.271-0.021-0.564-0.074-0.879-0.162c-0.313-0.088-0.627-0.195-0.941-0.324c-0.311-0.126-0.611-0.264-0.896-0.41
		c-0.283-0.147-0.533-0.299-0.75-0.457c-0.137-0.098-0.238-0.21-0.309-0.336c-0.068-0.129-0.1-0.24-0.1-0.34
		c0-0.294,0.313-0.393,0.938-0.294c0.57,0.099,1.176,0.173,1.822,0.22c0.648,0.051,1.324,0.074,2.029,0.074
		c2.295,0,4.449-0.02,6.469-0.059c2.016-0.039,3.949-0.098,5.789-0.176c0.158-0.94,0.328-2.083,0.516-3.425
		c0.186-1.342,0.357-2.72,0.516-4.131c-0.842,0.176-1.711,0.354-2.604,0.53c-0.895,0.176-1.764,0.342-2.617,0.5
		c-0.852,0.156-1.664,0.298-2.439,0.424c-0.773,0.129-1.473,0.231-2.1,0.31c-0.492,0.06-0.908,0.128-1.25,0.206
		c-0.346,0.078-0.691,0.236-1.045,0.471c-0.512-0.176-1.053-0.406-1.631-0.691c-0.578-0.283-1.004-0.533-1.279-0.748
		c-0.1-0.079-0.18-0.173-0.248-0.28c-0.07-0.106-0.105-0.211-0.105-0.31c0-0.332,0.275-0.449,0.826-0.353
		c0.486,0.079,0.977,0.134,1.469,0.161c0.49,0.031,0.99,0.045,1.498,0.045c0.688,0,1.514-0.045,2.484-0.133s1.988-0.195,3.059-0.322
		c1.066-0.127,2.135-0.274,3.203-0.441c1.068-0.166,2.041-0.338,2.926-0.515c0.098-0.94,0.182-1.846,0.25-2.72
		c0.066-0.871,0.121-1.65,0.162-2.337c-0.588-0.038-1.357-0.059-2.309-0.059s-1.932,0.015-2.941,0.044
		c-1.008,0.031-1.967,0.074-2.879,0.133s-1.631,0.118-2.16,0.176c-0.393,0.041-0.76,0.099-1.104,0.176
		c-0.344,0.08-0.674,0.217-0.984,0.412c-0.236-0.059-0.496-0.15-0.779-0.279c-0.283-0.127-0.559-0.259-0.826-0.396
		c-0.262-0.138-0.502-0.275-0.719-0.413c-0.215-0.137-0.361-0.244-0.441-0.322c-0.115-0.119-0.176-0.254-0.176-0.412
		c0-0.273,0.227-0.362,0.678-0.265c0.451,0.079,0.881,0.122,1.295,0.132c0.41,0.011,0.809,0.016,1.205,0.016
		c0.781,0,1.664-0.005,2.645-0.016c0.979-0.01,1.955-0.027,2.924-0.059c0.971-0.027,1.887-0.059,2.752-0.088
		C150.068,106.822,150.783,106.788,151.355,106.748z"/>
	<path fill="#FFFFFF" d="M170.902,108.747c-0.154,0.607-0.338,1.209-0.545,1.808c-0.203,0.599-0.443,1.182-0.719,1.749l1.088,1.293
		c0.824,0.962,1.656,1.471,2.498,1.529c0.119,0.178,0.246,0.383,0.385,0.617c0.133,0.235,0.279,0.496,0.426,0.779
		c0.145,0.284,0.277,0.572,0.395,0.867c0.117,0.294,0.205,0.568,0.266,0.822c0.061,0.236,0.043,0.438-0.043,0.604
		c-0.09,0.166-0.207,0.283-0.354,0.354c-0.145,0.068-0.314,0.078-0.5,0.029c-0.184-0.049-0.357-0.183-0.516-0.398l-4.291-5.291
		c-0.627,1.118-1.381,2.182-2.264,3.19c-0.881,1.011-1.912,1.956-3.086,2.837c-0.197,0.156-0.379,0.234-0.545,0.234
		s-0.297-0.038-0.396-0.117c-0.098-0.078-0.143-0.191-0.133-0.338c0.012-0.146,0.104-0.309,0.281-0.486
		c1.469-1.469,2.703-3.082,3.703-4.835c1-1.754,1.664-3.492,2-5.217c-0.08-0.237-0.256-0.476-0.529-0.722
		c-0.273-0.244-0.59-0.455-0.943-0.633c-0.215-0.117-0.352-0.229-0.412-0.336c-0.057-0.109-0.057-0.207,0-0.295
		c0.061-0.088,0.164-0.162,0.311-0.22c0.146-0.06,0.311-0.079,0.484-0.06c0.332,0.039,0.689,0.104,1.059,0.191
		c0.373,0.088,0.725,0.201,1.057,0.338c0.336,0.137,0.635,0.279,0.896,0.426c0.268,0.147,0.467,0.291,0.605,0.427
		c-0.021,0.099-0.045,0.225-0.074,0.383C170.979,108.433,170.941,108.59,170.902,108.747z M172.635,127.854
		c0.551,0.02,1.139,0.029,1.766,0.029c0.629,0,1.256-0.004,1.883-0.014s1.236-0.025,1.824-0.045c0.586-0.02,1.115-0.039,1.584-0.059
		c0.297-0.02,0.648-0.099,1.059-0.234c0.414-0.138,0.727-0.314,0.941-0.529c0.275-0.04,0.646-0.06,1.117-0.06s0.844,0.02,1.115,0.06
		c0.297,0.039,0.594,0.127,0.898,0.265c0.305,0.136,0.455,0.372,0.455,0.704c0,0.313-0.164,0.554-0.5,0.721
		c-0.332,0.166-0.744,0.24-1.232,0.221c-0.551-0.02-1.262-0.025-2.131-0.015c-0.875,0.009-1.799,0.02-2.779,0.03
		c-0.979,0.009-1.969,0.019-2.969,0.029c-1,0.009-1.9,0.015-2.705,0.015c-1.176,0-1.982-0.187-2.424-0.56
		c-0.443-0.371-0.662-1.029-0.662-1.97v-3.027c-0.236-0.333-0.545-0.583-0.926-0.75c-0.383-0.165-0.74-0.288-1.074-0.367
		c-0.215-0.059-0.377-0.136-0.484-0.235c-0.109-0.098-0.158-0.2-0.148-0.308c0.012-0.108,0.072-0.207,0.191-0.295
		c0.119-0.089,0.295-0.142,0.529-0.161c0.215-0.02,0.504-0.024,0.867-0.016c0.363,0.011,0.74,0.04,1.131,0.088
		c0.393,0.051,0.77,0.119,1.135,0.207c0.361,0.088,0.65,0.201,0.867,0.337c-0.041,0.255-0.076,0.565-0.104,0.927
		c-0.031,0.363-0.045,0.721-0.045,1.073v3.058C171.814,127.542,172.09,127.834,172.635,127.854z M179.4,105.69
		c-0.043,0.234-0.086,0.558-0.133,0.97c-0.049,0.411-0.076,0.792-0.076,1.146v9.203c0,0.293,0,0.719,0,1.277
		s-0.033,1.113-0.104,1.66c-0.066,0.55-0.18,1.025-0.336,1.426c-0.158,0.403-0.381,0.604-0.678,0.604
		c-0.215,0-0.395-0.162-0.541-0.484c-0.148-0.324-0.221-0.818-0.221-1.484v-7.379c-0.217,0.019-0.453,0.033-0.709,0.043
		c-0.254,0.012-0.469,0.035-0.645,0.074c-0.217,0.039-0.445,0.104-0.691,0.191c-0.242,0.088-0.465,0.19-0.66,0.309
		c-0.334-0.059-0.719-0.182-1.162-0.367c-0.441-0.187-0.777-0.388-1.014-0.604c-0.275-0.234-0.354-0.441-0.236-0.617
		c0.119-0.176,0.305-0.245,0.559-0.205c0.08,0.02,0.211,0.033,0.398,0.045c0.186,0.008,0.383,0.02,0.586,0.027
		c0.207,0.01,0.416,0.016,0.617,0.016c0.207,0,0.389,0,0.547,0c0.43,0,0.857-0.006,1.277-0.016c0.42-0.008,0.797-0.043,1.133-0.103
		v-4.292c-0.314-0.371-0.662-0.66-1.043-0.867c-0.383-0.205-0.723-0.357-1.016-0.455c-0.41-0.156-0.602-0.363-0.574-0.617
		c0.029-0.255,0.26-0.383,0.691-0.383c0.176,0,0.445,0.016,0.809,0.045s0.75,0.083,1.16,0.16c0.412,0.079,0.805,0.173,1.178,0.281
		C178.889,105.401,179.182,105.532,179.4,105.69z M184.133,104.014c-0.041,0.234-0.084,0.559-0.135,0.969
		c-0.049,0.412-0.074,0.795-0.074,1.148v12.08c0,0.295-0.002,0.721-0.012,1.279c-0.01,0.56-0.051,1.113-0.119,1.662
		c-0.068,0.547-0.182,1.023-0.338,1.426c-0.156,0.401-0.381,0.602-0.676,0.602c-0.49,0-0.734-0.656-0.734-1.969v-15.758
		c-0.313-0.371-0.682-0.67-1.104-0.896c-0.42-0.225-0.777-0.387-1.072-0.484c-0.432-0.158-0.631-0.363-0.602-0.618
		c0.031-0.253,0.27-0.382,0.721-0.382c0.176,0,0.449,0.02,0.824,0.059c0.369,0.039,0.771,0.1,1.203,0.176
		c0.432,0.079,0.838,0.178,1.219,0.295C183.617,103.719,183.916,103.857,184.133,104.014z"/>
	<path fill="#FFFFFF" d="M191.246,110.187c0-0.471-0.746-0.892-2.234-1.265c-0.391-0.098-0.588-0.244-0.588-0.44
		c0-0.157,0.068-0.304,0.207-0.44c0.135-0.139,0.342-0.216,0.617-0.236c0.352-0.02,0.723-0.02,1.115,0
		c0.393,0.021,0.766,0.051,1.117,0.089c0.355,0.04,0.678,0.088,0.971,0.147c0.295,0.058,0.518,0.117,0.676,0.176
		c0.666,0,1.367-0.014,2.104-0.043c0.734-0.031,1.424-0.075,2.07-0.133c0.412-0.04,0.783-0.107,1.117-0.207
		c0.334-0.098,0.607-0.254,0.826-0.471c0.389,0,0.799,0.016,1.232,0.045c0.432,0.03,0.842,0.084,1.234,0.162
		c0.59,0.099,0.881,0.372,0.881,0.823c0,0.511-0.354,0.763-1.057,0.763c-1.354,0.021-2.732,0.041-4.146,0.061
		c-1.408,0.02-2.791,0.049-4.145,0.088v5.086c0.492,0,1.059-0.016,1.705-0.044c0.646-0.03,1.199-0.063,1.646-0.103
		c0.414-0.041,0.783-0.093,1.117-0.162c0.332-0.069,0.607-0.211,0.822-0.426c0.746,0,1.469,0.029,2.176,0.088
		c0.295,0.039,0.516,0.127,0.662,0.264c0.148,0.137,0.223,0.314,0.223,0.529c0,0.529-0.365,0.793-1.09,0.793
		c-1.176,0.021-2.391,0.051-3.645,0.088c-1.256,0.041-2.461,0.08-3.617,0.119v4.703c0,0.235,0.084,0.402,0.252,0.5
		c0.168,0.099,0.543,0.147,1.129,0.147c0.275,0,0.754-0.04,1.441-0.118c0.686-0.078,1.461-0.191,2.324-0.338s1.771-0.328,2.73-0.544
		c0.961-0.216,1.854-0.45,2.678-0.705c0.195-0.06,0.355-0.069,0.484-0.03c0.127,0.039,0.207,0.104,0.236,0.191
		s0.002,0.191-0.074,0.309s-0.227,0.235-0.441,0.354c-0.648,0.332-1.412,0.66-2.293,0.983c-0.885,0.324-1.793,0.618-2.732,0.883
		c-0.941,0.265-1.879,0.485-2.809,0.661c-0.932,0.176-1.779,0.275-2.543,0.293c-0.939,0.04-1.572-0.19-1.895-0.689
		c-0.324-0.5-0.486-1.161-0.486-1.985V110.187z M209.883,105.336v17.109c0,0.255,0,0.598,0,1.029c0,0.431-0.01,0.901-0.027,1.41
		c-0.021,0.51-0.061,1.023-0.117,1.543c-0.061,0.519-0.133,0.99-0.221,1.412c-0.088,0.42-0.207,0.764-0.355,1.028
		c-0.145,0.265-0.328,0.396-0.541,0.396c-0.434,0-0.648-1.215-0.648-3.645v-11.466c-0.137,0-0.318,0.01-0.547,0.029
		c-0.223,0.02-0.453,0.035-0.689,0.045c-0.232,0.011-0.453,0.023-0.66,0.044c-0.205,0.02-0.357,0.029-0.455,0.029
		c-0.215,0.04-0.4,0.093-0.561,0.163c-0.154,0.068-0.342,0.181-0.557,0.338c-0.119,0-0.295-0.04-0.527-0.119
		c-0.238-0.077-0.477-0.166-0.723-0.265c-0.246-0.097-0.479-0.205-0.705-0.323c-0.227-0.117-0.389-0.225-0.486-0.324
		c-0.195-0.154-0.273-0.316-0.232-0.484c0.037-0.165,0.205-0.249,0.498-0.249c0.725,0.039,1.602,0.044,2.631,0.015
		c1.031-0.029,2.033-0.063,3.014-0.103v-7.056c0-0.354-0.18-0.676-0.547-0.971c-0.359-0.294-0.902-0.578-1.627-0.852
		c-0.158-0.078-0.291-0.152-0.4-0.221c-0.105-0.068-0.158-0.151-0.158-0.25s0.072-0.206,0.221-0.324
		c0.145-0.115,0.363-0.176,0.658-0.176c0.139,0,0.393,0.02,0.766,0.061c0.373,0.039,0.77,0.092,1.189,0.161
		c0.424,0.067,0.82,0.142,1.191,0.22c0.375,0.078,0.617,0.146,0.734,0.205L209.883,105.336z"/>
</g>
</svg>
