<?xml version="1.0" encoding="utf-8"?>
<!-- Generator: Adobe Illustrator 15.0.0, SVG Export Plug-In . SVG Version: 6.00 Build 0)  -->
<!DOCTYPE svg PUBLIC "-//W3C//DTD SVG 1.1//EN" "http://www.w3.org/Graphics/SVG/1.1/DTD/svg11.dtd">
<svg version="1.1" id="Layer_1" xmlns="http://www.w3.org/2000/svg" xmlns:xlink="http://www.w3.org/1999/xlink" x="0px" y="0px"
	 width="485px" height="303px" viewBox="0 0 485 303" enable-background="new 0 0 485 303" xml:space="preserve">
<g>
	<g>
		<path fill="#FFFFFF" d="M336.779,44.803c-5.099-13.406-14.056-24.729-25.903-32.744c-5.706-3.859-11.938-6.846-18.528-8.88
			c-6.647-2.052-13.535-3.092-20.469-3.092c-8.412,0-16.705,1.526-24.645,4.538c-1.15,0.442-2.342,0.939-3.625,1.514
			c-4.298-1.935-8.793-3.434-13.374-4.462C225.279,0.563,220.198,0,215.135,0c-5.927,0-11.864,0.772-17.639,2.294
			c-9.064,2.366-17.391,6.437-24.753,12.1c-7.108,5.469-13.019,12.182-17.568,19.955c-4.549,7.772-7.506,16.208-8.79,25.078
			c-1.332,9.183-0.8,18.426,1.577,27.473c1.998,7.612,5.226,14.75,9.598,21.215c4.225,6.247,9.427,11.74,15.462,16.326
			c5.975,4.539,12.603,8.066,19.702,10.485c7.214,2.459,14.726,3.706,22.324,3.706c5.924,0,11.863-0.766,17.645-2.279
			c3.634-0.945,7.23-2.205,10.716-3.751c4.429,1.994,9.082,3.527,13.827,4.558c4.822,1.047,9.762,1.578,14.684,1.579
			c0,0,0,0,0.004,0c8.411,0,16.697-1.527,24.628-4.539c8.759-3.323,16.602-8.261,23.315-14.674
			c6.488-6.194,11.647-13.497,15.341-21.706c3.696-8.209,5.737-16.912,6.069-25.866C341.619,62.682,340.104,53.547,336.779,44.803z
			 M276.204,102.15c2.999-5.557,5.217-11.467,6.604-17.595l10.233,2.542l-12.006-41.729l-30.191,31.248l10.271,2.551
			c-3.713,17.247-16.922,31.122-34.091,35.613c-3.923,1.026-7.949,1.549-11.967,1.549c-21.365,0.001-40.071-14.434-45.493-35.103
			c-3.19-12.133-1.453-24.785,4.893-35.624c6.346-10.84,16.538-18.565,28.698-21.749c3.91-1.027,7.917-1.546,11.911-1.546
			c1.87,0,3.745,0.114,5.608,0.341c-3.921,4.281-7.291,9.042-10.036,14.193c-2.929,5.492-5.1,11.327-6.466,17.379l-9.168-4.255
			l3.855,43.24l35.575-24.942l-9.287-4.31c2.048-17.519,13.454-32.185,30.032-38.472c5.383-2.043,11.001-3.079,16.703-3.079
			c19.426,0,37.106,12.192,44.001,30.336c4.468,11.731,4.095,24.498-1.056,35.947c-5.151,11.451-14.462,20.211-26.213,24.667
			c-5.355,2.03-10.951,3.057-16.634,3.057c-1.887,0-3.779-0.113-5.662-0.343C270.167,111.858,273.483,107.191,276.204,102.15z"/>
	</g>
	<g>
		<g>
			<path fill="#FFFFFF" d="M5.935,195.359c0-0.638-1.012-1.209-3.035-1.714c-0.534-0.133-0.8-0.333-0.8-0.599
				c0-0.213,0.094-0.412,0.28-0.599c0.187-0.185,0.466-0.292,0.839-0.318c0.479-0.026,0.984-0.026,1.518,0
				c0.532,0.026,1.038,0.067,1.517,0.12c0.479,0.053,0.918,0.119,1.318,0.199c0.399,0.08,0.705,0.16,0.918,0.239
				c0.452-0.025,0.951-0.045,1.498-0.059c0.545-0.013,1.098-0.033,1.657-0.06c0.559-0.027,1.105-0.047,1.637-0.061
				s1.025-0.033,1.478-0.06c0.559-0.025,1.065-0.113,1.517-0.259c0.453-0.146,0.825-0.365,1.119-0.658
				c0.532,0,1.092,0.021,1.677,0.061c0.586,0.04,1.145,0.113,1.678,0.219c0.798,0.133,1.198,0.505,1.198,1.117
				c0,0.691-0.479,1.037-1.438,1.037c-1.837,0.026-3.814,0.054-5.931,0.08c-2.116,0.026-4.093,0.067-5.93,0.12v12.96
				c0,0.319,0.113,0.558,0.339,0.717c0.226,0.16,0.739,0.214,1.538,0.16c1.011-0.026,2.216-0.12,3.614-0.279
				c1.398-0.16,2.862-0.358,4.394-0.598c1.53-0.24,3.088-0.513,4.672-0.818c1.583-0.306,3.068-0.631,4.453-0.978v-15.791
				c0-0.479-0.247-0.917-0.739-1.316c-0.492-0.398-1.231-0.783-2.216-1.156c-0.213-0.106-0.393-0.206-0.539-0.299
				c-0.147-0.094-0.219-0.207-0.219-0.339c0-0.134,0.099-0.279,0.299-0.439c0.2-0.159,0.499-0.239,0.898-0.239
				c0.186,0,0.532,0.026,1.038,0.08c0.506,0.053,1.045,0.126,1.618,0.219c0.572,0.094,1.112,0.194,1.618,0.3
				c0.506,0.106,0.838,0.199,0.999,0.278l-0.16,2.154v23.728c0,0.532-0.007,1.282-0.02,2.253c-0.014,0.97-0.074,1.934-0.18,2.891
				s-0.279,1.794-0.519,2.513c-0.24,0.718-0.574,1.077-0.999,1.077c-0.586,0-0.878-1.649-0.878-4.945v-9.451
				c-1.172,0.345-2.557,0.725-4.154,1.136c-1.597,0.413-3.242,0.798-4.933,1.156c-1.691,0.359-3.361,0.678-5.012,0.958
				c-1.65,0.278-3.115,0.458-4.394,0.537c-1.277,0.08-2.136-0.226-2.576-0.917c-0.439-0.691-0.658-1.595-0.658-2.711V195.359z"/>
			<path fill="#FFFFFF" d="M52.46,191.451c0.425-0.025,0.799-0.105,1.119-0.24c0.319-0.132,0.545-0.238,0.679-0.318
				c0.24,0,0.539,0.014,0.899,0.04c0.359,0.027,0.724,0.066,1.098,0.12c0.32,0.053,0.532,0.146,0.639,0.279
				c0.106,0.132,0.16,0.306,0.16,0.518c0,0.134-0.054,0.293-0.16,0.479c-0.106,0.186-0.239,0.398-0.399,0.637
				c-0.133,0.16-0.266,0.386-0.399,0.679c-0.559,1.116-1.191,2.272-1.896,3.469c-0.706,1.197-1.538,2.419-2.496,3.668
				c0.373,0.398,0.798,0.806,1.277,1.216c0.479,0.413,1.052,0.884,1.718,1.416c0.239,0.214,0.486,0.373,0.738,0.479
				c0.253,0.107,0.485,0.187,0.699,0.239c0.212,0.054,0.412,0.166,0.6,0.339c0.185,0.173,0.398,0.418,0.639,0.738
				c0.372,0.532,0.699,1.049,0.978,1.555c0.28,0.505,0.5,0.904,0.659,1.196c0.106,0.187,0.227,0.438,0.36,0.758
				c0.133,0.319,0.2,0.598,0.2,0.837c0,0.506-0.28,0.757-0.838,0.757c-0.213,0-0.459-0.132-0.739-0.398
				c-0.28-0.266-0.646-0.624-1.099-1.077l-6.309-6.699c-1.278,1.515-2.795,3.024-4.554,4.525c-1.757,1.503-3.86,3.011-6.309,4.527
				c-0.16,0.106-0.327,0.139-0.5,0.099c-0.173-0.04-0.32-0.12-0.439-0.239c-0.12-0.119-0.18-0.259-0.18-0.419
				s0.093-0.319,0.279-0.479c2.982-2.338,5.698-4.93,8.147-7.775s4.406-5.995,5.871-9.451c-0.452,0-0.945,0.007-1.477,0.02
				c-0.533,0.013-1.079,0.034-1.637,0.06c-0.56,0.027-1.118,0.061-1.678,0.1c-0.559,0.041-1.065,0.087-1.518,0.14
				c-0.533,0.052-1.032,0.146-1.498,0.278c-0.466,0.134-0.913,0.333-1.337,0.599c-0.32-0.08-0.666-0.193-1.039-0.34
				c-0.374-0.145-0.733-0.298-1.079-0.458c-0.347-0.16-0.653-0.319-0.918-0.479c-0.267-0.16-0.453-0.292-0.56-0.399
				c-0.16-0.16-0.24-0.331-0.24-0.518c0-0.372,0.306-0.492,0.918-0.358c0.612,0.106,1.198,0.166,1.758,0.179
				c0.559,0.014,1.105,0.02,1.637,0.02c0.479,0,1.051-0.006,1.717-0.02c0.666-0.014,1.371-0.041,2.117-0.08
				c0.745-0.04,1.504-0.073,2.276-0.1C51.116,191.544,51.821,191.505,52.46,191.451z M66.958,188.779v23.209
				c0,0.346,0,0.811,0,1.395c0,0.587-0.014,1.224-0.04,1.915c-0.026,0.692-0.08,1.389-0.159,2.094c-0.08,0.704-0.18,1.343-0.3,1.914
				c-0.12,0.572-0.279,1.037-0.479,1.396c-0.2,0.36-0.447,0.539-0.739,0.539c-0.586,0-0.878-1.649-0.878-4.945v-26.757
				c0-0.479-0.247-0.917-0.739-1.316c-0.492-0.398-1.231-0.783-2.216-1.156c-0.214-0.106-0.393-0.206-0.54-0.299
				c-0.146-0.094-0.219-0.207-0.219-0.339c0-0.134,0.1-0.279,0.299-0.439c0.2-0.159,0.499-0.239,0.898-0.239
				c0.187,0,0.532,0.026,1.039,0.08c0.506,0.053,1.045,0.126,1.618,0.219c0.572,0.094,1.111,0.194,1.617,0.3
				c0.506,0.106,0.839,0.199,0.999,0.278L66.958,188.779z"/>
			<path fill="#FFFFFF" d="M81.774,201.859c0,0.612,0.346,0.917,1.038,0.917c1.625,0.026,3.582-0.06,5.871-0.259
				c2.291-0.2,4.606-0.512,6.949-0.938c0.293-0.053,0.52-0.02,0.68,0.099c0.16,0.121,0.239,0.267,0.239,0.44
				c0,0.172-0.066,0.353-0.199,0.537c-0.134,0.188-0.36,0.319-0.68,0.399c-2.715,0.771-5.211,1.33-7.488,1.674
				c-2.276,0.347-4.239,0.532-5.89,0.559c-1.198,0.026-2.05-0.292-2.557-0.958c-0.506-0.664-0.758-1.595-0.758-2.79v-8.215
				c-0.293-0.505-0.732-0.884-1.318-1.137c-0.586-0.252-1.117-0.444-1.597-0.578c-0.293-0.08-0.513-0.192-0.659-0.339
				c-0.146-0.146-0.219-0.299-0.219-0.458c0-0.159,0.08-0.305,0.24-0.439c0.159-0.133,0.385-0.198,0.679-0.198
				c0.292,0,0.659,0.019,1.098,0.059c0.439,0.04,0.912,0.094,1.417,0.16c0.506,0.067,1.005,0.139,1.498,0.219
				s0.939,0.135,1.339,0.16c0.532,0.027,0.992,0.04,1.377,0.04c0.385,0,0.738-0.012,1.058-0.04c0.32-0.025,0.625-0.053,0.918-0.08
				c0.292-0.025,0.612-0.066,0.958-0.119c0.612-0.08,1.158-0.213,1.638-0.398c0.479-0.187,0.918-0.425,1.317-0.719
				c0.373-0.053,0.899-0.08,1.578-0.08c0.68,0,1.204,0.027,1.578,0.08c0.4,0.055,0.792,0.159,1.178,0.319
				c0.386,0.159,0.579,0.452,0.579,0.878c0,0.425-0.219,0.751-0.658,0.977c-0.44,0.226-0.993,0.326-1.658,0.299
				c-1.066,0.027-2.004,0.054-2.816,0.08c-0.812,0.027-1.578,0.06-2.296,0.099c-0.718,0.041-1.424,0.08-2.117,0.12
				s-1.452,0.073-2.276,0.101c-0.026,0.266-0.04,0.445-0.04,0.537c0,0.093,0,0.154,0,0.18v3.668c0.612,0,1.284-0.006,2.017-0.021
				c0.731-0.012,1.324-0.072,1.776-0.179c0.374-0.08,0.726-0.185,1.059-0.319c0.333-0.132,0.646-0.305,0.938-0.518
				c0.4-0.053,0.892-0.08,1.478-0.08c0.585,0,1.065,0.014,1.438,0.041c0.931,0.053,1.397,0.412,1.397,1.076
				c0,0.505-0.186,0.838-0.559,0.997c-0.374,0.16-0.906,0.253-1.598,0.28c-1.331,0.053-2.682,0.099-4.053,0.14
				c-1.372,0.039-2.669,0.099-3.894,0.179V201.859z M90.201,219.486c1.491,0.052,2.968,0.059,4.432,0.02
				c1.464-0.04,2.862-0.127,4.194-0.259c0.426-0.054,0.899-0.154,1.417-0.3c0.52-0.146,0.925-0.365,1.219-0.658
				c0.373-0.052,0.884-0.059,1.538-0.02c0.651,0.04,1.164,0.085,1.537,0.14c0.4,0.053,0.786,0.172,1.158,0.358
				c0.373,0.186,0.56,0.479,0.56,0.877c0,0.877-0.68,1.29-2.037,1.237c-0.693-0.026-1.618-0.034-2.776-0.021
				s-2.403,0.033-3.734,0.06c-1.331,0.026-2.675,0.053-4.034,0.08c-1.357,0.025-2.583,0.04-3.674,0.04
				c-1.118,0.079-1.976-0.14-2.576-0.658c-0.599-0.519-0.898-1.336-0.898-2.452v-2.234c-0.187-0.452-0.493-0.777-0.919-0.978
				c-0.426-0.198-0.865-0.364-1.317-0.498c-0.613-0.159-0.899-0.405-0.859-0.737c0.04-0.332,0.366-0.524,0.979-0.578
				c0.292-0.026,0.665-0.026,1.119,0c0.452,0.026,0.924,0.054,1.417,0.08c0.492,0.026,0.978,0.06,1.458,0.1
				c0.479,0.039,0.891,0.059,1.237,0.059c0.905,0.027,1.87,0.035,2.896,0.021c1.025-0.013,2.016-0.04,2.976-0.079
				c0.958-0.04,1.856-0.079,2.695-0.12c0.838-0.039,1.524-0.086,2.057-0.14c0.026-0.266,0.053-0.585,0.08-0.957
				c0.026-0.372,0.046-0.744,0.06-1.116c0.013-0.372,0.026-0.737,0.04-1.098c0.014-0.358,0.021-0.669,0.021-0.936
				c-0.719-0.025-1.498-0.033-2.337-0.02c-0.838,0.014-1.691,0.039-2.556,0.08c-0.866,0.039-1.717,0.093-2.556,0.16
				c-0.839,0.066-1.617,0.126-2.337,0.179c-0.745,0.053-1.424,0.179-2.037,0.378c-0.612,0.2-1.052,0.365-1.317,0.499
				c-0.267-0.08-0.579-0.193-0.939-0.34c-0.359-0.145-0.713-0.305-1.058-0.478c-0.346-0.172-0.666-0.352-0.958-0.538
				c-0.293-0.185-0.506-0.345-0.64-0.479c-0.186-0.158-0.292-0.312-0.319-0.457c-0.027-0.146,0-0.266,0.08-0.359
				c0.079-0.093,0.192-0.166,0.339-0.219c0.146-0.053,0.299-0.066,0.459-0.04c0.16,0.026,0.379,0.054,0.659,0.079
				c0.279,0.026,0.565,0.054,0.858,0.079c0.292,0.027,0.579,0.055,0.859,0.08c0.28,0.027,0.499,0.041,0.659,0.041
				c0.985,0.053,2.056,0.073,3.214,0.06c1.159-0.013,2.283-0.04,3.375-0.08c1.091-0.04,2.089-0.08,2.995-0.12
				c0.905-0.04,1.624-0.071,2.157-0.099c0.772-0.053,1.538-0.1,2.296-0.141c0.759-0.039,1.284-0.086,1.578-0.139
				c0.453-0.053,0.766-0.006,0.939,0.139c0.173,0.147,0.259,0.313,0.259,0.499c0,0.187-0.046,0.405-0.139,0.658
				c-0.094,0.253-0.207,0.526-0.34,0.818c-0.159,0.639-0.346,1.316-0.559,2.034c-0.214,0.718-0.4,1.29-0.56,1.715
				c0.213-0.025,0.439-0.033,0.679-0.02c0.24,0.014,0.446,0.052,0.619,0.118c0.173,0.067,0.319,0.174,0.439,0.319
				c0.12,0.146,0.166,0.339,0.141,0.578c-0.027,0.373-0.207,0.612-0.54,0.719c-0.333,0.106-0.752,0.133-1.259,0.08
				c-1.491,0-2.861,0.006-4.112,0.02c-1.252,0.014-2.417,0.033-3.495,0.061c-1.079,0.026-2.077,0.058-2.995,0.099
				c-0.919,0.039-1.792,0.073-2.616,0.1c-0.027,0.133-0.04,0.3-0.04,0.499c0,0.2,0,0.313,0,0.339v2.792
				C89.362,219.125,89.641,219.486,90.201,219.486z M104.299,186.985c-0.054,0.318-0.114,0.757-0.18,1.315
				c-0.066,0.559-0.1,1.077-0.1,1.556v9.052c0,0.399-0.007,0.978-0.02,1.735c-0.015,0.757-0.067,1.509-0.16,2.252
				c-0.093,0.745-0.247,1.389-0.459,1.934c-0.213,0.545-0.52,0.817-0.918,0.817c-0.293,0-0.539-0.219-0.739-0.658
				c-0.2-0.438-0.299-1.11-0.299-2.014v-5.543c-0.586,0-1.152,0.021-1.697,0.061c-0.546,0.04-1.019,0.087-1.418,0.14
				c-0.906,0.159-1.611,0.372-2.117,0.637c-0.56-0.132-1.099-0.345-1.618-0.637c-0.52-0.293-0.939-0.585-1.258-0.878
				c-0.373-0.319-0.473-0.598-0.299-0.837c0.173-0.239,0.419-0.332,0.738-0.278c0.106,0.026,0.28,0.053,0.52,0.079
				c0.24,0.026,0.5,0.046,0.778,0.059c0.28,0.014,0.56,0.027,0.839,0.041c0.279,0.014,0.525,0.02,0.738,0.02
				c1.464,0,3.062-0.08,4.793-0.239v-6.659c-0.427-0.504-0.958-0.911-1.598-1.217c-0.639-0.305-1.172-0.523-1.597-0.657
				c-0.613-0.213-0.893-0.492-0.839-0.838c0.053-0.345,0.385-0.518,0.999-0.518c0.239,0,0.632,0.027,1.178,0.08
				c0.545,0.054,1.125,0.133,1.738,0.239c0.612,0.107,1.19,0.24,1.736,0.399S104.005,186.772,104.299,186.985z"/>
			<path fill="#FFFFFF" d="M124.267,211.709c-0.213,0.159-0.426,0.246-0.64,0.259c-0.213,0.014-0.386-0.025-0.519-0.119
				c-0.133-0.093-0.194-0.226-0.179-0.399c0.013-0.173,0.139-0.378,0.379-0.618c1.118-1.063,2.235-2.266,3.354-3.609
				c1.118-1.341,2.15-2.731,3.096-4.167c0.945-1.436,1.783-2.878,2.516-4.327c0.732-1.448,1.284-2.838,1.657-4.167
				c0.053-0.107,0.093-0.239,0.12-0.399c0.026-0.16,0.04-0.266,0.04-0.319c0.026-0.212-0.167-0.504-0.579-0.877
				c-0.414-0.372-1.033-0.691-1.857-0.957c-0.479-0.16-0.692-0.386-0.639-0.678c0-0.16,0.092-0.3,0.28-0.419
				c0.185-0.12,0.438-0.18,0.758-0.18s0.772,0.06,1.358,0.18c0.585,0.119,1.178,0.266,1.776,0.438
				c0.6,0.173,1.145,0.353,1.638,0.538c0.492,0.186,0.818,0.346,0.978,0.478c-0.026,0.134-0.073,0.319-0.14,0.559
				c-0.067,0.239-0.14,0.493-0.219,0.757c-0.293,0.931-0.653,1.901-1.079,2.911c-0.427,1.01-0.946,2.035-1.558,3.071
				c0.24,0.239,0.546,0.553,0.918,0.938c0.373,0.385,0.759,0.783,1.159,1.196c0.399,0.413,0.779,0.797,1.138,1.156
				c0.36,0.358,0.646,0.618,0.859,0.777c0.213,0.16,0.44,0.319,0.679,0.479c0.24,0.16,0.466,0.278,0.68,0.358
				c0.292,0.107,0.519,0.207,0.679,0.3c0.16,0.093,0.306,0.232,0.439,0.418c0.611,0.876,1.091,1.648,1.438,2.313
				c0.346,0.664,0.572,1.422,0.678,2.272c0.08,0.532-0.159,0.824-0.718,0.877c-0.399,0.026-0.999-0.452-1.797-1.436l-7.029-8.294
				c-1.305,2.074-2.802,4.055-4.493,5.942C127.748,208.851,126.024,210.434,124.267,211.709z M151.664,188.779v23.209
				c0,0.346,0,0.811,0,1.395c0,0.587-0.014,1.224-0.04,1.915c-0.026,0.692-0.08,1.389-0.16,2.094c-0.079,0.704-0.18,1.343-0.3,1.914
				c-0.12,0.572-0.279,1.037-0.479,1.396c-0.2,0.36-0.447,0.539-0.739,0.539c-0.586,0-0.878-1.649-0.878-4.945v-26.757
				c0-0.479-0.247-0.917-0.739-1.316c-0.493-0.398-1.231-0.783-2.216-1.156c-0.213-0.106-0.393-0.206-0.539-0.299
				c-0.147-0.094-0.22-0.207-0.22-0.339c0-0.134,0.1-0.279,0.299-0.439c0.2-0.159,0.5-0.239,0.898-0.239
				c0.187,0,0.533,0.026,1.039,0.08c0.506,0.053,1.045,0.126,1.618,0.219c0.572,0.094,1.111,0.194,1.618,0.3
				c0.506,0.106,0.838,0.199,0.998,0.278L151.664,188.779z"/>
			<path fill="#FFFFFF" d="M162.886,195.639c0-0.293-0.22-0.585-0.659-0.878c-0.44-0.292-1.166-0.57-2.176-0.837
				c-0.533-0.132-0.8-0.332-0.8-0.598c0-0.212,0.094-0.413,0.28-0.599c0.187-0.186,0.466-0.292,0.839-0.318
				c0.985-0.054,1.963-0.014,2.936,0.119c0.971,0.134,1.684,0.279,2.136,0.439c0.4-0.026,0.752-0.045,1.059-0.059
				c0.305-0.014,0.592-0.027,0.858-0.041c0.266-0.013,0.525-0.025,0.779-0.039c0.252-0.014,0.539-0.033,0.859-0.06
				c0.559-0.053,1.064-0.152,1.517-0.299c0.452-0.146,0.825-0.365,1.118-0.658c0.533,0,1.065,0.02,1.597,0.059
				c0.532,0.041,1.065,0.114,1.598,0.22c0.798,0.133,1.198,0.505,1.198,1.116c0,0.692-0.479,1.038-1.438,1.038
				c-0.932,0-1.751,0.006-2.456,0.02c-0.706,0.014-1.385,0.033-2.037,0.061c-0.652,0.026-1.337,0.047-2.056,0.06
				c-0.72,0.014-1.532,0.034-2.437,0.059v13.28c0,0.319,0.113,0.559,0.339,0.718c0.226,0.16,0.739,0.212,1.538,0.16
				c0.985-0.054,1.95-0.126,2.896-0.22c0.945-0.094,1.917-0.226,2.916-0.399c0.999-0.172,2.042-0.378,3.135-0.617
				c1.092-0.239,2.289-0.545,3.595-0.917v-14.356c0-0.372-0.086-0.698-0.26-0.978c-0.172-0.278-0.399-0.518-0.679-0.717
				c-0.28-0.2-0.599-0.372-0.958-0.52c-0.359-0.145-0.725-0.284-1.098-0.418c-0.48-0.186-0.72-0.398-0.72-0.638
				c0-0.159,0.094-0.318,0.28-0.479c0.187-0.159,0.466-0.239,0.839-0.239c0.186,0,0.532,0.033,1.038,0.1
				c0.506,0.066,1.052,0.14,1.638,0.22c0.585,0.08,1.131,0.173,1.637,0.278c0.505,0.107,0.838,0.2,0.998,0.279l-0.16,2.114v9.212
				l4.712-0.041v-10.727c0-0.479-0.246-0.917-0.738-1.316c-0.493-0.398-1.232-0.783-2.217-1.156
				c-0.213-0.106-0.393-0.206-0.539-0.299c-0.146-0.094-0.219-0.207-0.219-0.339c0-0.134,0.1-0.279,0.299-0.439
				c0.2-0.159,0.499-0.239,0.899-0.239c0.186,0,0.532,0.026,1.039,0.08c0.505,0.053,1.044,0.126,1.617,0.219
				c0.572,0.094,1.112,0.194,1.618,0.3c0.505,0.106,0.838,0.199,0.999,0.278l-0.16,2.154v23.209c0,0.346,0,0.811,0,1.395
				c0,0.587-0.007,1.224-0.021,1.915c-0.014,0.692-0.053,1.389-0.12,2.094c-0.066,0.704-0.159,1.343-0.279,1.914
				c-0.12,0.572-0.287,1.037-0.5,1.396c-0.213,0.36-0.479,0.539-0.798,0.539c-0.586,0-0.879-1.649-0.879-4.945v-14.276l-4.712,0.04
				v7.538c0,0.345,0,0.81,0,1.395s-0.007,1.223-0.02,1.914c-0.014,0.692-0.054,1.389-0.12,2.094c-0.067,0.704-0.16,1.341-0.28,1.914
				c-0.12,0.57-0.28,1.036-0.479,1.395c-0.2,0.359-0.46,0.539-0.779,0.539c-0.586,0-0.878-1.649-0.878-4.945V208
				c-2.13,0.718-4.333,1.382-6.609,1.994c-2.277,0.612-4.707,1.023-7.289,1.235c-0.64,0.055-1.165,0-1.578-0.158
				c-0.413-0.16-0.746-0.405-0.999-0.738c-0.253-0.332-0.426-0.731-0.52-1.197c-0.094-0.464-0.139-0.978-0.139-1.534V195.639z"/>
			<path fill="#FFFFFF" d="M200.506,216.773c0,0.691-0.106,1.362-0.32,2.014c-0.213,0.652-0.492,1.257-0.838,1.814
				c-0.346,0.559-0.753,1.063-1.218,1.515c-0.466,0.452-0.939,0.824-1.418,1.118c-0.399,0.24-0.679,0.24-0.838,0
				c-0.187-0.24-0.12-0.479,0.199-0.718c0.266-0.212,0.54-0.473,0.819-0.777c0.28-0.306,0.539-0.652,0.779-1.038
				s0.446-0.796,0.619-1.235c0.173-0.439,0.272-0.896,0.299-1.376c-0.906,0.105-1.591-0.04-2.057-0.439
				c-0.466-0.398-0.698-0.957-0.698-1.674c0-0.665,0.219-1.19,0.658-1.576c0.44-0.384,0.965-0.578,1.578-0.578
				c0.799,0,1.404,0.279,1.817,0.837C200.3,215.217,200.506,215.922,200.506,216.773z"/>
			<path fill="#FFFFFF" d="M235.451,191.93c-0.878,1.809-1.99,3.522-3.334,5.144s-2.783,3.11-4.313,4.467
				c-1.531,1.355-3.108,2.572-4.732,3.648c-1.625,1.076-3.169,1.974-4.633,2.691c-0.346,0.16-0.626,0.234-0.838,0.221
				c-0.214-0.014-0.353-0.087-0.419-0.221c-0.066-0.132-0.054-0.292,0.04-0.479c0.093-0.186,0.273-0.358,0.539-0.519
				c1.358-0.823,2.755-1.78,4.194-2.871c1.437-1.09,2.808-2.293,4.113-3.609c1.304-1.316,2.496-2.737,3.575-4.266
				c1.078-1.528,1.95-3.145,2.616-4.846c-0.453,0-0.985,0.008-1.598,0.021c-0.612,0.014-1.252,0.034-1.917,0.06
				c-0.666,0.027-1.318,0.06-1.957,0.1c-0.639,0.04-1.185,0.086-1.637,0.139c-0.533,0.055-1.032,0.146-1.498,0.279
				c-0.466,0.134-0.913,0.333-1.338,0.599c-0.319-0.08-0.665-0.192-1.038-0.339c-0.374-0.146-0.733-0.3-1.079-0.459
				c-0.347-0.16-0.653-0.325-0.918-0.499c-0.267-0.172-0.453-0.312-0.56-0.418c-0.16-0.16-0.24-0.332-0.24-0.519
				c0-0.372,0.306-0.492,0.918-0.359c0.612,0.106,1.198,0.167,1.758,0.181c0.559,0.014,1.104,0.02,1.637,0.02
				c0.479,0,1.091-0.006,1.837-0.02c0.745-0.014,1.544-0.041,2.396-0.08c0.852-0.041,1.704-0.074,2.556-0.101
				s1.598-0.065,2.237-0.119c0.425-0.025,0.798-0.105,1.118-0.239c0.32-0.133,0.545-0.24,0.679-0.319c0.24,0,0.539,0.014,0.899,0.04
				c0.359,0.026,0.725,0.066,1.098,0.119c0.32,0.055,0.539,0.154,0.659,0.3c0.12,0.146,0.18,0.325,0.18,0.537
				c0,0.188-0.213,0.546-0.639,1.077c-0.054,0.08-0.114,0.187-0.179,0.319C235.564,191.745,235.505,191.85,235.451,191.93z
				 M241.482,207.681c0.372-0.026,0.772-0.026,1.198,0c0.426,0.026,0.785,0.067,1.079,0.12c0.48,0.107,0.726,0.267,0.739,0.479
				c0.012,0.212,0.006,0.425-0.021,0.638c-0.053,0.453-0.127,0.811-0.218,1.077c-0.094,0.266-0.168,0.665-0.221,1.197
				c-0.052,0.504-0.107,1.056-0.16,1.655c-0.053,0.598-0.107,1.203-0.16,1.814c-0.052,0.612-0.105,1.203-0.16,1.775
				c-0.053,0.571-0.105,1.096-0.16,1.575c0.507,0.105,0.86,0.259,1.059,0.459c0.201,0.199,0.3,0.405,0.3,0.618
				c0,0.584-0.493,0.903-1.478,0.957c-2.21-0.054-4.32-0.067-6.331-0.04c-2.01,0.025-4.093,0.066-6.25,0.119
				c-0.026,0.267-0.139,0.572-0.339,0.918c-0.2,0.345-0.447,0.519-0.739,0.519c-0.374,0-0.633-0.173-0.779-0.519
				c-0.146-0.346-0.246-0.745-0.299-1.196l-0.678-8.973c-0.187-0.399-0.447-0.698-0.779-0.898c-0.333-0.198-0.752-0.377-1.258-0.537
				c-0.213-0.08-0.4-0.18-0.559-0.3c-0.16-0.118-0.24-0.245-0.24-0.378c0-0.132,0.099-0.279,0.299-0.439
				c0.2-0.16,0.499-0.238,0.899-0.238c0.611,0,1.351,0.046,2.216,0.139c0.865,0.094,1.697,0.18,2.496,0.259
				c1.543,0.054,3.015,0.054,4.413,0c1.398-0.053,2.816-0.132,4.253-0.24c0.452-0.053,0.825-0.125,1.118-0.218
				C241.016,207.927,241.268,207.814,241.482,207.681z M241.003,218.409c0.16,0,0.305-0.08,0.439-0.239v-8.255
				c-0.825,0-1.744,0-2.755,0c-1.012,0-2.017,0.014-3.015,0.04c-0.998,0.027-1.931,0.06-2.796,0.099
				c-0.865,0.041-1.564,0.074-2.096,0.099c-0.027,0.294-0.04,0.499-0.04,0.619c0,0.119,0,0.219,0,0.299v7.417
				c0.453,0,1.152,0,2.097,0s1.937,0,2.976,0s2.037-0.008,2.995-0.021C239.765,218.455,240.497,218.434,241.003,218.409z
				 M244.358,188.779v8.095c0.213-0.026,0.412-0.04,0.599-0.04c0.188,0,0.333,0,0.439,0c0.587-0.053,1.111-0.172,1.578-0.358
				c0.466-0.187,0.792-0.399,0.979-0.639c0.372,0,0.844,0.02,1.417,0.061c0.573,0.039,1.084,0.086,1.539,0.14
				c0.772,0.133,1.158,0.519,1.158,1.155c0,0.692-0.466,1.038-1.398,1.038c-0.959,0.026-2.005,0.047-3.136,0.06
				c-1.131,0.014-2.19,0.034-3.175,0.06v1.715c0,0.425-0.008,0.997-0.02,1.714c-0.014,0.718-0.074,1.422-0.179,2.114
				c-0.107,0.691-0.275,1.29-0.499,1.794c-0.229,0.505-0.554,0.759-0.98,0.759c-0.612,0-0.918-1.13-0.918-3.39v-13.519
				c0-0.479-0.247-0.917-0.739-1.316c-0.492-0.398-1.231-0.783-2.216-1.156c-0.213-0.106-0.393-0.206-0.539-0.299
				c-0.146-0.094-0.219-0.207-0.219-0.339c0-0.134,0.099-0.279,0.299-0.439c0.2-0.159,0.499-0.239,0.899-0.239
				c0.185,0,0.531,0.026,1.037,0.08c0.506,0.053,1.045,0.126,1.618,0.219c0.572,0.094,1.112,0.194,1.619,0.3
				c0.505,0.106,0.838,0.199,0.999,0.278L244.358,188.779z"/>
			<path fill="#FFFFFF" d="M255.82,211.709c-0.214,0.159-0.427,0.246-0.64,0.259c-0.214,0.014-0.386-0.025-0.519-0.119
				c-0.135-0.093-0.195-0.226-0.179-0.399c0.012-0.173,0.138-0.378,0.378-0.618c1.12-1.063,2.237-2.266,3.354-3.609
				c1.119-1.341,2.151-2.731,3.096-4.167c0.944-1.436,1.783-2.878,2.516-4.327c0.731-1.448,1.283-2.838,1.658-4.167
				c0.053-0.107,0.092-0.239,0.119-0.399s0.041-0.266,0.041-0.319c0.025-0.212-0.167-0.504-0.579-0.877
				c-0.413-0.372-1.033-0.691-1.858-0.957c-0.478-0.16-0.692-0.386-0.638-0.678c0-0.16,0.092-0.3,0.279-0.419
				c0.185-0.12,0.438-0.18,0.758-0.18s0.772,0.06,1.359,0.18c0.585,0.119,1.178,0.266,1.776,0.438s1.145,0.353,1.638,0.538
				c0.491,0.186,0.817,0.346,0.977,0.478c-0.025,0.134-0.072,0.319-0.138,0.559c-0.068,0.239-0.141,0.493-0.22,0.757
				c-0.292,0.931-0.653,1.901-1.079,2.911c-0.427,1.01-0.946,2.035-1.558,3.071c0.24,0.239,0.546,0.553,0.918,0.938
				c0.373,0.385,0.759,0.783,1.159,1.196c0.399,0.413,0.78,0.797,1.139,1.156c0.359,0.358,0.646,0.618,0.858,0.777
				s0.441,0.319,0.679,0.479c0.24,0.16,0.466,0.278,0.681,0.358c0.292,0.107,0.519,0.207,0.678,0.3
				c0.16,0.093,0.307,0.232,0.439,0.418c0.612,0.876,1.092,1.648,1.437,2.313c0.347,0.664,0.574,1.422,0.679,2.272
				c0.08,0.532-0.158,0.824-0.718,0.877c-0.399,0.026-0.998-0.452-1.798-1.436l-7.028-8.294c-1.305,2.074-2.802,4.055-4.493,5.942
				C259.301,208.851,257.578,210.434,255.82,211.709z M283.217,188.779v23.209c0,0.346,0,0.811,0,1.395
				c0,0.587-0.014,1.224-0.041,1.915c-0.025,0.692-0.08,1.389-0.16,2.094c-0.078,0.704-0.179,1.343-0.298,1.914
				c-0.121,0.572-0.279,1.037-0.479,1.396c-0.199,0.36-0.447,0.539-0.739,0.539c-0.585,0-0.877-1.649-0.877-4.945v-26.757
				c0-0.479-0.248-0.917-0.739-1.316c-0.493-0.398-1.232-0.783-2.217-1.156c-0.213-0.106-0.392-0.206-0.539-0.299
				c-0.148-0.094-0.22-0.207-0.22-0.339c0-0.134,0.1-0.279,0.3-0.439c0.199-0.159,0.5-0.239,0.897-0.239
				c0.188,0,0.533,0.026,1.04,0.08c0.505,0.053,1.045,0.126,1.617,0.219c0.573,0.094,1.111,0.194,1.618,0.3
				c0.505,0.106,0.839,0.199,0.999,0.278L283.217,188.779z"/>
			<path fill="#FFFFFF" d="M295.957,206.086c-0.347-0.026-0.726-0.101-1.139-0.219c-0.413-0.121-0.825-0.259-1.238-0.418
				c-0.411-0.16-0.811-0.339-1.197-0.54c-0.386-0.199-0.712-0.405-0.979-0.617c-0.185-0.132-0.326-0.279-0.419-0.439
				c-0.094-0.16-0.141-0.305-0.141-0.439c0-0.398,0.414-0.532,1.238-0.398c0.772,0.134,1.578,0.233,2.416,0.299
				c0.839,0.066,1.724,0.1,2.656,0.1c3.329,0,6.597-0.039,9.805-0.119c3.208-0.08,6.117-0.186,8.727-0.319
				c0.985-0.053,1.776-0.14,2.377-0.259c0.599-0.12,1.124-0.325,1.578-0.618c0.532,0.026,1.123,0.079,1.776,0.159
				c0.651,0.08,1.271,0.187,1.856,0.319c0.985,0.187,1.479,0.573,1.479,1.157c0,0.745-0.494,1.117-1.479,1.117
				c-0.24,0-0.698-0.021-1.376-0.06c-0.679-0.041-1.338-0.086-1.978-0.14c-0.4-0.025-0.985-0.039-1.757-0.039
				c-0.772,0-1.718,0-2.835,0c-1.252,0.026-2.57,0.053-3.955,0.079c-1.385,0.026-2.775,0.067-4.173,0.12
				c-1.398,0.054-2.789,0.107-4.173,0.16c-1.385,0.053-2.717,0.107-3.994,0.16c-0.533,0.054-1.065,0.153-1.597,0.299
				C296.9,205.575,296.409,205.793,295.957,206.086z M315.726,192.727c0.505,0.08,0.831,0.186,0.977,0.319
				c0.146,0.133,0.22,0.306,0.22,0.519c0,0.611-0.439,0.917-1.318,0.917l-14.337,0.278v3.031c0,0.665,0.345,0.997,1.038,0.997
				l8.826-0.04c0.745,0,1.378-0.105,1.897-0.319c0.519-0.212,0.899-0.424,1.139-0.638c0.692,0.054,1.283,0.106,1.776,0.16
				c0.493,0.054,0.965,0.133,1.417,0.239c0.692,0.16,1.04,0.519,1.04,1.077c0,0.666-0.479,0.997-1.439,0.997l-15.255,0.041
				c-2.077,0-3.114-1.024-3.114-3.071v-1.955c-0.375-0.61-1.105-1.05-2.198-1.315c-0.505-0.106-0.758-0.292-0.758-0.558
				c0-0.186,0.099-0.346,0.3-0.479c0.199-0.132,0.511-0.2,0.938-0.2c0.719,0,1.363,0.021,1.936,0.06
				c0.574,0.041,1.073,0.114,1.498,0.22c0.107,0.027,0.234,0.074,0.38,0.14c0.146,0.066,0.285,0.126,0.419,0.179
				c0.852-0.027,1.804-0.053,2.855-0.08c1.051-0.026,2.118-0.047,3.196-0.061c1.079-0.013,2.135-0.033,3.175-0.059
				c1.038-0.026,1.983-0.054,2.835-0.08c0.16,0,0.306-0.08,0.439-0.24v-3.947c-0.505,0-1.225,0.007-2.157,0.02
				c-0.932,0.013-1.911,0.034-2.935,0.06c-1.026,0.027-2.011,0.06-2.956,0.099c-0.944,0.041-1.671,0.088-2.176,0.141
				c-0.612,0.053-1.172,0.165-1.677,0.339c-0.505,0.173-0.999,0.392-1.478,0.658c-0.373-0.08-0.759-0.207-1.159-0.38
				c-0.397-0.172-0.778-0.352-1.137-0.538c-0.361-0.186-0.679-0.366-0.959-0.539c-0.279-0.171-0.485-0.312-0.618-0.418
				c-0.16-0.159-0.24-0.331-0.24-0.518c0-0.372,0.345-0.492,1.038-0.358c0.692,0.106,1.359,0.166,1.997,0.179
				c0.64,0.014,1.266,0.02,1.878,0.02c0.532,0,1.25,0,2.157,0c0.905,0,1.862-0.013,2.875-0.039c1.012-0.027,2.024-0.047,3.036-0.061
				s1.89-0.047,2.637-0.1c0.478-0.027,0.897-0.107,1.258-0.239c0.358-0.132,0.604-0.24,0.739-0.319c0.345,0,0.751,0.02,1.217,0.061
				c0.466,0.039,0.844,0.085,1.139,0.139c0.452,0.106,0.692,0.266,0.717,0.478c0.027,0.214,0.014,0.426-0.039,0.639
				c-0.054,0.372-0.132,0.71-0.24,1.017c-0.107,0.306-0.212,0.697-0.32,1.176L315.726,192.727z M316.484,213.584
				c0.505,0.105,0.858,0.245,1.057,0.418c0.201,0.173,0.3,0.365,0.3,0.579c0,0.584-0.494,0.903-1.478,0.956l-14.417,0.28v3.27
				c0,0.664,0.345,0.997,1.038,0.997l9.187-0.04c0.745,0,1.377-0.106,1.897-0.319c0.519-0.213,0.897-0.426,1.137-0.638
				c0.692,0,1.346,0.033,1.958,0.1c0.612,0.066,1.145,0.152,1.597,0.259c0.692,0.212,1.038,0.584,1.038,1.118
				c0,0.664-0.478,0.997-1.438,0.997l-15.975,0.039c-1.038,0-1.817-0.226-2.336-0.678c-0.519-0.452-0.778-1.184-0.778-2.193v-2.392
				c-0.375-0.611-1.106-1.05-2.198-1.316c-0.505-0.106-0.759-0.292-0.759-0.559c0-0.185,0.1-0.345,0.3-0.478
				c0.199-0.133,0.513-0.2,0.938-0.2c0.72,0,1.365,0.02,1.937,0.061c0.573,0.039,1.073,0.113,1.498,0.219
				c0.107,0.026,0.234,0.073,0.38,0.14c0.146,0.066,0.287,0.126,0.419,0.179c0.852-0.025,1.804-0.052,2.854-0.08
				c1.053-0.025,2.13-0.045,3.235-0.059c1.105-0.013,2.176-0.033,3.216-0.06c1.037-0.026,1.983-0.053,2.835-0.08
				c0.16,0,0.307-0.08,0.439-0.239v-4.068c-0.505,0-1.225,0.007-2.157,0.02c-0.932,0.014-1.917,0.034-2.954,0.061
				c-1.04,0.027-2.038,0.061-2.996,0.099c-0.959,0.041-1.69,0.088-2.198,0.141c-0.612,0.053-1.172,0.165-1.677,0.338
				c-0.505,0.173-0.999,0.393-1.478,0.658c-0.373-0.08-0.759-0.207-1.157-0.379c-0.399-0.171-0.78-0.352-1.139-0.538
				s-0.679-0.366-0.959-0.54c-0.279-0.171-0.485-0.311-0.618-0.418c-0.16-0.159-0.24-0.331-0.24-0.518
				c0-0.372,0.345-0.492,1.037-0.358c0.692,0.106,1.359,0.165,1.997,0.179c0.64,0.014,1.266,0.02,1.878,0.02
				c0.532,0,1.252,0,2.157,0s1.87-0.013,2.896-0.039c1.023-0.027,2.042-0.046,3.054-0.06c1.012-0.014,1.892-0.047,2.636-0.099
				c0.48-0.027,0.899-0.107,1.258-0.24c0.361-0.132,0.606-0.24,0.739-0.319c0.345,0,0.752,0.02,1.219,0.06
				c0.466,0.039,0.844,0.086,1.137,0.14c0.453,0.106,0.692,0.266,0.72,0.478c0.027,0.214,0.014,0.426-0.039,0.639
				c-0.055,0.372-0.141,0.717-0.259,1.036c-0.121,0.319-0.22,0.705-0.3,1.157L316.484,213.584z"/>
			<path fill="#FFFFFF" d="M348.832,196.077c0,0.824,0.347,1.209,1.039,1.157l9.345-0.24c0.612-0.052,1.172-0.173,1.677-0.358
				c0.507-0.188,0.825-0.373,0.959-0.56c0.532,0,1.111,0.02,1.737,0.061c0.624,0.039,1.203,0.113,1.737,0.219
				c0.798,0.134,1.197,0.492,1.197,1.076c0,0.692-0.479,1.038-1.437,1.038l-8.108,0.119v4.188c1.2-0.054,2.35-0.101,3.456-0.14
				c1.104-0.04,2.163-0.085,3.175-0.14c0.985-0.053,1.776-0.14,2.377-0.259c0.599-0.119,1.124-0.325,1.578-0.618
				c0.532,0.026,1.124,0.079,1.776,0.159c0.651,0.08,1.271,0.186,1.856,0.319c0.985,0.186,1.479,0.571,1.479,1.155
				c0,0.746-0.494,1.118-1.479,1.118c-0.24,0-0.698-0.021-1.376-0.061s-1.338-0.085-1.978-0.14
				c-0.399-0.025-0.985-0.039-1.757-0.039c-0.772,0-1.718,0-2.835,0c-1.252,0.027-2.57,0.054-3.955,0.08
				c-1.385,0.026-2.775,0.066-4.173,0.119c-1.398,0.055-2.789,0.107-4.173,0.16c-1.385,0.055-2.716,0.107-3.994,0.16
				c-0.532,0.054-1.065,0.154-1.597,0.3c-0.534,0.146-1.026,0.365-1.478,0.658c-0.347-0.027-0.726-0.1-1.139-0.22
				c-0.413-0.12-0.825-0.259-1.238-0.418c-0.411-0.16-0.811-0.339-1.197-0.539s-0.711-0.405-0.979-0.618
				c-0.185-0.132-0.326-0.278-0.419-0.438c-0.094-0.16-0.141-0.306-0.141-0.439c0-0.397,0.414-0.531,1.238-0.397
				c0.772,0.132,1.578,0.231,2.416,0.298c0.839,0.067,1.724,0.1,2.656,0.1c3.169,0,6.258-0.04,9.267-0.119v-4.187l-5.193,0.079
				c-2.022,0.054-3.035-1.076-3.035-3.389v-4.427c0-0.638-1.012-1.209-3.036-1.714c-0.532-0.133-0.797-0.333-0.797-0.598
				c0-0.213,0.092-0.413,0.279-0.599c0.185-0.186,0.466-0.292,0.838-0.318c0.48-0.027,0.985-0.027,1.517,0
				c0.533,0.026,1.04,0.066,1.519,0.119c0.478,0.054,0.918,0.12,1.316,0.2c0.4,0.08,0.706,0.16,0.92,0.239
				c1.703-0.053,3.334-0.092,4.891-0.119c1.558-0.026,3.175-0.066,4.854-0.12c0.558,0,1.064-0.08,1.517-0.24
				c0.452-0.158,0.825-0.384,1.117-0.677c0.532,0,1.092,0.021,1.677,0.059c0.587,0.041,1.145,0.114,1.679,0.22
				c0.798,0.132,1.198,0.504,1.198,1.116c0,0.692-0.48,1.038-1.438,1.038c-2.664,0.026-5.218,0.052-7.667,0.079
				c-2.451,0.026-5.006,0.066-7.669,0.119V196.077z M362.691,207.124c0.345,0,0.712,0.014,1.098,0.039
				c0.386,0.026,0.726,0.066,1.018,0.12c0.427,0.053,0.673,0.174,0.739,0.358c0.066,0.187,0.074,0.427,0.021,0.719
				c-0.08,0.345-0.174,0.651-0.281,0.917c-0.107,0.266-0.185,0.545-0.24,0.837c-0.105,0.505-0.199,0.997-0.279,1.476
				c-0.08,0.479-0.173,0.97-0.279,1.475c0.93,0.187,1.396,0.52,1.396,0.997c0,0.585-0.492,0.905-1.477,0.957l-14.658,0.279v3.43
				c0,0.665,0.347,0.997,1.039,0.997l9.425-0.04c0.745,0,1.378-0.107,1.897-0.319c0.519-0.212,0.899-0.425,1.139-0.638
				c0.692,0,1.344,0.033,1.956,0.101c0.612,0.066,1.145,0.151,1.597,0.259c0.692,0.212,1.039,0.584,1.039,1.116
				c0,0.665-0.479,0.997-1.437,0.997l-16.215,0.041c-2.077,0-3.116-1.024-3.116-3.07v-2.353c-0.372-0.611-1.104-1.051-2.196-1.315
				c-0.507-0.107-0.758-0.293-0.758-0.559c0-0.187,0.1-0.345,0.298-0.479c0.201-0.132,0.513-0.198,0.94-0.198
				c0.718,0,1.363,0.02,1.937,0.06c0.571,0.04,1.07,0.113,1.498,0.219c0.105,0.027,0.232,0.074,0.38,0.14
				c0.144,0.066,0.285,0.126,0.419,0.179c0.85-0.026,1.815-0.053,2.894-0.08c1.078-0.026,2.184-0.047,3.315-0.061
				c1.131-0.013,2.231-0.033,3.295-0.059c1.065-0.026,2.022-0.053,2.875-0.079c0.16,0,0.306-0.08,0.441-0.239v-4.228
				c-0.507,0-1.238,0.007-2.198,0.019c-0.958,0.014-1.97,0.034-3.034,0.061c-1.065,0.026-2.09,0.06-3.075,0.1
				s-1.732,0.086-2.237,0.14c-0.612,0.052-1.172,0.166-1.677,0.339c-0.507,0.173-0.999,0.392-1.478,0.658
				c-0.373-0.08-0.758-0.207-1.158-0.38c-0.4-0.172-0.778-0.353-1.139-0.538c-0.359-0.187-0.679-0.366-0.958-0.539
				c-0.279-0.172-0.486-0.312-0.62-0.419c-0.158-0.159-0.238-0.332-0.238-0.518c0-0.372,0.345-0.492,1.038-0.359
				c0.692,0.106,1.357,0.166,1.997,0.18s1.264,0.02,1.878,0.02c0.532,0,1.269,0,2.215,0s1.95-0.014,3.015-0.04
				c1.064-0.026,2.124-0.045,3.176-0.059c1.051-0.014,1.95-0.047,2.695-0.101c0.479-0.026,0.913-0.106,1.298-0.238
				C362.297,207.309,362.558,207.203,362.691,207.124z"/>
			<path fill="#FFFFFF" d="M380.384,209.437c1.25-0.054,2.654-0.167,4.212-0.339c1.558-0.173,3.161-0.366,4.813-0.579
				c0.105-0.585,0.232-1.356,0.38-2.313c0.145-0.958,0.279-1.935,0.398-2.932c0.121-0.997,0.22-1.94,0.3-2.831
				s0.133-1.562,0.16-2.014c-0.055-0.239-0.314-0.491-0.778-0.757c-0.468-0.265-0.899-0.479-1.299-0.638
				c-0.56-0.24-0.772-0.492-0.64-0.758c0.133-0.265,0.466-0.385,0.999-0.358c0.373,0.027,0.806,0.074,1.299,0.14
				c0.491,0.066,0.971,0.153,1.437,0.259c0.466,0.105,0.885,0.219,1.258,0.339c0.373,0.118,0.64,0.232,0.8,0.338
				c-0.135,0.559-0.3,1.322-0.5,2.293c-0.201,0.971-0.419,2.001-0.659,3.091c-0.24,1.09-0.479,2.16-0.719,3.21
				s-0.466,1.934-0.679,2.651c1.652-0.238,3.227-0.49,4.733-0.757c1.503-0.266,2.841-0.532,4.013-0.798v-17.147
				c0-0.479-0.246-0.917-0.739-1.316c-0.491-0.398-1.23-0.783-2.215-1.156c-0.214-0.106-0.394-0.206-0.54-0.299
				c-0.146-0.094-0.218-0.207-0.218-0.339c0-0.134,0.099-0.279,0.298-0.439c0.201-0.159,0.499-0.239,0.899-0.239
				c0.185,0,0.532,0.026,1.037,0.08c0.507,0.053,1.045,0.126,1.619,0.219c0.571,0.094,1.112,0.194,1.617,0.3
				c0.507,0.106,0.838,0.199,0.999,0.278l-0.16,2.154v11.685c0.215-0.027,0.414-0.041,0.601-0.041c0.186,0,0.332,0,0.439,0
				c0.585-0.052,1.111-0.172,1.578-0.358c0.466-0.186,0.792-0.399,0.979-0.639c0.372,0,0.844,0.021,1.417,0.06
				c0.571,0.04,1.084,0.087,1.537,0.141c0.772,0.132,1.158,0.518,1.158,1.155c0,0.692-0.466,1.037-1.398,1.037
				c-0.958,0.027-2.003,0.047-3.134,0.061c-1.133,0.014-2.192,0.033-3.177,0.059v10.049c0,0.346,0,0.811,0,1.395
				c0,0.587-0.014,1.224-0.039,1.915c-0.027,0.692-0.08,1.389-0.16,2.094c-0.08,0.704-0.18,1.343-0.3,1.914
				c-0.119,0.572-0.279,1.037-0.478,1.396c-0.201,0.36-0.446,0.539-0.739,0.539c-0.587,0-0.879-1.649-0.879-4.945v-8.174
				c-1.118,0.319-2.411,0.638-3.873,0.957c-1.464,0.318-2.989,0.632-4.573,0.938c-1.585,0.306-3.163,0.584-4.733,0.837
				c-1.572,0.253-3.009,0.458-4.313,0.617c-0.665,0.107-1.238,0.226-1.718,0.359c-0.478,0.134-0.971,0.373-1.476,0.718
				c-0.347-0.105-0.706-0.239-1.079-0.399c-0.375-0.158-0.733-0.331-1.079-0.518c-0.347-0.185-0.667-0.379-0.959-0.578
				c-0.293-0.199-0.533-0.379-0.718-0.538c-0.24-0.187-0.361-0.413-0.361-0.679c0-0.452,0.361-0.624,1.079-0.519
				C377.466,209.475,378.892,209.516,380.384,209.437z M379.744,195.359c-0.612-0.105-1.252-0.312-1.917-0.617
				c-0.667-0.306-1.252-0.645-1.757-1.018c-0.455-0.318-0.679-0.624-0.679-0.917c0-0.345,0.359-0.478,1.076-0.398
				c0.56,0.08,1.219,0.139,1.978,0.179s1.55,0.047,2.377,0.02c1.542-0.025,2.949-0.086,4.212-0.179
				c1.266-0.093,2.523-0.193,3.775-0.299c0.853-0.08,1.543-0.186,2.077-0.319c0.532-0.132,1.01-0.346,1.437-0.638
				c0.48,0.027,0.993,0.074,1.539,0.14c0.544,0.067,1.043,0.153,1.498,0.26c0.877,0.212,1.316,0.625,1.316,1.235
				c0,0.825-0.439,1.237-1.316,1.237c-0.214,0-0.601-0.021-1.158-0.06c-0.56-0.041-1.119-0.087-1.679-0.14
				c-0.452-0.053-1.037-0.085-1.757-0.099c-0.718-0.014-1.476,0.006-2.275,0.059c-0.587,0.026-1.112,0.06-1.578,0.1
				c-0.466,0.039-0.932,0.086-1.398,0.14c-0.466,0.054-0.938,0.106-1.417,0.158c-0.48,0.055-1.038,0.121-1.677,0.201
				c-0.452,0.052-0.905,0.152-1.357,0.298C380.608,194.847,380.169,195.067,379.744,195.359z M383.059,207.761
				c-0.294,0.213-0.56,0.279-0.799,0.199c-0.24-0.08-0.359-0.279-0.359-0.598c0-0.639-0.047-1.356-0.141-2.154
				c-0.093-0.798-0.207-1.608-0.339-2.433c-0.132-0.824-0.3-1.602-0.499-2.333c-0.199-0.731-0.394-1.335-0.579-1.813
				c-0.08-0.213-0.1-0.394-0.061-0.54c0.041-0.146,0.127-0.245,0.259-0.299c0.135-0.054,0.287-0.06,0.46-0.021
				c0.173,0.041,0.339,0.154,0.499,0.34c0.24,0.239,0.519,0.624,0.838,1.156c0.32,0.532,0.646,1.123,0.979,1.775
				c0.332,0.651,0.638,1.342,0.918,2.074c0.279,0.73,0.486,1.429,0.618,2.093c-0.16,0.452-0.425,0.937-0.797,1.455
				C383.683,207.182,383.352,207.548,383.059,207.761z"/>
			<path fill="#FFFFFF" d="M416.126,197.154c-0.532-0.08-1.139-0.279-1.817-0.598c-0.679-0.319-1.244-0.665-1.696-1.038
				c-0.32-0.265-0.455-0.544-0.4-0.837c0.025-0.133,0.105-0.252,0.24-0.358c0.133-0.106,0.373-0.132,0.72-0.08
				c0.558,0.106,1.217,0.187,1.975,0.24c0.759,0.052,1.484,0.08,2.176,0.08c0.747,0,1.531-0.014,2.358-0.041
				c0.825-0.025,1.636-0.052,2.436-0.08c0.799-0.025,1.564-0.059,2.297-0.099c0.731-0.04,1.363-0.073,1.896-0.1
				c0.747-0.08,1.393-0.165,1.938-0.259c0.544-0.093,1.004-0.286,1.377-0.578c0.372,0.026,0.846,0.066,1.417,0.119
				c0.573,0.054,1.073,0.134,1.498,0.24c0.772,0.213,1.158,0.598,1.158,1.156c0,0.824-0.386,1.236-1.158,1.236
				c-0.185,0-0.571-0.026-1.158-0.08c-0.585-0.052-1.117-0.105-1.597-0.159c-0.4-0.053-0.952-0.073-1.658-0.061
				c-0.706,0.014-1.404,0.021-2.096,0.021c-0.532,0-1.105,0.014-1.718,0.04c-0.612,0.027-1.236,0.061-1.876,0.1
				c-0.64,0.041-1.277,0.079-1.917,0.12c-0.64,0.039-1.225,0.086-1.757,0.139c-0.427,0.055-0.879,0.14-1.359,0.26
				C416.926,196.656,416.499,196.862,416.126,197.154z M415.966,204.85c0-0.904,0.185-1.754,0.56-2.552
				c0.373-0.798,0.899-1.495,1.578-2.094c0.679-0.598,1.478-1.07,2.396-1.416s1.937-0.519,3.054-0.519
				c1.12,0,2.137,0.173,3.056,0.519s1.718,0.818,2.397,1.416c0.678,0.599,1.203,1.296,1.578,2.094
				c0.372,0.798,0.56,1.648,0.56,2.552c0,0.904-0.188,1.761-0.56,2.572c-0.375,0.811-0.894,1.529-1.558,2.153
				c-0.665,0.624-1.465,1.117-2.397,1.475c-0.932,0.359-1.956,0.539-3.075,0.539c-1.117,0-2.143-0.18-3.075-0.539
				c-0.932-0.358-1.729-0.851-2.395-1.475c-0.667-0.624-1.186-1.343-1.558-2.153C416.151,206.611,415.966,205.754,415.966,204.85z
				 M427.749,190.733c0,0.319-0.18,0.592-0.541,0.817c-0.358,0.226-0.764,0.339-1.217,0.339c-0.294,0-0.68,0-1.158,0
				c-0.479,0-0.979,0.007-1.498,0.021c-0.521,0.014-1.026,0.026-1.519,0.039c-0.492,0.014-0.897,0.034-1.217,0.061
				c-0.215-0.08-0.447-0.193-0.7-0.339c-0.253-0.146-0.513-0.313-0.778-0.499c-0.268-0.186-0.513-0.379-0.739-0.578
				s-0.392-0.38-0.499-0.538c-0.188-0.239-0.213-0.459-0.08-0.658c0.132-0.199,0.438-0.245,0.918-0.14
				c0.212,0.053,0.532,0.106,0.959,0.16c0.425,0.053,0.797,0.106,1.117,0.159c0.267,0.053,0.612,0.086,1.04,0.1
				c0.425,0.014,0.877,0.027,1.357,0.039c0.48,0.015,0.965,0.021,1.459,0.021c0.491,0,0.963,0,1.417,0
				C427.188,189.736,427.749,190.069,427.749,190.733z M418.683,204.85c0,0.665,0.119,1.283,0.359,1.854s0.579,1.077,1.018,1.515
				c0.44,0.438,0.951,0.785,1.539,1.037c0.585,0.253,1.238,0.379,1.956,0.379c0.72,0,1.371-0.126,1.958-0.379
				c0.585-0.252,1.098-0.599,1.537-1.037c0.441-0.438,0.78-0.943,1.02-1.515c0.238-0.571,0.358-1.189,0.358-1.854
				c0-0.638-0.121-1.243-0.358-1.814c-0.24-0.572-0.579-1.071-1.02-1.495c-0.439-0.426-0.952-0.766-1.537-1.018
				c-0.587-0.252-1.238-0.379-1.958-0.379c-0.717,0-1.371,0.127-1.956,0.379c-0.587,0.252-1.098,0.592-1.539,1.018
				c-0.439,0.424-0.778,0.923-1.018,1.495C418.802,203.607,418.683,204.212,418.683,204.85z M439.25,188.779v12.242
				c0.212-0.026,0.411-0.04,0.599-0.04c0.187,0,0.333,0,0.438,0c0.587-0.052,1.112-0.173,1.578-0.358
				c0.466-0.188,0.792-0.399,0.979-0.639c0.373,0,0.844,0.019,1.417,0.06c0.573,0.039,1.084,0.085,1.539,0.138
				c0.772,0.135,1.159,0.519,1.159,1.156c0,0.692-0.466,1.038-1.398,1.038c-0.959,0.026-2.004,0.047-3.136,0.06
				c-1.131,0.014-2.19,0.034-3.174,0.06v9.491c0,0.346,0,0.811,0,1.395c0,0.587-0.014,1.224-0.041,1.915
				c-0.025,0.692-0.078,1.389-0.158,2.094c-0.08,0.704-0.181,1.343-0.3,1.914c-0.119,0.572-0.279,1.037-0.479,1.396
				c-0.199,0.36-0.447,0.539-0.739,0.539c-0.585,0-0.877-1.649-0.877-4.945v-26.757c0-0.479-0.248-0.917-0.739-1.316
				c-0.493-0.398-1.232-0.783-2.217-1.156c-0.212-0.106-0.392-0.206-0.538-0.299c-0.146-0.094-0.22-0.207-0.22-0.339
				c0-0.134,0.1-0.279,0.3-0.439c0.199-0.159,0.499-0.239,0.899-0.239c0.185,0,0.53,0.026,1.038,0.08
				c0.505,0.053,1.045,0.126,1.616,0.219c0.574,0.094,1.112,0.194,1.619,0.3c0.505,0.106,0.839,0.199,0.999,0.278L439.25,188.779z"
				/>
			<path fill="#FFFFFF" d="M454.105,207.283c-0.345-0.027-0.726-0.101-1.137-0.22c-0.414-0.119-0.827-0.259-1.238-0.419
				c-0.414-0.159-0.813-0.339-1.199-0.537c-0.386-0.201-0.712-0.405-0.977-0.619c-0.187-0.133-0.328-0.279-0.419-0.438
				c-0.094-0.16-0.141-0.306-0.141-0.438c0-0.399,0.412-0.531,1.238-0.399c0.772,0.132,1.578,0.232,2.416,0.299
				c0.839,0.067,1.724,0.1,2.656,0.1c3.327,0,6.595-0.041,9.805-0.121c3.208-0.08,6.115-0.185,8.727-0.319
				c0.983-0.053,1.776-0.138,2.375-0.259c0.599-0.119,1.125-0.325,1.578-0.617c0.532,0.026,1.125,0.08,1.776,0.16
				c0.653,0.08,1.271,0.186,1.858,0.318c0.985,0.186,1.476,0.571,1.476,1.156c0,0.745-0.491,1.117-1.476,1.117
				c-0.24,0-0.7-0.02-1.378-0.061c-0.679-0.039-1.338-0.085-1.978-0.139c-0.398-0.026-0.985-0.04-1.757-0.04
				c-0.772,0-1.716,0-2.835,0c-1.252,0.027-2.57,0.053-3.953,0.08c-1.385,0.027-2.777,0.066-4.173,0.12
				c-1.398,0.054-2.791,0.106-4.175,0.159c-1.385,0.054-2.715,0.106-3.994,0.159c-0.533,0.055-1.065,0.154-1.597,0.3
				C455.051,206.771,454.558,206.991,454.105,207.283z M456.463,192.089c0-0.479-0.24-0.871-0.72-1.176
				c-0.479-0.306-1.211-0.632-2.196-0.978c-0.507-0.185-0.758-0.398-0.758-0.639c0-0.132,0.099-0.278,0.298-0.438
				c0.201-0.16,0.499-0.24,0.899-0.24c0.185,0,0.532,0.02,1.037,0.06c0.507,0.039,1.045,0.086,1.619,0.14
				c0.571,0.054,1.112,0.12,1.617,0.199c0.507,0.08,0.838,0.16,0.999,0.239l-0.16,2.154v5.303c0,0.745,0.347,1.117,1.04,1.117
				c3.301,0,6.589-0.04,9.863-0.12c0.507-0.026,0.999-0.119,1.478-0.279c0.48-0.159,0.853-0.358,1.12-0.598
				c0.77,0,1.523,0.033,2.256,0.1c0.731,0.067,1.283,0.153,1.658,0.259c0.265,0.107,0.486,0.247,0.659,0.419
				c0.171,0.172,0.259,0.379,0.259,0.618c0,0.664-0.479,1.011-1.439,1.036c-2.769,0.055-5.53,0.093-8.286,0.121
				c-2.756,0.026-5.519,0.039-8.288,0.039c-2.102,0-3.089-1.129-2.954-3.389V192.089z M457.34,213.982
				c0-0.478-0.24-0.871-0.718-1.177c-0.479-0.305-1.213-0.631-2.198-0.977c-0.505-0.186-0.758-0.398-0.758-0.637
				c0-0.132,0.1-0.28,0.3-0.439c0.199-0.159,0.499-0.239,0.899-0.239c0.185,0,0.53,0.02,1.038,0.06
				c0.505,0.04,1.045,0.086,1.616,0.139c0.574,0.054,1.112,0.12,1.619,0.199c0.505,0.08,0.838,0.16,0.999,0.239l-0.16,2.154v4.386
				c0,0.744,0.345,1.117,1.038,1.117c1.679,0,3.329-0.014,4.953-0.04c1.625-0.027,3.274-0.066,4.951-0.12
				c0.507-0.026,0.999-0.119,1.478-0.279c0.48-0.159,0.853-0.358,1.12-0.598c0.772,0,1.523,0.033,2.256,0.1
				c0.731,0.066,1.283,0.153,1.658,0.259c0.265,0.107,0.486,0.246,0.659,0.42c0.171,0.172,0.259,0.378,0.259,0.618
				c0,0.664-0.479,1.009-1.439,1.036c-2.794,0.053-5.563,0.1-8.305,0.14c-2.744,0.04-5.513,0.061-8.307,0.061
				c-2.104,0-3.089-1.132-2.957-3.39V213.982z"/>
		</g>
		<g>
			<path fill="#FFFFFF" d="M30.188,253.173c-1.042,1.898-2.139,3.672-3.293,5.321c-1.153,1.65-2.319,3.221-3.497,4.712
				c0.588,0.498,1.324,1.073,2.207,1.729c0.883,0.655,1.573,1.142,2.071,1.457c0.316,0.181,0.679,0.362,1.086,0.542
				c0.408,0.181,0.792,0.317,1.154,0.407c0.77,0.135,1.381,0.429,1.833,0.881c0.77,0.858,1.448,1.718,2.037,2.576
				c0.588,0.858,1.063,1.56,1.425,2.102c0.226,0.406,0.396,0.78,0.51,1.119c0.112,0.339,0.213,0.644,0.305,0.915
				c0.226,0.77-0.136,1.266-1.086,1.491c-0.499,0.045-1.449-0.587-2.852-1.898l-10.319-9.423c-2.988,3.389-6.123,6.351-9.403,8.881
				c-3.282,2.531-6.688,4.813-10.217,6.847c-0.499,0.271-0.928,0.384-1.29,0.339c-0.364-0.045-0.611-0.18-0.747-0.407
				c-0.137-0.226-0.148-0.519-0.034-0.881c0.112-0.361,0.396-0.679,0.848-0.949c4.617-3.119,9.03-6.902,13.239-11.355
				c4.21-4.451,7.762-9.592,10.66-15.421c-0.771,0.045-1.62,0.079-2.547,0.101c-0.928,0.023-1.89,0.056-2.885,0.101
				c-0.996,0.046-1.968,0.092-2.919,0.137s-1.811,0.112-2.58,0.202c-0.906,0.092-1.755,0.249-2.546,0.476
				c-0.792,0.226-1.551,0.565-2.274,1.016c-0.543-0.135-1.132-0.327-1.765-0.577c-0.635-0.247-1.246-0.508-1.833-0.778
				c-0.589-0.272-1.11-0.553-1.562-0.848c-0.453-0.294-0.77-0.531-0.951-0.712c-0.271-0.271-0.407-0.564-0.407-0.881
				c0-0.632,0.52-0.836,1.562-0.61c1.04,0.181,2.037,0.283,2.987,0.306c0.951,0.023,1.877,0.033,2.784,0.033
				c0.814,0,1.799-0.01,2.954-0.033c1.153-0.022,2.376-0.068,3.666-0.137c1.29-0.068,2.59-0.124,3.904-0.169
				c1.312-0.045,2.512-0.112,3.598-0.203c0.724-0.045,1.358-0.181,1.901-0.407c0.543-0.226,0.927-0.407,1.155-0.543
				c0.406,0,0.938,0.023,1.595,0.068c0.655,0.046,1.301,0.113,1.935,0.204c0.815,0.135,1.223,0.474,1.223,1.018
				c0,0.498-0.08,0.892-0.238,1.186c-0.159,0.294-0.329,0.576-0.509,0.847c-0.136,0.228-0.295,0.43-0.476,0.61
				C30.414,252.744,30.278,252.947,30.188,253.173z M18.781,286.391c0-0.814-0.406-1.48-1.222-2c-0.815-0.52-2.06-1.073-3.734-1.661
				c-0.86-0.316-1.29-0.679-1.29-1.084c0-0.226,0.17-0.475,0.51-0.746c0.339-0.271,0.848-0.407,1.527-0.407
				c0.316,0,0.905,0.033,1.766,0.102c0.859,0.068,1.775,0.147,2.75,0.237c0.972,0.092,1.889,0.203,2.75,0.339
				c0.859,0.135,1.426,0.271,1.698,0.407l-0.272,3.66v10.034c0,1.264,0.588,1.897,1.766,1.897l14.257-0.067
				c0.86,0,1.698-0.148,2.513-0.441c0.814-0.295,1.448-0.644,1.9-1.05c1.313,0,2.59,0.055,3.836,0.169
				c1.244,0.112,2.183,0.259,2.817,0.44c0.453,0.18,0.826,0.417,1.121,0.713c0.294,0.292,0.441,0.644,0.441,1.049
				c0,1.221-0.815,1.831-2.444,1.831l-25.664,0.068c-3.575,0-5.25-1.922-5.024-5.762V286.391z M47.568,246.122v29.354
				c0,0.724-0.012,1.695-0.033,2.915c-0.023,1.22-0.125,2.418-0.306,3.593c-0.181,1.176-0.464,2.193-0.848,3.05
				c-0.385,0.86-0.94,1.288-1.664,1.288c-1.042,0-1.562-1.919-1.562-5.762v-33.15c0-0.813-0.418-1.559-1.256-2.236
				c-0.838-0.679-2.095-1.334-3.768-1.967c-0.364-0.18-0.669-0.35-0.917-0.508s-0.373-0.351-0.373-0.577
				c0-0.226,0.169-0.475,0.509-0.745s0.849-0.407,1.527-0.407c0.317,0,0.906,0.046,1.766,0.137c0.859,0.09,1.775,0.214,2.75,0.372
				c0.973,0.16,1.89,0.329,2.75,0.508c0.859,0.181,1.425,0.34,1.697,0.475L47.568,246.122z"/>
			<path fill="#FFFFFF" d="M104.869,249.581v17.287c0,0.588-0.012,1.378-0.033,2.372c-0.023,0.995-0.125,1.978-0.306,2.95
				c-0.181,0.972-0.464,1.82-0.848,2.542c-0.385,0.723-0.94,1.084-1.664,1.084c-0.724,0-1.2-0.789-1.425-2.372l-8.962,0.135v12.745
				c3.62-0.045,7.173-0.18,10.659-0.407c1.72-0.089,3.1-0.259,4.142-0.508c1.041-0.247,1.969-0.621,2.784-1.119
				c0.905,0.046,1.935,0.135,3.089,0.271c1.154,0.136,2.251,0.316,3.292,0.542c1.72,0.362,2.58,1.063,2.58,2.102
				c0,1.401-0.86,2.102-2.58,2.102c-0.452,0-1.188-0.034-2.206-0.102c-1.018-0.068-2.252-0.17-3.7-0.306
				c-0.589-0.045-1.584-0.078-2.988-0.101c-1.403-0.023-3.101-0.035-5.091-0.035c-4.437,0.091-8.872,0.205-13.307,0.34
				c-4.437,0.135-8.918,0.316-13.443,0.542c-0.906,0.091-1.822,0.261-2.75,0.508c-0.928,0.25-1.799,0.622-2.614,1.119
				c-0.635-0.044-1.313-0.169-2.037-0.373c-0.725-0.204-1.449-0.452-2.172-0.746c-0.725-0.293-1.416-0.609-2.071-0.948
				c-0.656-0.34-1.233-0.689-1.732-1.051c-0.317-0.226-0.555-0.485-0.712-0.78c-0.159-0.293-0.237-0.552-0.237-0.78
				c0-0.678,0.724-0.904,2.172-0.678c1.313,0.227,2.716,0.396,4.209,0.508c1.494,0.114,3.055,0.169,4.685,0.169
				c2.76,0,5.431-0.01,8.011-0.033c2.58-0.022,5.092-0.057,7.536-0.102v-12.745l-9.64,0.204c-0.228,0.859-0.522,1.581-0.884,2.169
				c-0.362,0.588-0.86,0.88-1.493,0.88c-1.042,0-1.562-1.581-1.562-4.746v-18.914c0-0.813-0.419-1.479-1.256-2
				c-0.838-0.519-2.094-1.095-3.769-1.728c-0.362-0.181-0.667-0.351-0.917-0.509c-0.249-0.158-0.373-0.35-0.373-0.575
				s0.169-0.476,0.509-0.746c0.34-0.271,0.849-0.407,1.528-0.407c0.316,0,0.893,0.023,1.731,0.067
				c0.837,0.046,1.731,0.126,2.682,0.238c0.951,0.113,1.855,0.227,2.716,0.338c0.859,0.114,1.47,0.237,1.833,0.373l-0.272,3.661
				v4.746l22.472-0.339v-5.559c0-0.813-0.418-1.559-1.256-2.237c-0.837-0.677-2.094-1.332-3.767-1.965
				c-0.364-0.181-0.669-0.35-0.917-0.509c-0.249-0.157-0.374-0.35-0.374-0.576c0-0.225,0.17-0.474,0.51-0.746
				s0.848-0.406,1.527-0.406c0.317,0,0.906,0.045,1.766,0.135c0.859,0.091,1.776,0.216,2.75,0.374
				c0.973,0.159,1.889,0.328,2.75,0.508c0.859,0.181,1.425,0.339,1.697,0.475L104.869,249.581z M77.984,269.274
				c0,0.474-0.023,1.005-0.068,1.592l22.541-0.338v-11.119l-22.472,0.339v8.272C77.984,268.382,77.984,268.799,77.984,269.274z"/>
			<path fill="#FFFFFF" d="M134.81,278.188c0,1.084,0.543,1.583,1.629,1.491c1.991-0.089,4.503-0.327,7.536-0.711
				c3.031-0.384,6.087-0.96,9.165-1.729c0.453-0.09,0.826-0.079,1.12,0.034c0.295,0.112,0.476,0.271,0.543,0.475
				c0.068,0.203,0.011,0.44-0.17,0.711c-0.181,0.271-0.521,0.499-1.018,0.679c-1.494,0.588-3.102,1.164-4.821,1.728
				c-1.721,0.566-3.407,1.075-5.059,1.526c-1.652,0.452-3.19,0.813-4.617,1.085c-1.425,0.271-2.591,0.406-3.496,0.406
				c-2.037,0-3.486-0.564-4.345-1.695c-0.861-1.13-1.29-2.712-1.29-4.746v-19.794c0-0.814-0.408-1.491-1.223-2.035
				c-0.814-0.541-2.06-1.085-3.733-1.626c-0.861-0.271-1.29-0.633-1.29-1.084c0-0.226,0.17-0.475,0.509-0.746
				c0.339-0.271,0.849-0.407,1.528-0.407c0.406,0,1.028,0.033,1.866,0.102c0.838,0.068,1.72,0.147,2.648,0.237
				c0.927,0.092,1.833,0.214,2.715,0.372c0.883,0.159,1.573,0.306,2.071,0.442l-0.271,3.661V278.188z M158.573,265.104
				c-1.042,0.046-2.049,0.126-3.022,0.237c-0.974,0.113-1.845,0.237-2.614,0.373c-0.996,0.181-1.946,0.566-2.851,1.153
				c-0.454-0.136-0.94-0.306-1.459-0.508c-0.521-0.204-1.042-0.418-1.562-0.645c-0.521-0.226-1.007-0.463-1.46-0.713
				c-0.452-0.247-0.814-0.484-1.086-0.71c-0.454-0.362-0.635-0.758-0.543-1.187c0.089-0.43,0.475-0.599,1.154-0.509
				c1.991,0.182,4.186,0.272,6.585,0.272c2.398,0,4.685-0.068,6.857-0.204V251.75c0-0.633-0.147-1.187-0.442-1.661
				c-0.294-0.476-0.679-0.882-1.154-1.221c-0.475-0.339-1.018-0.633-1.629-0.882c-0.61-0.248-1.233-0.485-1.867-0.711
				c-0.814-0.315-1.222-0.678-1.222-1.085c0-0.271,0.158-0.543,0.475-0.813c0.317-0.271,0.792-0.407,1.427-0.407
				c0.316,0,0.905,0.058,1.765,0.169c0.859,0.114,1.787,0.238,2.784,0.374c0.996,0.135,1.924,0.294,2.784,0.475
				c0.859,0.181,1.425,0.339,1.698,0.474l-0.272,3.594v31.455c0,0.588,0,1.379,0,2.373c0,0.995-0.023,2.08-0.067,3.255
				c-0.046,1.175-0.126,2.361-0.238,3.558c-0.113,1.198-0.284,2.283-0.509,3.255c-0.227,0.97-0.499,1.762-0.815,2.371
				c-0.317,0.612-0.725,0.916-1.222,0.916c-0.997,0-1.494-2.802-1.494-8.406V265.104z M174.323,246.122v39.455
				c0,0.588,0,1.378,0,2.373s-0.022,2.08-0.067,3.255c-0.046,1.175-0.136,2.36-0.272,3.558c-0.136,1.197-0.305,2.281-0.509,3.254
				c-0.204,0.971-0.475,1.763-0.815,2.372c-0.339,0.611-0.758,0.915-1.256,0.915c-0.996,0-1.494-2.802-1.494-8.406V247.41
				c0-0.813-0.418-1.559-1.256-2.236c-0.837-0.679-2.094-1.334-3.768-1.967c-0.364-0.18-0.669-0.35-0.917-0.508
				c-0.25-0.158-0.374-0.351-0.374-0.577c0-0.226,0.17-0.475,0.509-0.745s0.848-0.407,1.528-0.407c0.316,0,0.905,0.046,1.765,0.137
				c0.859,0.09,1.775,0.214,2.75,0.372c0.973,0.16,1.89,0.329,2.75,0.508c0.859,0.181,1.426,0.34,1.698,0.475L174.323,246.122z"/>
			<path fill="#FFFFFF" d="M194.419,289.78c-0.635-0.044-1.313-0.169-2.037-0.373c-0.724-0.203-1.449-0.452-2.172-0.746
				c-0.724-0.293-1.416-0.609-2.071-0.948c-0.656-0.34-1.233-0.689-1.731-1.052c-0.317-0.226-0.555-0.484-0.713-0.779
				c-0.159-0.294-0.237-0.553-0.237-0.781c0-0.678,0.723-0.903,2.172-0.678c1.312,0.227,2.715,0.396,4.209,0.508
				c1.494,0.114,3.055,0.169,4.685,0.169c5.792,0,11.213-0.056,16.26-0.169c5.046-0.112,9.855-0.281,14.427-0.508
				c1.72-0.089,3.1-0.259,4.142-0.508c1.041-0.247,1.969-0.621,2.784-1.118c0.905,0.046,1.935,0.135,3.089,0.271
				c1.155,0.135,2.251,0.316,3.293,0.541c1.72,0.362,2.58,1.063,2.58,2.102c0,1.401-0.86,2.102-2.58,2.102
				c-0.453,0-1.188-0.034-2.207-0.101c-1.018-0.068-2.252-0.17-3.7-0.306c-0.589-0.045-1.584-0.078-2.988-0.102
				c-1.403-0.023-3.101-0.034-5.091-0.034c-4.437,0.091-8.872,0.204-13.307,0.339c-4.437,0.136-8.917,0.316-13.443,0.542
				c-0.906,0.091-1.822,0.261-2.75,0.508C196.105,288.911,195.234,289.284,194.419,289.78z M201.955,261.917
				c2.717-0.044,5.636-0.101,8.759-0.169c3.123-0.068,5.974-0.124,8.554-0.169c1.087-0.044,2.048-0.237,2.886-0.576
				c0.836-0.339,1.368-0.666,1.595-0.983c0.951,0,1.89,0.035,2.818,0.102c0.927,0.068,1.844,0.193,2.75,0.373
				c1.358,0.227,2.037,0.859,2.037,1.898c0,1.084-0.815,1.65-2.444,1.694l-26.954,0.34v7.254c0,1.401,0.588,2.056,1.766,1.964
				l17.244-0.406c1.042-0.091,1.991-0.293,2.852-0.61c0.859-0.315,1.402-0.633,1.629-0.948c0.905,0,1.89,0.033,2.954,0.101
				c1.063,0.068,2.047,0.193,2.953,0.373c1.358,0.228,2.037,0.837,2.037,1.831c0,1.175-0.815,1.763-2.444,1.763l-28.447,0.406
				c-3.44,0.091-5.16-1.83-5.16-5.762v-15.727c0-1.085-1.72-2.057-5.16-2.915c-0.906-0.226-1.357-0.564-1.357-1.017
				c0-0.361,0.158-0.7,0.475-1.018c0.316-0.315,0.792-0.497,1.425-0.541c0.815-0.045,1.674-0.045,2.58,0
				c0.905,0.044,1.766,0.113,2.58,0.202c0.815,0.092,1.562,0.205,2.24,0.339c0.679,0.136,1.199,0.271,1.562,0.407
				c1.448-0.045,2.976-0.078,4.583-0.102c1.606-0.022,3.235-0.057,4.888-0.101c1.651-0.045,3.27-0.079,4.854-0.103
				c1.583-0.022,3.1-0.055,4.548-0.102c0.951,0,1.811-0.134,2.58-0.406c0.769-0.271,1.403-0.655,1.901-1.152
				c0.905,0,1.855,0.034,2.852,0.103c0.994,0.066,1.945,0.192,2.851,0.372c1.358,0.228,2.037,0.86,2.037,1.898
				c0,1.176-0.814,1.762-2.444,1.762c-4.526,0.047-9.256,0.092-14.19,0.137c-4.934,0.045-9.663,0.113-14.189,0.203V261.917z"/>
			<path fill="#FFFFFF" d="M288.111,274.731c-2.987,0.904-5.93,1.616-8.826,2.135c-2.897,0.52-5.725,0.961-8.486,1.322v10.847
				c0,0.678-0.012,1.65-0.033,2.916c-0.023,1.264-0.115,2.508-0.273,3.728c-0.158,1.22-0.417,2.281-0.78,3.187
				c-0.362,0.903-0.883,1.355-1.562,1.355c-0.542,0-0.984-0.372-1.324-1.118s-0.509-1.889-0.509-3.424V278.73
				c-1.041,0.091-2.047,0.169-3.021,0.238c-0.973,0.067-1.935,0.147-2.886,0.236c-0.95,0.092-1.877,0.306-2.783,0.645
				c-0.907,0.339-1.541,0.668-1.901,0.983c-1.178-0.271-2.434-0.746-3.768-1.423c-1.336-0.679-2.502-1.378-3.497-2.102
				c-0.273-0.181-0.476-0.407-0.612-0.679c-0.135-0.271-0.181-0.519-0.135-0.746c0.043-0.225,0.18-0.406,0.408-0.541
				c0.224-0.137,0.563-0.182,1.018-0.137c1.447,0.227,2.861,0.362,4.243,0.407c1.381,0.046,2.794,0.046,4.243,0
				c2.399-0.045,4.911-0.158,7.535-0.339c2.625-0.18,5.251-0.418,7.876-0.712c2.625-0.293,5.193-0.633,7.707-1.017
				c2.512-0.384,4.875-0.802,7.094-1.254c0.408-0.136,0.768-0.112,1.086,0.068c0.316,0.181,0.519,0.418,0.61,0.711
				c0.092,0.295,0.023,0.599-0.203,0.915C289.106,274.301,288.7,274.55,288.111,274.731z M253.623,258.325
				c0,1.627,0.361,3.13,1.086,4.507c0.724,1.38,1.753,2.555,3.089,3.526c1.334,0.972,2.907,1.728,4.719,2.271
				c1.81,0.542,3.8,0.814,5.973,0.814s4.177-0.271,6.01-0.814s3.417-1.299,4.752-2.271c1.333-0.972,2.375-2.146,3.122-3.526
				c0.747-1.377,1.122-2.88,1.122-4.507c0-1.672-0.375-3.187-1.122-4.542c-0.747-1.355-1.788-2.53-3.122-3.524
				c-1.336-0.994-2.919-1.762-4.752-2.305s-3.838-0.814-6.01-0.814s-4.163,0.271-5.973,0.814c-1.812,0.543-3.385,1.311-4.719,2.305
				c-1.336,0.995-2.365,2.169-3.089,3.524C253.983,255.139,253.623,256.653,253.623,258.325z M258.375,258.394
				c0-1.266,0.259-2.407,0.78-3.424c0.521-1.018,1.232-1.886,2.139-2.61c0.905-0.722,1.979-1.265,3.225-1.626
				c1.244-0.361,2.613-0.542,4.107-0.542s2.863,0.181,4.107,0.542c1.244,0.362,2.33,0.904,3.258,1.626
				c0.928,0.725,1.652,1.593,2.174,2.61c0.519,1.018,0.78,2.159,0.78,3.424s-0.262,2.406-0.78,3.423
				c-0.522,1.016-1.246,1.876-2.174,2.576c-0.928,0.701-2.014,1.233-3.258,1.593c-1.244,0.362-2.613,0.543-4.107,0.543
				s-2.863-0.181-4.107-0.543c-1.246-0.36-2.32-0.892-3.225-1.593c-0.907-0.7-1.619-1.56-2.139-2.576
				C258.634,260.8,258.375,259.659,258.375,258.394z M298.567,243.071c-0.092,0.543-0.193,1.289-0.306,2.237
				c-0.113,0.95-0.169,1.83-0.169,2.645v43.59c0,0.678-0.012,1.661-0.033,2.948c-0.023,1.289-0.115,2.564-0.273,3.831
				c-0.158,1.264-0.417,2.361-0.78,3.288c-0.363,0.926-0.883,1.39-1.562,1.39c-0.497,0-0.917-0.374-1.256-1.12
				c-0.339-0.746-0.509-1.887-0.509-3.423v-14.101c-0.542,0.047-1.154,0.114-1.833,0.204c-0.679,0.091-1.357,0.182-2.036,0.271
				c-0.68,0.091-1.314,0.181-1.901,0.271c-0.589,0.092-1.086,0.16-1.494,0.205c-0.815,0.181-1.505,0.35-2.071,0.508
				c-0.567,0.159-1.076,0.351-1.529,0.576c-0.95-0.226-1.878-0.599-2.783-1.12c-0.907-0.518-1.607-1.005-2.104-1.457
				c-0.636-0.543-0.806-1.017-0.509-1.423c0.293-0.407,0.712-0.564,1.256-0.475c0.18,0.044,0.474,0.079,0.882,0.101
				c0.407,0.023,0.85,0.046,1.324,0.068c0.476,0.023,0.952,0.045,1.426,0.068c0.476,0.023,0.893,0.033,1.256,0.033
				c0.68,0,1.437-0.01,2.275-0.033c0.837-0.023,1.708-0.068,2.613-0.137s1.81-0.146,2.716-0.237c0.905-0.09,1.741-0.202,2.512-0.339
				v-35.048c-0.724-0.857-1.63-1.547-2.716-2.067c-1.086-0.519-1.991-0.892-2.714-1.119c-1.042-0.361-1.518-0.835-1.426-1.423
				c0.09-0.587,0.655-0.882,1.697-0.882c0.407,0,1.074,0.047,2.002,0.137c0.928,0.091,1.911,0.226,2.955,0.407
				c1.039,0.181,2.024,0.406,2.952,0.677C297.356,242.394,298.068,242.711,298.567,243.071z"/>
			<path fill="#FFFFFF" d="M349.553,249.376c0.86-0.089,1.64-0.226,2.344-0.407c0.7-0.179,1.209-0.382,1.527-0.609
				c0.634-0.045,1.425-0.056,2.375-0.034c0.952,0.023,1.675,0.08,2.174,0.171c0.858,0.09,1.367,0.294,1.527,0.609
				c0.158,0.317,0.191,0.633,0.102,0.949c-0.135,0.678-0.328,1.379-0.577,2.102c-0.25,0.722-0.419,1.446-0.509,2.169
				c-0.271,1.943-0.646,4.27-1.119,6.982c-0.476,2.711-0.985,5.469-1.529,8.271c-0.542,2.803-1.098,5.491-1.664,8.067
				c-0.565,2.576-1.074,4.701-1.527,6.372c1.539-0.09,2.794-0.259,3.768-0.508c0.973-0.248,1.845-0.621,2.615-1.118
				c0.905,0.045,1.934,0.135,3.089,0.271c1.154,0.136,2.25,0.316,3.292,0.542c1.72,0.362,2.58,1.062,2.58,2.102
				c0,1.401-0.86,2.101-2.58,2.101c-0.452,0-1.188-0.034-2.206-0.102c-1.018-0.068-2.252-0.169-3.701-0.306
				c-0.589-0.045-1.583-0.078-2.987-0.102c-1.402-0.022-3.101-0.034-5.092-0.034c-4.436,0.09-8.871,0.204-13.307,0.339
				c-4.436,0.135-8.917,0.316-13.441,0.542c-0.907,0.091-1.823,0.261-2.75,0.508c-0.928,0.249-1.8,0.622-2.615,1.12
				c-0.634-0.044-1.313-0.169-2.036-0.374c-0.726-0.203-1.449-0.451-2.172-0.746c-0.726-0.293-1.416-0.609-2.071-0.948
				c-0.657-0.339-1.234-0.689-1.731-1.051c-0.318-0.226-0.556-0.485-0.714-0.779c-0.158-0.294-0.236-0.553-0.236-0.78
				c0-0.679,0.724-0.904,2.172-0.679c1.313,0.228,2.714,0.397,4.208,0.508c1.494,0.114,3.056,0.17,4.686,0.17
				c5.294,0,10.273-0.045,14.936-0.136c4.661-0.09,9.12-0.226,13.375-0.407c0.361-2.169,0.756-4.802,1.188-7.897
				c0.429-3.096,0.825-6.272,1.188-9.525c-1.946,0.407-3.949,0.814-6.008,1.221c-2.059,0.407-4.073,0.791-6.041,1.153
				c-1.97,0.362-3.85,0.689-5.636,0.982c-1.788,0.295-3.407,0.531-4.854,0.712c-1.133,0.136-2.094,0.294-2.886,0.475
				c-0.793,0.181-1.595,0.541-2.41,1.085c-1.178-0.407-2.434-0.938-3.768-1.593c-1.335-0.655-2.32-1.231-2.954-1.729
				c-0.227-0.18-0.419-0.395-0.577-0.645c-0.158-0.247-0.238-0.484-0.238-0.711c0-0.768,0.634-1.039,1.901-0.813
				c1.131,0.181,2.262,0.305,3.395,0.372c1.131,0.068,2.286,0.102,3.463,0.102c1.583,0,3.497-0.102,5.735-0.305
				c2.241-0.205,4.595-0.452,7.062-0.746c2.467-0.294,4.934-0.633,7.4-1.017c2.467-0.382,4.719-0.78,6.755-1.187
				c0.226-2.169,0.419-4.258,0.577-6.27c0.158-2.011,0.283-3.807,0.375-5.39c-1.357-0.09-3.136-0.137-5.33-0.137
				c-2.196,0-4.46,0.035-6.79,0.103s-4.547,0.169-6.653,0.305c-2.104,0.137-3.768,0.271-4.99,0.407
				c-0.905,0.092-1.753,0.227-2.545,0.407c-0.794,0.181-1.552,0.498-2.276,0.949c-0.542-0.135-1.143-0.349-1.798-0.643
				c-0.657-0.294-1.291-0.6-1.901-0.916c-0.61-0.316-1.166-0.633-1.663-0.95c-0.5-0.315-0.839-0.565-1.018-0.746
				c-0.273-0.271-0.408-0.586-0.408-0.948c0-0.633,0.519-0.835,1.562-0.611c1.04,0.181,2.036,0.284,2.985,0.305
				c0.952,0.023,1.878,0.034,2.785,0.034c1.81,0,3.845-0.011,6.109-0.034c2.264-0.021,4.516-0.068,6.757-0.135
				c2.239-0.067,4.354-0.135,6.347-0.204C346.589,249.545,348.241,249.468,349.553,249.376z"/>
			<path fill="#FFFFFF" d="M394.703,253.987c-0.362,1.401-0.782,2.791-1.255,4.169c-0.476,1.378-1.03,2.723-1.664,4.033l2.512,2.982
				c1.901,2.216,3.824,3.39,5.77,3.526c0.273,0.407,0.565,0.881,0.883,1.424c0.316,0.542,0.646,1.141,0.985,1.796
				s0.644,1.322,0.917,2c0.271,0.678,0.474,1.311,0.61,1.897c0.137,0.543,0.102,1.006-0.101,1.39
				c-0.205,0.386-0.476,0.656-0.815,0.814c-0.339,0.159-0.724,0.181-1.154,0.068c-0.431-0.113-0.827-0.417-1.188-0.915
				l-9.912-12.203c-1.449,2.576-3.192,5.027-5.228,7.355c-2.038,2.328-4.413,4.508-7.129,6.541
				c-0.453,0.362-0.872,0.543-1.256,0.543c-0.384,0-0.69-0.09-0.917-0.271c-0.227-0.18-0.328-0.441-0.306-0.78
				c0.023-0.339,0.238-0.712,0.646-1.119c3.395-3.389,6.246-7.106,8.555-11.151c2.309-4.044,3.848-8.056,4.618-12.033
				c-0.181-0.542-0.589-1.096-1.223-1.661c-0.634-0.564-1.357-1.05-2.172-1.458c-0.499-0.271-0.815-0.53-0.952-0.779
				c-0.134-0.249-0.134-0.475,0-0.678c0.137-0.204,0.375-0.373,0.714-0.51c0.339-0.134,0.711-0.179,1.119-0.134
				c0.771,0.09,1.585,0.236,2.445,0.44c0.858,0.204,1.673,0.463,2.443,0.78c0.771,0.316,1.461,0.644,2.071,0.982
				c0.61,0.338,1.074,0.667,1.392,0.983c-0.047,0.227-0.104,0.521-0.169,0.882C394.873,253.264,394.792,253.625,394.703,253.987z
				 M398.708,298.05c1.268,0.045,2.625,0.068,4.074,0.068c1.447,0,2.896-0.012,4.345-0.034c1.449-0.023,2.851-0.058,4.21-0.102
				c1.357-0.045,2.58-0.09,3.666-0.134c0.679-0.047,1.494-0.228,2.443-0.543c0.952-0.316,1.675-0.723,2.172-1.22
				c0.634-0.091,1.494-0.135,2.58-0.135c1.086,0,1.946,0.044,2.58,0.135c0.679,0.09,1.369,0.293,2.071,0.61
				c0.702,0.315,1.053,0.858,1.053,1.627c0,0.722-0.386,1.276-1.154,1.661c-0.771,0.383-1.72,0.552-2.851,0.508
				c-1.268-0.045-2.91-0.057-4.922-0.034c-2.016,0.022-4.154,0.044-6.417,0.068c-2.262,0.021-4.548,0.044-6.856,0.068
				c-2.309,0.021-4.392,0.033-6.246,0.033c-2.716,0-4.583-0.43-5.601-1.287c-1.02-0.859-1.529-2.374-1.529-4.542v-6.982
				c-0.542-0.768-1.256-1.344-2.137-1.729c-0.883-0.384-1.71-0.666-2.479-0.847c-0.499-0.136-0.872-0.315-1.121-0.542
				c-0.25-0.226-0.363-0.463-0.339-0.712c0.023-0.248,0.169-0.475,0.442-0.678c0.271-0.204,0.679-0.328,1.221-0.374
				c0.498-0.044,1.167-0.056,2.003-0.033c0.838,0.023,1.708,0.09,2.615,0.203c0.905,0.114,1.775,0.271,2.613,0.475
				c0.836,0.203,1.505,0.464,2.003,0.779c-0.092,0.588-0.17,1.3-0.238,2.136c-0.066,0.837-0.101,1.661-0.101,2.475v7.05
				C396.807,297.327,397.441,298.006,398.708,298.05z M414.324,246.937c-0.092,0.542-0.193,1.287-0.306,2.237
				c-0.113,0.948-0.169,1.83-0.169,2.643v21.219c0,0.678,0,1.661,0,2.949s-0.08,2.565-0.238,3.831
				c-0.16,1.266-0.419,2.362-0.78,3.287c-0.363,0.927-0.883,1.39-1.562,1.39c-0.499,0-0.917-0.373-1.256-1.119
				s-0.509-1.887-0.509-3.424v-17.015c-0.5,0.046-1.042,0.079-1.63,0.102s-1.086,0.079-1.494,0.169
				c-0.5,0.091-1.03,0.236-1.595,0.44c-0.565,0.203-1.077,0.439-1.527,0.711c-0.771-0.135-1.664-0.417-2.684-0.847
				c-1.018-0.429-1.798-0.893-2.342-1.389c-0.634-0.543-0.815-1.018-0.542-1.424c0.271-0.407,0.7-0.565,1.289-0.474
				c0.181,0.045,0.485,0.079,0.917,0.101c0.431,0.023,0.883,0.046,1.359,0.068c0.474,0.023,0.95,0.033,1.426,0.033
				c0.474,0,0.893,0,1.256,0c0.994,0,1.979-0.01,2.952-0.033c0.973-0.022,1.845-0.102,2.615-0.237v-9.897
				c-0.726-0.859-1.529-1.526-2.411-2c-0.883-0.476-1.663-0.825-2.342-1.052c-0.952-0.36-1.392-0.835-1.324-1.423
				c0.066-0.587,0.599-0.881,1.595-0.881c0.408,0,1.03,0.034,1.866,0.102c0.838,0.068,1.731,0.192,2.683,0.373
				c0.95,0.181,1.854,0.396,2.715,0.645C413.146,246.271,413.825,246.574,414.324,246.937z M425.254,243.071
				c-0.092,0.543-0.193,1.289-0.306,2.237c-0.113,0.95-0.17,1.83-0.17,2.645v27.862c0,0.679-0.012,1.661-0.033,2.949
				c-0.023,1.288-0.113,2.565-0.271,3.83c-0.16,1.266-0.419,2.362-0.782,3.289c-0.363,0.927-0.881,1.389-1.562,1.389
				c-1.131,0-1.697-1.514-1.697-4.542v-36.337c-0.723-0.857-1.574-1.547-2.546-2.067c-0.973-0.519-1.798-0.892-2.477-1.119
				c-0.997-0.361-1.461-0.835-1.393-1.423c0.068-0.587,0.622-0.882,1.664-0.882c0.407,0,1.041,0.047,1.901,0.137
				c0.858,0.091,1.786,0.226,2.782,0.407c0.997,0.181,1.937,0.406,2.818,0.677C424.067,242.394,424.755,242.711,425.254,243.071z"/>
			<path fill="#FFFFFF" d="M441.684,257.309c0-1.084-1.72-2.056-5.16-2.915c-0.905-0.226-1.357-0.564-1.357-1.018
				c0-0.361,0.158-0.7,0.476-1.018c0.316-0.315,0.79-0.496,1.426-0.542c0.815-0.044,1.673-0.044,2.58,0
				c0.905,0.046,1.765,0.114,2.58,0.203c0.815,0.092,1.562,0.204,2.241,0.339c0.678,0.137,1.197,0.271,1.562,0.407
				c1.537,0,3.155-0.033,4.854-0.102c1.696-0.068,3.292-0.169,4.785-0.306c0.952-0.089,1.81-0.247,2.58-0.474
				c0.771-0.226,1.404-0.587,1.901-1.085c0.905,0,1.856,0.034,2.853,0.102c0.995,0.068,1.944,0.192,2.851,0.373
				c1.357,0.227,2.036,0.859,2.036,1.899c0,1.176-0.815,1.762-2.443,1.762c-3.124,0.046-6.314,0.092-9.573,0.137
				c-3.259,0.044-6.451,0.112-9.573,0.202v11.729c1.131,0,2.443-0.034,3.937-0.102c1.494-0.068,2.761-0.146,3.803-0.238
				c0.95-0.089,1.81-0.213,2.58-0.372c0.769-0.157,1.402-0.484,1.901-0.983c1.718,0,3.393,0.068,5.023,0.204
				c0.679,0.09,1.188,0.295,1.527,0.61c0.339,0.316,0.511,0.722,0.511,1.22c0,1.22-0.838,1.831-2.514,1.831
				c-2.714,0.046-5.522,0.114-8.418,0.203c-2.898,0.092-5.681,0.181-8.35,0.271v10.848c0,0.542,0.191,0.927,0.577,1.153
				c0.384,0.226,1.256,0.338,2.613,0.338c0.634,0,1.742-0.09,3.327-0.271c1.583-0.18,3.372-0.44,5.364-0.779
				c1.991-0.339,4.095-0.756,6.313-1.254c2.217-0.497,4.278-1.04,6.18-1.627c0.45-0.135,0.825-0.158,1.119-0.068
				c0.294,0.091,0.476,0.238,0.544,0.441c0.068,0.203,0.01,0.44-0.17,0.712c-0.181,0.271-0.521,0.542-1.02,0.813
				c-1.494,0.769-3.258,1.525-5.294,2.271c-2.038,0.745-4.142,1.424-6.314,2.033c-2.172,0.611-4.335,1.119-6.484,1.526
				c-2.151,0.406-4.107,0.634-5.874,0.678c-2.172,0.091-3.631-0.441-4.378-1.593c-0.747-1.153-1.121-2.678-1.121-4.577V257.309z
				 M484.729,246.122v39.455c0,0.588,0,1.378,0,2.373s-0.023,2.08-0.068,3.255c-0.047,1.175-0.137,2.36-0.271,3.558
				c-0.137,1.197-0.306,2.281-0.511,3.254c-0.203,0.971-0.474,1.763-0.813,2.372c-0.339,0.611-0.759,0.915-1.256,0.915
				c-0.997,0-1.494-2.802-1.494-8.406V266.46c-0.318,0-0.737,0.023-1.258,0.068c-0.521,0.045-1.051,0.079-1.595,0.101
				c-0.542,0.023-1.051,0.057-1.527,0.102c-0.476,0.046-0.827,0.068-1.053,0.068c-0.497,0.091-0.928,0.215-1.289,0.373
				c-0.362,0.159-0.793,0.417-1.291,0.78c-0.271,0-0.679-0.09-1.221-0.271c-0.544-0.18-1.098-0.383-1.664-0.61
				c-0.567-0.226-1.109-0.474-1.63-0.746c-0.521-0.271-0.895-0.518-1.119-0.745c-0.455-0.36-0.636-0.734-0.544-1.118
				c0.089-0.384,0.476-0.576,1.154-0.576c1.673,0.091,3.699,0.101,6.076,0.033c2.377-0.067,4.696-0.146,6.96-0.237V247.41
				c0-0.813-0.419-1.559-1.258-2.236c-0.836-0.679-2.092-1.334-3.768-1.967c-0.363-0.18-0.669-0.35-0.917-0.508
				c-0.25-0.158-0.373-0.351-0.373-0.577c0-0.226,0.17-0.475,0.509-0.745c0.339-0.271,0.848-0.407,1.527-0.407
				c0.316,0,0.905,0.046,1.765,0.137c0.86,0.09,1.776,0.214,2.75,0.372c0.973,0.16,1.89,0.329,2.75,0.508
				c0.86,0.181,1.427,0.34,1.699,0.475L484.729,246.122z"/>
		</g>
	</g>
</g>
</svg>
