<?xml version="1.0" encoding="utf-8"?>
<!-- Generator: Adobe Illustrator 16.0.0, SVG Export Plug-In . SVG Version: 6.00 Build 0)  -->
<!DOCTYPE svg PUBLIC "-//W3C//DTD SVG 1.1//EN" "http://www.w3.org/Graphics/SVG/1.1/DTD/svg11.dtd">
<svg version="1.1" id="레이어_1" xmlns="http://www.w3.org/2000/svg" xmlns:xlink="http://www.w3.org/1999/xlink" x="0px"
	 y="0px" width="258px" height="213px" viewBox="0 0 258 213" enable-background="new 0 0 258 213" xml:space="preserve">
<g>
	<g>
		<polygon fill="#3E454B" points="22.235,0.471 22.235,5.944 27.741,7.41 27.741,0.471 		"/>
		<polygon fill="#3E454B" points="7.583,1.354 7.583,2.045 13.089,3.51 13.089,1.354 		"/>
		<polygon fill="#3E454B" points="56.343,15.021 60.79,16.205 60.79,15.021 		"/>
		<path fill="#3E454B" d="M58.104,7.372c0-3.909-4.658-6.29-11.729-6.29s-11.729,2.381-11.729,6.29c0,0.72,0.159,1.386,0.456,1.997
			L50.3,13.413C55.115,12.679,58.104,10.529,58.104,7.372z M46.376,9.549c-3.943,0-6.051-0.646-6.051-2.177
			c0-1.496,2.107-2.142,6.051-2.142s6.051,0.646,6.051,2.142C52.427,8.902,50.319,9.549,46.376,9.549z"/>
		<path fill="#3E454B" d="M89.756,11.316c0-5.713-5.338-9.452-12.102-9.452c-6.766,0-12.104,3.739-12.104,9.452
			c0,3.099,1.58,5.601,4.1,7.247l8.135,2.165C84.486,20.68,89.756,16.99,89.756,11.316z M77.654,16.279
			c-3.979,0-6.697-1.768-6.697-4.963c0-3.23,2.719-4.999,6.697-4.999c3.977,0,6.697,1.769,6.697,4.999
			C84.352,14.512,81.631,16.279,77.654,16.279z"/>
		<polygon fill="#3E454B" points="91.468,24.369 92.137,24.547 92.137,24.369 		"/>
		<polygon fill="#3E454B" points="123.383,29.129 123.383,24.709 111.688,24.709 111.688,20.563 121.037,20.563 121.037,16.246 
			103.121,16.246 103.121,13.561 120.322,13.561 120.322,2.408 97.646,2.408 97.646,6.726 114.883,6.726 114.883,9.344 
			97.682,9.344 97.682,20.563 106.18,20.563 106.18,24.709 94.52,24.709 94.52,25.182 109.353,29.129 		"/>
	</g>
	<g>
		<polygon fill="#3E454B" points="20.467,60.701 20.467,65.474 25.975,66.939 25.975,60.701 		"/>
		<path fill="#3E454B" d="M42.193,70.321v-0.17h4.385v-4.385h-4.385V61.72h-5.201v4.046h-4.42v2.929l9.639,2.565
			C42.199,70.948,42.193,70.635,42.193,70.321z"/>
		<polygon fill="#3E454B" points="47.836,61.143 47.836,72.531 46.985,72.531 52.936,74.115 52.936,61.143 		"/>
		<polygon fill="#3E454B" points="54.297,60.701 54.297,74.477 59.498,75.861 59.498,60.701 		"/>
		<path fill="#3E454B" d="M77.484,71.885c2.039,3.604,5.779,6.392,11.627,7.377l2.244-4.556c-8.227-1.258-10.914-6.12-10.914-10.199
			v-2.244h-5.881v2.244c0,3.943-2.754,8.941-10.879,10.199l1.264,2.604l4.209,1.12C73.13,77.095,75.858,74.758,77.484,71.885z"/>
		<polygon fill="#3E454B" points="74.766,77.903 74.766,79.924 80.271,81.39 80.271,77.903 		"/>
		<polygon fill="#3E454B" points="121.955,60.701 116.754,60.701 116.754,72.293 114.781,72.293 114.781,61.55 109.684,61.55 
			109.684,89.217 114.781,90.574 114.781,76.645 116.754,76.645 116.754,91.099 121.955,92.483 		"/>
		<path fill="#3E454B" d="M108.391,64.542H95.676v4.318h7.275c-0.611,5.983-3.195,9.995-9.076,13.599l2.789,3.293l0.817,0.218
			C105.91,80.761,108.391,73.772,108.391,64.542z"/>
		<polygon fill="#3E454B" points="11.601,63.114 16.115,64.316 16.115,63.114 		"/>
	</g>
	<g>
		<polygon fill="#3E454B" points="17.85,123.862 17.85,120.769 12.342,120.769 12.342,123.312 28.148,127.519 28.148,123.862 		"/>
		<polygon fill="#3E454B" points="53.684,120.701 53.684,134.313 59.191,135.779 59.191,120.701 		"/>
		<path fill="#3E454B" d="M50.047,127.432c0-3.366-3.332-5.745-8.023-5.745c-4.658,0-7.99,2.379-7.99,5.745
			c0,0.617,0.111,1.197,0.314,1.736l12.06,3.209C48.653,131.406,50.047,129.647,50.047,127.432z M42.023,129.232
			c-1.633,0-2.789-0.543-2.789-1.801c0-1.225,1.156-1.767,2.789-1.767c1.699,0,2.82,0.542,2.82,1.767
			C44.844,128.689,43.723,129.232,42.023,129.232z"/>
		<polygon fill="#3E454B" points="92.748,137.324 92.748,132.838 88.533,132.838 88.533,120.734 83.025,120.734 83.025,142.122 
			88.533,143.588 88.533,137.324 		"/>
		<polygon fill="#3E454B" points="81.529,125.222 75.07,125.222 75.07,121.313 69.563,121.313 69.563,125.222 63.07,125.222 
			63.07,129.539 81.529,129.539 		"/>
		<path fill="#3E454B" d="M72.316,130.898c-4.169,0-7.407,2.518-8.113,6.215l5.102,1.357c0.069-2.084,1.295-3.152,3.012-3.152
			c1.803,0,3.025,1.123,3.025,3.332c0,0.521-0.073,0.975-0.2,1.374l4.967,1.322c0.3-0.829,0.47-1.73,0.47-2.696
			C80.578,134.129,77.043,130.898,72.316,130.898z"/>
		<polygon fill="#3E454B" points="121.309,120.701 115.803,120.701 115.803,150.846 121.309,152.311 		"/>
		<path fill="#3E454B" d="M111.791,123.93H96.254v4.318h9.928c-0.715,6.697-3.842,11.15-11.764,14.957l1.579,2.369l3.298,0.878
			C109.297,140.947,111.791,133.384,111.791,123.93z"/>
	</g>
	<g>
		<polygon fill="#3E454B" points="156.235,12.438 151.271,12.438 151.271,16.824 156.235,16.824 156.235,32.529 161.741,32.529 
			161.741,7.41 156.235,5.944 		"/>
		<path fill="#3E454B" d="M141.583,5.536h-6.051V9.82h6.051v0.408c0,4.42-1.836,9.791-7.275,12.271l2.924,4.182
			c3.502-1.529,5.813-4.453,7.139-7.955c1.395,3.264,3.705,5.982,7.172,7.412l2.824-4.148c-5.406-2.379-7.277-7.514-7.277-11.762
			V9.82h5.949V5.536h-5.949V3.51l-5.506-1.465V5.536z"/>
		<polygon fill="#3E454B" points="165.927,15.021 165.927,19.305 194.79,19.305 194.79,16.205 190.343,15.021 		"/>
		<path fill="#3E454B" d="M211.654,20.732c0.044,0,0.087-0.004,0.131-0.004l-8.135-2.165
			C205.773,19.95,208.561,20.732,211.654,20.732z"/>
		<path fill="#3E454B" d="M169.19,32.088h22.199V21.072H169.19V32.088z M174.597,25.322h11.389v2.516h-11.389V25.322z"/>
		<path fill="#3E454B" d="M180.376,13.695c1.412,0,2.722-0.099,3.924-0.282l-15.196-4.044
			C170.432,12.104,174.596,13.695,180.376,13.695z"/>
		<polygon fill="#3E454B" points="197.206,24.369 197.206,28.789 226.137,28.789 226.137,24.547 225.468,24.369 		"/>
		<polygon fill="#3E454B" points="243.353,29.129 228.52,25.182 228.52,29.129 		"/>
	</g>
	<g>
		<polygon fill="#3E454B" points="144.504,81.302 138.996,81.302 138.996,92.147 160.926,92.147 160.926,87.83 144.504,87.83 		"/>
		<path fill="#3E454B" d="M135.699,63.114v15.672h2.754c7.344,0,10.914-0.17,14.518-0.986l-0.51-4.318
			c-3.061,0.68-5.951,0.884-11.289,0.952v-7.003h8.943v-3.116l-4.515-1.202H135.699z"/>
		<polygon fill="#3E454B" points="154.467,83.75 159.975,83.75 159.975,73.449 163.951,73.449 163.951,68.996 159.975,68.996 
			159.975,66.939 154.467,65.474 		"/>
		<polygon fill="#3E454B" points="188.297,92.589 193.498,92.589 193.498,75.861 188.297,74.477 		"/>
		<path fill="#3E454B" d="M178.914,72.531v4.386h2.922v5.099c-4.213-2.313-5.474-6.458-5.625-10.755l-9.639-2.565v1.456h4.42v0.17
			c0,4.726-1.121,9.757-5.813,12.477l3.059,4.113c2.652-1.496,4.385-3.943,5.406-6.867c1.121,2.652,2.82,4.793,5.404,6.085
			l2.787-3.842v8.975h5.1V74.115l-5.95-1.583H178.914z"/>
		<path fill="#3E454B" d="M199.893,79.263c1.179-0.2,2.25-0.492,3.262-0.832l-4.209-1.12L199.893,79.263z"/>
		<polygon fill="#3E454B" points="208.766,84.668 197.24,84.668 197.24,89.054 226.137,89.054 226.137,84.668 214.271,84.668 
			214.271,81.39 208.766,79.924 		"/>
		<polygon fill="#3E454B" points="243.684,91.332 248.781,91.332 248.781,90.574 243.684,89.217 		"/>
		<polygon fill="#3E454B" points="250.754,91.099 250.754,92.555 255.955,92.555 255.955,92.483 		"/>
		<path fill="#3E454B" d="M231.07,86.232c0.144-0.085,0.271-0.176,0.411-0.262l-0.817-0.218L231.07,86.232z"/>
	</g>
	<g>
		<path fill="#3E454B" d="M160.348,134.605c0-3.604-4.217-5.609-11.252-5.609c-7.037,0-11.254,2.006-11.254,5.609
			c0,3.568,4.217,5.574,11.254,5.574C156.131,140.18,160.348,138.174,160.348,134.605z M143.553,134.605
			c0-1.156,1.666-1.531,5.543-1.531c3.908,0,5.539,0.375,5.539,1.531c0,1.121-1.631,1.529-5.539,1.529
			C145.219,136.135,143.553,135.727,143.553,134.605z"/>
		<polygon fill="#3E454B" points="146.342,123.862 135.938,123.862 135.938,128.111 162.148,128.111 162.148,127.519 
			146.342,123.312 		"/>
		<polygon fill="#3E454B" points="134.68,145.654 146.342,145.654 146.342,152.623 151.85,152.623 151.85,145.654 163.543,145.654 
			163.543,141.336 134.68,141.336 		"/>
		<path fill="#3E454B" d="M176.023,133.211c1.663,0,3.15-0.3,4.384-0.834l-12.06-3.209
			C169.277,131.631,172.202,133.211,176.023,133.211z"/>
		<polygon fill="#3E454B" points="187.684,139.059 181.973,139.059 181.973,142.764 187.684,142.764 187.684,144.838 
			193.191,144.838 193.191,135.779 187.684,134.313 		"/>
		<path fill="#3E454B" d="M165.857,134.502l0.646,4.285c2.244,0,4.76-0.035,7.344-0.17v3.943h-4.25v9.586h24.273v-4.316h-18.834
			v-3.672h4.25v-5.881c2.346-0.205,4.727-0.477,7.037-0.885l-0.34-3.531l-0.909-0.242
			C178.649,134.398,171.387,134.471,165.857,134.502z"/>
		<path fill="#3E454B" d="M185.075,133.619l0.909,0.242l-0.033-0.344C185.664,133.556,185.365,133.584,185.075,133.619z"/>
		<polygon fill="#3E454B" points="217.025,152.59 222.533,152.59 222.533,143.588 217.025,142.122 		"/>
		<path fill="#3E454B" d="M206.316,141.982c-1.768,0-3.025-1.123-3.025-3.332c0-0.063,0.011-0.117,0.014-0.18l-5.102-1.357
			c-0.094,0.493-0.146,1.005-0.146,1.537c0,4.521,3.535,7.752,8.26,7.752c3.718,0,6.689-2.003,7.792-5.056l-4.967-1.322
			C208.729,141.32,207.694,141.982,206.316,141.982z"/>
		<polygon fill="#3E454B" points="249.803,150.846 249.803,152.555 255.309,152.555 255.309,152.311 		"/>
		<path fill="#3E454B" d="M231.273,147.49c0.707-0.337,1.379-0.684,2.021-1.038l-3.298-0.878L231.273,147.49z"/>
	</g>
	<g>
		<polygon fill="#3E454B" points="20.398,180.735 20.398,185.456 25.906,186.922 25.906,180.735 		"/>
		<polygon fill="#3E454B" points="53.105,180.633 53.105,194.16 58.613,195.626 58.613,180.633 		"/>
		<path fill="#3E454B" d="M41.242,182.774c-3.505,0-6.355,2.274-7.698,6.18l4.953,1.318c0.552-1.693,1.516-2.5,2.745-2.5
			c1.553,0,2.673,1.311,3.083,4.051l5.416,1.441C49.394,186.759,45.887,182.774,41.242,182.774z"/>
		<polygon fill="#3E454B" points="89.178,196.714 72.045,196.714 72.045,193.96 88.193,193.96 88.193,189.778 72.045,189.778 
			72.045,187.16 88.975,187.16 88.975,182.843 66.436,182.843 66.436,197.707 78.797,200.997 89.178,200.997 		"/>
		<polygon fill="#3E454B" points="115.053,191.376 116.65,191.376 116.65,198.039 121.854,198.039 121.854,180.735 116.65,180.735 
			116.65,186.99 115.053,186.99 115.053,181.313 109.953,181.313 109.953,197.835 115.053,197.835 		"/>
		<path fill="#3E454B" d="M121.854,212.284v-12.987h-5.439v2.38h-11.221v-2.38h-5.439v7.277l21.455,5.71H121.854z M116.414,207.966
			h-11.221v-2.142h11.221V207.966z"/>
		<path fill="#3E454B" d="M108.221,182.774H95.438v14.143h12.783V182.774z M103.154,192.735h-2.617v-5.813h2.617V192.735z"/>
		<polygon fill="#3E454B" points="11.348,183.047 12.986,183.483 12.986,183.047 		"/>
	</g>
	<g>
		<polygon fill="#3E454B" points="154.398,212.624 159.906,212.624 159.906,197.155 164.189,197.155 164.189,192.668 
			159.906,192.668 159.906,186.922 154.398,185.456 		"/>
		<path fill="#3E454B" d="M141.445,183.047v4.011c0,6.018-1.801,12.104-7.547,14.721l3.264,4.454
			c3.434-1.632,5.711-4.624,7.037-8.261c1.258,3.365,3.299,6.085,6.459,7.683l3.297-4.352c-5.439-2.651-6.969-8.431-6.969-14.245
			v-3.574l-1.639-0.437H141.445z"/>
		<polygon fill="#3E454B" points="187.105,212.726 192.613,212.726 192.613,195.626 187.105,194.16 		"/>
		<path fill="#3E454B" d="M178.506,194.333c0,4.488-1.293,6.563-3.264,6.563c-1.973,0-3.264-2.074-3.264-6.563
			c0-1.69,0.184-3.037,0.519-4.061l-4.953-1.318c-0.532,1.551-0.835,3.351-0.835,5.379c0,7.14,3.637,11.56,8.533,11.56
			c4.895,0,8.533-4.42,8.533-11.56c0-0.365-0.016-0.718-0.034-1.068l-5.416-1.441C178.437,192.562,178.506,193.381,178.506,194.333z
			"/>
		<polygon fill="#3E454B" points="200.436,200.997 212.797,200.997 200.436,197.707 		"/>
		<rect x="197.238" y="204.805" fill="#3E454B" width="28.898" height="4.386"/>
		<polygon fill="#3E454B" points="255.209,212.284 233.754,206.574 233.754,212.284 		"/>
	</g>
</g>
</svg>
