<?xml version="1.0" encoding="utf-8"?>
<!-- Generator: Adobe Illustrator 16.0.0, SVG Export Plug-In . SVG Version: 6.00 Build 0)  -->
<!DOCTYPE svg PUBLIC "-//W3C//DTD SVG 1.1//EN" "http://www.w3.org/Graphics/SVG/1.1/DTD/svg11.dtd">
<svg version="1.1" id="Layer_1" xmlns="http://www.w3.org/2000/svg" xmlns:xlink="http://www.w3.org/1999/xlink" x="0px" y="0px"
	 width="24px" height="46.67px" viewBox="0 0 24 46.67" enable-background="new 0 0 24 46.67" xml:space="preserve">
<g>
	<g>
		<path fill="#FFFA9F" d="M11.98,17.557c-0.856,0-1.553,0.536-1.553,1.194v5.954c0,0.659,0.694,1.193,1.553,1.193
			c0.862,0,1.558-0.534,1.558-1.193v-5.954C13.538,18.093,12.843,17.557,11.98,17.557z"/>
		<path fill="#FFFA9F" d="M13.335,9.834h-0.672c0.091-0.8-0.041-1.596-0.152-2.264s-0.228-1.358-0.168-2.035
			c0.124-1.446,1.711-2.317,3.142-2.4L15.3,0c-2.813,0.165-5.809,2.026-6.085,5.261C9.12,6.333,9.282,7.306,9.412,8.088
			C9.675,9.66,9.687,9.82,8.573,10.166C3.207,11.416,0,15.709,0,21.998v9.74C0.004,39.081,4.489,46.67,12.001,46.67
			C19.515,46.67,24,39.075,24,31.734v-9.736C24,14.927,19.951,10.368,13.335,9.834z M20.868,31.668
			c0,5.842-3.315,11.887-8.867,11.887c-5.545,0-8.861-6.043-8.861-11.887v-9.463c0-5.873,3.23-9.246,8.861-9.246
			c5.637,0,8.867,3.373,8.867,9.246V31.668z"/>
	</g>
</g>
</svg>
